%TF.GenerationSoftware,KiCad,Pcbnew,7.0.7*%
%TF.CreationDate,2023-11-17T01:25:33+08:00*%
%TF.ProjectId,Isolated Power Supply and LDO Verification,49736f6c-6174-4656-9420-506f77657220,rev?*%
%TF.SameCoordinates,Original*%
%TF.FileFunction,Soldermask,Bot*%
%TF.FilePolarity,Negative*%
%FSLAX46Y46*%
G04 Gerber Fmt 4.6, Leading zero omitted, Abs format (unit mm)*
G04 Created by KiCad (PCBNEW 7.0.7) date 2023-11-17 01:25:33*
%MOMM*%
%LPD*%
G01*
G04 APERTURE LIST*
%ADD10C,2.050000*%
%ADD11C,2.250000*%
%ADD12R,1.700000X1.700000*%
%ADD13O,1.700000X1.700000*%
%ADD14C,3.200000*%
G04 APERTURE END LIST*
D10*
%TO.C,J107*%
X126700000Y-48140000D03*
D11*
X124160000Y-45600000D03*
X124160000Y-50680000D03*
X129240000Y-45600000D03*
X129240000Y-50680000D03*
%TD*%
D12*
%TO.C,J102*%
X96215000Y-62520000D03*
D13*
X98755000Y-62520000D03*
X101295000Y-62520000D03*
%TD*%
D12*
%TO.C,J103*%
X167790000Y-63500000D03*
D13*
X167790000Y-66040000D03*
%TD*%
D14*
%TO.C,H103*%
X173000000Y-106000000D03*
%TD*%
D10*
%TO.C,J116*%
X162460000Y-98790000D03*
D11*
X165000000Y-96250000D03*
X159920000Y-96250000D03*
X165000000Y-101330000D03*
X159920000Y-101330000D03*
%TD*%
D10*
%TO.C,J104*%
X99000000Y-52460000D03*
D11*
X96460000Y-49920000D03*
X96460000Y-55000000D03*
X101540000Y-49920000D03*
X101540000Y-55000000D03*
%TD*%
D12*
%TO.C,J113*%
X103460000Y-98750000D03*
D13*
X103460000Y-101290000D03*
X103460000Y-103830000D03*
%TD*%
D10*
%TO.C,J109*%
X113960000Y-98790000D03*
D11*
X116500000Y-96250000D03*
X111420000Y-96250000D03*
X116500000Y-101330000D03*
X111420000Y-101330000D03*
%TD*%
D10*
%TO.C,J115*%
X152000000Y-48540000D03*
D11*
X149460000Y-46000000D03*
X149460000Y-51080000D03*
X154540000Y-46000000D03*
X154540000Y-51080000D03*
%TD*%
D12*
%TO.C,J106*%
X106040000Y-49995000D03*
D13*
X106040000Y-52535000D03*
X106040000Y-55075000D03*
%TD*%
D12*
%TO.C,J105*%
X158040000Y-63540000D03*
D13*
X155500000Y-63540000D03*
X152960000Y-63540000D03*
%TD*%
D10*
%TO.C,J108*%
X115100000Y-52340000D03*
D11*
X112560000Y-49800000D03*
X112560000Y-54880000D03*
X117640000Y-49800000D03*
X117640000Y-54880000D03*
%TD*%
D12*
%TO.C,J118*%
X163000000Y-66080000D03*
D13*
X163000000Y-63540000D03*
%TD*%
D12*
%TO.C,J114*%
X145540000Y-51040000D03*
D13*
X145540000Y-48500000D03*
X145540000Y-45960000D03*
%TD*%
D12*
%TO.C,J101*%
X96215000Y-42420000D03*
D13*
X98755000Y-42420000D03*
X101295000Y-42420000D03*
%TD*%
D12*
%TO.C,J112*%
X135920001Y-107000000D03*
D13*
X138460001Y-107000000D03*
X141000001Y-107000000D03*
%TD*%
D10*
%TO.C,J110*%
X138460000Y-98790000D03*
D11*
X135920000Y-101330000D03*
X141000000Y-101330000D03*
X135920000Y-96250000D03*
X141000000Y-96250000D03*
%TD*%
D12*
%TO.C,J117*%
X151960000Y-103830000D03*
D13*
X151960000Y-101290000D03*
X151960000Y-98750000D03*
%TD*%
D12*
%TO.C,BT101*%
X167790000Y-71460000D03*
D13*
X167790000Y-74000000D03*
%TD*%
D12*
%TO.C,J111*%
X127960000Y-98750000D03*
D13*
X127960000Y-101290000D03*
X127960000Y-103830000D03*
%TD*%
D14*
%TO.C,H101*%
X97000000Y-32000000D03*
%TD*%
%TO.C,H102*%
X173000000Y-32000000D03*
%TD*%
%TO.C,H104*%
X97000000Y-106000000D03*
%TD*%
M02*
