%TF.GenerationSoftware,KiCad,Pcbnew,7.0.7*%
%TF.CreationDate,2023-11-17T01:25:33+08:00*%
%TF.ProjectId,Isolated Power Supply and LDO Verification,49736f6c-6174-4656-9420-506f77657220,rev?*%
%TF.SameCoordinates,Original*%
%TF.FileFunction,Paste,Top*%
%TF.FilePolarity,Positive*%
%FSLAX46Y46*%
G04 Gerber Fmt 4.6, Leading zero omitted, Abs format (unit mm)*
G04 Created by KiCad (PCBNEW 7.0.7) date 2023-11-17 01:25:33*
%MOMM*%
%LPD*%
G01*
G04 APERTURE LIST*
G04 Aperture macros list*
%AMRoundRect*
0 Rectangle with rounded corners*
0 $1 Rounding radius*
0 $2 $3 $4 $5 $6 $7 $8 $9 X,Y pos of 4 corners*
0 Add a 4 corners polygon primitive as box body*
4,1,4,$2,$3,$4,$5,$6,$7,$8,$9,$2,$3,0*
0 Add four circle primitives for the rounded corners*
1,1,$1+$1,$2,$3*
1,1,$1+$1,$4,$5*
1,1,$1+$1,$6,$7*
1,1,$1+$1,$8,$9*
0 Add four rect primitives between the rounded corners*
20,1,$1+$1,$2,$3,$4,$5,0*
20,1,$1+$1,$4,$5,$6,$7,0*
20,1,$1+$1,$6,$7,$8,$9,0*
20,1,$1+$1,$8,$9,$2,$3,0*%
G04 Aperture macros list end*
%ADD10RoundRect,0.135000X-0.135000X-0.185000X0.135000X-0.185000X0.135000X0.185000X-0.135000X0.185000X0*%
%ADD11RoundRect,0.167500X-0.312500X0.167500X-0.312500X-0.167500X0.312500X-0.167500X0.312500X0.167500X0*%
%ADD12RoundRect,0.062500X-0.062500X0.362500X-0.062500X-0.362500X0.062500X-0.362500X0.062500X0.362500X0*%
%ADD13RoundRect,0.225000X-0.250000X0.225000X-0.250000X-0.225000X0.250000X-0.225000X0.250000X0.225000X0*%
%ADD14R,0.600000X0.800000*%
%ADD15R,0.600000X0.650000*%
%ADD16RoundRect,0.135000X0.185000X-0.135000X0.185000X0.135000X-0.185000X0.135000X-0.185000X-0.135000X0*%
%ADD17RoundRect,0.250000X0.325000X0.650000X-0.325000X0.650000X-0.325000X-0.650000X0.325000X-0.650000X0*%
%ADD18RoundRect,0.140000X-0.140000X-0.170000X0.140000X-0.170000X0.140000X0.170000X-0.140000X0.170000X0*%
%ADD19RoundRect,0.250000X0.250000X0.475000X-0.250000X0.475000X-0.250000X-0.475000X0.250000X-0.475000X0*%
%ADD20RoundRect,0.250000X-0.300000X0.300000X-0.300000X-0.300000X0.300000X-0.300000X0.300000X0.300000X0*%
%ADD21RoundRect,0.250000X-0.650000X0.325000X-0.650000X-0.325000X0.650000X-0.325000X0.650000X0.325000X0*%
%ADD22RoundRect,0.250000X-0.325000X-0.650000X0.325000X-0.650000X0.325000X0.650000X-0.325000X0.650000X0*%
%ADD23RoundRect,0.250000X-0.475000X0.250000X-0.475000X-0.250000X0.475000X-0.250000X0.475000X0.250000X0*%
%ADD24RoundRect,0.150000X0.950000X0.150000X-0.950000X0.150000X-0.950000X-0.150000X0.950000X-0.150000X0*%
%ADD25RoundRect,0.250000X0.475000X-0.250000X0.475000X0.250000X-0.475000X0.250000X-0.475000X-0.250000X0*%
%ADD26RoundRect,0.250000X0.650000X-0.325000X0.650000X0.325000X-0.650000X0.325000X-0.650000X-0.325000X0*%
%ADD27RoundRect,0.140000X0.170000X-0.140000X0.170000X0.140000X-0.170000X0.140000X-0.170000X-0.140000X0*%
%ADD28RoundRect,0.225000X0.250000X-0.225000X0.250000X0.225000X-0.250000X0.225000X-0.250000X-0.225000X0*%
%ADD29RoundRect,0.250000X0.300000X-0.300000X0.300000X0.300000X-0.300000X0.300000X-0.300000X-0.300000X0*%
%ADD30RoundRect,0.150000X-0.512500X-0.150000X0.512500X-0.150000X0.512500X0.150000X-0.512500X0.150000X0*%
%ADD31RoundRect,0.197500X0.237500X-0.197500X0.237500X0.197500X-0.237500X0.197500X-0.237500X-0.197500X0*%
%ADD32RoundRect,0.100000X0.100000X-0.625000X0.100000X0.625000X-0.100000X0.625000X-0.100000X-0.625000X0*%
%ADD33RoundRect,0.140000X-0.170000X0.140000X-0.170000X-0.140000X0.170000X-0.140000X0.170000X0.140000X0*%
%ADD34RoundRect,0.250000X0.250000X-0.800000X0.250000X0.800000X-0.250000X0.800000X-0.250000X-0.800000X0*%
%ADD35RoundRect,0.170000X-0.210000X0.170000X-0.210000X-0.170000X0.210000X-0.170000X0.210000X0.170000X0*%
%ADD36RoundRect,0.075000X-0.075000X0.650000X-0.075000X-0.650000X0.075000X-0.650000X0.075000X0.650000X0*%
G04 APERTURE END LIST*
D10*
%TO.C,R104*%
X136660000Y-92650000D03*
X137680000Y-92650000D03*
%TD*%
D11*
%TO.C,U106*%
X160595001Y-88719999D03*
X159405001Y-88719999D03*
X160595001Y-89539999D03*
X159405001Y-89539999D03*
D12*
X161000001Y-87679999D03*
X160500001Y-87679999D03*
X160000001Y-87679999D03*
X159500001Y-87679999D03*
X159000001Y-87679999D03*
X159000001Y-90579999D03*
X159500001Y-90579999D03*
X160000001Y-90579999D03*
X160500001Y-90579999D03*
X161000001Y-90579999D03*
%TD*%
D13*
%TO.C,C119*%
X137040000Y-39475000D03*
X137040000Y-41025000D03*
%TD*%
D14*
%TO.C,C123*%
X140440000Y-38500000D03*
D15*
X141440000Y-37875000D03*
X141440000Y-39025000D03*
D14*
X142440000Y-38500000D03*
%TD*%
D16*
%TO.C,R102*%
X116040000Y-40510000D03*
X116040000Y-39490000D03*
%TD*%
D17*
%TO.C,C108*%
X120515000Y-42300000D03*
X117565000Y-42300000D03*
%TD*%
D18*
%TO.C,C112*%
X134690000Y-93699999D03*
X135650000Y-93699999D03*
%TD*%
D16*
%TO.C,R101*%
X110920000Y-93860000D03*
X110920000Y-92840000D03*
%TD*%
D19*
%TO.C,C133*%
X112470000Y-78949999D03*
X110570000Y-78949999D03*
%TD*%
%TO.C,C132*%
X160950001Y-85770000D03*
X159050001Y-85770000D03*
%TD*%
D17*
%TO.C,C124*%
X142915000Y-41400000D03*
X139965000Y-41400000D03*
%TD*%
D20*
%TO.C,D102*%
X134540000Y-39400001D03*
X134540000Y-42200001D03*
%TD*%
D19*
%TO.C,C113*%
X114270000Y-93350000D03*
X112370000Y-93350000D03*
%TD*%
D21*
%TO.C,C107*%
X113640000Y-60325000D03*
X113640000Y-63275000D03*
%TD*%
%TO.C,C117*%
X136840000Y-55925000D03*
X136840000Y-58875000D03*
%TD*%
D22*
%TO.C,C121*%
X139965000Y-35500000D03*
X142915000Y-35500000D03*
%TD*%
D14*
%TO.C,C110*%
X117340000Y-44900000D03*
D15*
X118340000Y-44275000D03*
X118340000Y-45425000D03*
D14*
X119340000Y-44900000D03*
%TD*%
D23*
%TO.C,C103*%
X128170000Y-86100000D03*
X128170000Y-88000000D03*
%TD*%
D24*
%TO.C,U105*%
X123690000Y-35960000D03*
X123690000Y-38500000D03*
X123690000Y-41040000D03*
X131390000Y-41040000D03*
X131390000Y-38500000D03*
X131390000Y-35960000D03*
%TD*%
D19*
%TO.C,C115*%
X133219999Y-92300000D03*
X131319999Y-92300000D03*
%TD*%
D23*
%TO.C,C130*%
X132970000Y-86100000D03*
X132970000Y-88000000D03*
%TD*%
D13*
%TO.C,C131*%
X134840000Y-55825000D03*
X134840000Y-57375000D03*
%TD*%
D14*
%TO.C,C120*%
X141340000Y-55900000D03*
D15*
X142340000Y-55275000D03*
X142340000Y-56425000D03*
D14*
X143340000Y-55900000D03*
%TD*%
D23*
%TO.C,C126*%
X157000000Y-93130000D03*
X157000000Y-95030000D03*
%TD*%
D19*
%TO.C,C129*%
X162950002Y-93330000D03*
X161050002Y-93330000D03*
%TD*%
D23*
%TO.C,C102*%
X108420001Y-93200000D03*
X108420001Y-95100000D03*
%TD*%
D25*
%TO.C,C128*%
X163000000Y-90530000D03*
X163000000Y-88630000D03*
%TD*%
D21*
%TO.C,C109*%
X119640000Y-60325000D03*
X119640000Y-63275000D03*
%TD*%
D26*
%TO.C,C106*%
X115340000Y-44975000D03*
X115340000Y-42025000D03*
%TD*%
D16*
%TO.C,R105*%
X159500000Y-93840000D03*
X159500000Y-92820000D03*
%TD*%
D10*
%TO.C,R103*%
X134660000Y-92650000D03*
X135680000Y-92650000D03*
%TD*%
D19*
%TO.C,C125*%
X160949999Y-80970000D03*
X159049999Y-80970000D03*
%TD*%
D27*
%TO.C,C104*%
X136270000Y-83680000D03*
X136270000Y-82720000D03*
%TD*%
D14*
%TO.C,C111*%
X115640000Y-60300000D03*
D15*
X116640000Y-59675000D03*
X116640000Y-60825000D03*
D14*
X117640000Y-60300000D03*
%TD*%
D19*
%TO.C,C116*%
X133220000Y-94400000D03*
X131320000Y-94400000D03*
%TD*%
D28*
%TO.C,C118*%
X137040000Y-37525000D03*
X137040000Y-35975000D03*
%TD*%
D29*
%TO.C,D101*%
X134540000Y-37600000D03*
X134540000Y-34800000D03*
%TD*%
D25*
%TO.C,C114*%
X114320000Y-91100000D03*
X114320000Y-89200000D03*
%TD*%
D19*
%TO.C,C101*%
X112470001Y-83850000D03*
X110570001Y-83850000D03*
%TD*%
D30*
%TO.C,U103*%
X117902500Y-37550000D03*
X117902500Y-38500000D03*
X117902500Y-39450000D03*
X120177500Y-39450000D03*
X120177500Y-38500000D03*
X120177500Y-37550000D03*
%TD*%
D31*
%TO.C,U101*%
X135370000Y-88650000D03*
X136450000Y-88650000D03*
X135370000Y-87670000D03*
X136450000Y-87670000D03*
D32*
X134935000Y-90310000D03*
X135585000Y-90310000D03*
X136235000Y-90310000D03*
X136885000Y-90310000D03*
X136885000Y-86010000D03*
X136235000Y-86010000D03*
X135585000Y-86010000D03*
X134935000Y-86010000D03*
%TD*%
D33*
%TO.C,C127*%
X158500000Y-92850000D03*
X158500000Y-93810000D03*
%TD*%
D34*
%TO.C,U104*%
X123590000Y-64750000D03*
X126130000Y-64750000D03*
X131210000Y-64750000D03*
X131210000Y-55030000D03*
X123590000Y-55030000D03*
%TD*%
D35*
%TO.C,U102*%
X111940000Y-87680000D03*
X111000000Y-87680000D03*
X111940000Y-88520000D03*
X111000000Y-88520000D03*
D36*
X112470000Y-85950000D03*
X111970000Y-85950000D03*
X111470000Y-85950000D03*
X110970000Y-85950000D03*
X110470000Y-85950000D03*
X110470000Y-90250000D03*
X110970000Y-90250000D03*
X111470000Y-90250000D03*
X111970000Y-90250000D03*
X112470000Y-90250000D03*
%TD*%
D21*
%TO.C,C122*%
X145440000Y-55925000D03*
X145440000Y-58875000D03*
%TD*%
D33*
%TO.C,C105*%
X109920000Y-92870000D03*
X109920000Y-93830000D03*
%TD*%
M02*
