%TF.GenerationSoftware,KiCad,Pcbnew,7.0.7*%
%TF.CreationDate,2023-11-17T01:25:33+08:00*%
%TF.ProjectId,Isolated Power Supply and LDO Verification,49736f6c-6174-4656-9420-506f77657220,rev?*%
%TF.SameCoordinates,Original*%
%TF.FileFunction,Profile,NP*%
%FSLAX46Y46*%
G04 Gerber Fmt 4.6, Leading zero omitted, Abs format (unit mm)*
G04 Created by KiCad (PCBNEW 7.0.7) date 2023-11-17 01:25:33*
%MOMM*%
%LPD*%
G01*
G04 APERTURE LIST*
%TA.AperFunction,Profile*%
%ADD10C,0.100000*%
%TD*%
G04 APERTURE END LIST*
D10*
X173000000Y-110000000D02*
G75*
G03*
X177000000Y-106000000I0J4000000D01*
G01*
X107000000Y-68000000D02*
G75*
G03*
X107000000Y-70000000I0J-1000000D01*
G01*
X123000000Y-28000000D02*
X125000000Y-30000000D01*
X130000000Y-30000000D02*
X132000000Y-28000000D01*
X97000000Y-28000000D02*
G75*
G03*
X93000000Y-32000000I0J-4000000D01*
G01*
X147000000Y-70000000D02*
G75*
G03*
X147000000Y-68000000I0J1000000D01*
G01*
X177000000Y-80000000D02*
X177000000Y-106000000D01*
X107000000Y-68000000D02*
X147000000Y-68000000D01*
X177000000Y-32000000D02*
G75*
G03*
X173000000Y-28000000I-4000000J0D01*
G01*
X173000000Y-62000000D02*
X173000000Y-76000000D01*
X125000000Y-30000000D02*
X130000000Y-30000000D01*
X97000000Y-28000000D02*
X123000000Y-28000000D01*
X132000000Y-28000000D02*
X173000000Y-28000000D01*
X93000000Y-32000000D02*
X93000000Y-61000000D01*
X93000000Y-106000000D02*
G75*
G03*
X97000000Y-110000000I4000000J0D01*
G01*
X93000000Y-61000000D02*
X93000000Y-106000000D01*
X173000000Y-76000000D02*
X177000000Y-80000000D01*
X173000000Y-110000000D02*
X145000000Y-110000000D01*
X107000000Y-70000000D02*
X147000000Y-70000000D01*
X177000000Y-32000000D02*
X177000000Y-58000000D01*
X177000000Y-58000000D02*
X173000000Y-62000000D01*
X145000000Y-110000000D02*
X97000000Y-110000000D01*
M02*
