%TF.GenerationSoftware,KiCad,Pcbnew,7.0.7*%
%TF.CreationDate,2023-11-17T01:25:33+08:00*%
%TF.ProjectId,Isolated Power Supply and LDO Verification,49736f6c-6174-4656-9420-506f77657220,rev?*%
%TF.SameCoordinates,Original*%
%TF.FileFunction,Copper,L2,Inr*%
%TF.FilePolarity,Positive*%
%FSLAX46Y46*%
G04 Gerber Fmt 4.6, Leading zero omitted, Abs format (unit mm)*
G04 Created by KiCad (PCBNEW 7.0.7) date 2023-11-17 01:25:33*
%MOMM*%
%LPD*%
G01*
G04 APERTURE LIST*
%TA.AperFunction,ComponentPad*%
%ADD10C,2.050000*%
%TD*%
%TA.AperFunction,ComponentPad*%
%ADD11C,2.250000*%
%TD*%
%TA.AperFunction,ComponentPad*%
%ADD12R,1.700000X1.700000*%
%TD*%
%TA.AperFunction,ComponentPad*%
%ADD13O,1.700000X1.700000*%
%TD*%
%TA.AperFunction,ViaPad*%
%ADD14C,0.800000*%
%TD*%
%TA.AperFunction,ViaPad*%
%ADD15C,0.603000*%
%TD*%
G04 APERTURE END LIST*
D10*
%TO.N,Net-(J107-In)*%
%TO.C,J107*%
X126700000Y-48140000D03*
D11*
%TO.N,GNDS*%
X124160000Y-45600000D03*
X124160000Y-50680000D03*
X129240000Y-45600000D03*
X129240000Y-50680000D03*
%TD*%
D12*
%TO.N,GNDS*%
%TO.C,J102*%
X96215000Y-62520000D03*
D13*
X98755000Y-62520000D03*
X101295000Y-62520000D03*
%TD*%
D12*
%TO.N,Net-(J103-Pin_1)*%
%TO.C,J103*%
X167790000Y-63500000D03*
D13*
%TO.N,Net-(BT101-+)*%
X167790000Y-66040000D03*
%TD*%
D10*
%TO.N,Net-(J116-In)*%
%TO.C,J116*%
X162460000Y-98790000D03*
D11*
%TO.N,GND*%
X165000000Y-96250000D03*
X159920000Y-96250000D03*
X165000000Y-101330000D03*
X159920000Y-101330000D03*
%TD*%
D10*
%TO.N,Net-(J101-Pin_1)*%
%TO.C,J104*%
X99000000Y-52460000D03*
D11*
%TO.N,GNDS*%
X96460000Y-49920000D03*
X96460000Y-55000000D03*
X101540000Y-49920000D03*
X101540000Y-55000000D03*
%TD*%
D12*
%TO.N,Net-(J109-In)*%
%TO.C,J113*%
X103460000Y-98750000D03*
D13*
X103460000Y-101290000D03*
X103460000Y-103830000D03*
%TD*%
D10*
%TO.N,Net-(J109-In)*%
%TO.C,J109*%
X113960000Y-98790000D03*
D11*
%TO.N,GND*%
X116500000Y-96250000D03*
X111420000Y-96250000D03*
X116500000Y-101330000D03*
X111420000Y-101330000D03*
%TD*%
D10*
%TO.N,Net-(J103-Pin_1)*%
%TO.C,J115*%
X152000000Y-48540000D03*
D11*
%TO.N,GND*%
X149460000Y-46000000D03*
X149460000Y-51080000D03*
X154540000Y-46000000D03*
X154540000Y-51080000D03*
%TD*%
D12*
%TO.N,Net-(J106-Pin_1)*%
%TO.C,J106*%
X106040000Y-49995000D03*
D13*
%TO.N,Net-(J101-Pin_1)*%
X106040000Y-52535000D03*
%TO.N,Net-(J106-Pin_3)*%
X106040000Y-55075000D03*
%TD*%
D12*
%TO.N,Net-(J105-Pin_1)*%
%TO.C,J105*%
X158040000Y-63540000D03*
D13*
%TO.N,Net-(J103-Pin_1)*%
X155500000Y-63540000D03*
%TO.N,Net-(J105-Pin_3)*%
X152960000Y-63540000D03*
%TD*%
D10*
%TO.N,Net-(J108-In)*%
%TO.C,J108*%
X115100000Y-52340000D03*
D11*
%TO.N,GNDS*%
X112560000Y-49800000D03*
X112560000Y-54880000D03*
X117640000Y-49800000D03*
X117640000Y-54880000D03*
%TD*%
D12*
%TO.N,Net-(J118-Pin_1)*%
%TO.C,J118*%
X163000000Y-66080000D03*
D13*
%TO.N,Net-(J103-Pin_1)*%
X163000000Y-63540000D03*
%TD*%
D12*
%TO.N,Net-(J114-Pin_1)*%
%TO.C,J114*%
X145540000Y-51040000D03*
D13*
%TO.N,Net-(J103-Pin_1)*%
X145540000Y-48500000D03*
%TO.N,Net-(J114-Pin_3)*%
X145540000Y-45960000D03*
%TD*%
D12*
%TO.N,Net-(J101-Pin_1)*%
%TO.C,J101*%
X96215000Y-42420000D03*
D13*
X98755000Y-42420000D03*
X101295000Y-42420000D03*
%TD*%
D12*
%TO.N,GND*%
%TO.C,J112*%
X135920001Y-107000000D03*
D13*
X138460001Y-107000000D03*
X141000001Y-107000000D03*
%TD*%
D10*
%TO.N,/+4V5_REG*%
%TO.C,J110*%
X138460000Y-98790000D03*
D11*
%TO.N,GND*%
X135920000Y-101330000D03*
X141000000Y-101330000D03*
X135920000Y-96250000D03*
X141000000Y-96250000D03*
%TD*%
D12*
%TO.N,Net-(J116-In)*%
%TO.C,J117*%
X151960000Y-103830000D03*
D13*
X151960000Y-101290000D03*
X151960000Y-98750000D03*
%TD*%
D12*
%TO.N,Net-(BT101-+)*%
%TO.C,BT101*%
X167790000Y-71460000D03*
D13*
%TO.N,GND*%
X167790000Y-74000000D03*
%TD*%
D12*
%TO.N,/+4V5_REG*%
%TO.C,J111*%
X127960000Y-98750000D03*
D13*
X127960000Y-101290000D03*
X127960000Y-103830000D03*
%TD*%
D14*
%TO.N,GND*%
X107750000Y-96250000D03*
D15*
X142800000Y-57800000D03*
D14*
X129200000Y-91800000D03*
X158000000Y-82000000D03*
X138200000Y-91800000D03*
D15*
X146700000Y-58900000D03*
D14*
X130000000Y-39000000D03*
X138400000Y-88600000D03*
D15*
X142000000Y-53900000D03*
D14*
X116000000Y-90500000D03*
D15*
X137400000Y-35100000D03*
X142400000Y-58600000D03*
D14*
X132100000Y-65200000D03*
X108500000Y-83750000D03*
X157000000Y-82000000D03*
X129200000Y-94800000D03*
X132750000Y-89000000D03*
X112750000Y-94500000D03*
X157000000Y-88800000D03*
X130000000Y-38000000D03*
X108750000Y-88000000D03*
X128500000Y-90250000D03*
D15*
X145900000Y-57900000D03*
D14*
X135400000Y-87600000D03*
D15*
X141400000Y-36400000D03*
D14*
X115750000Y-88000000D03*
X108500000Y-78000000D03*
D15*
X145000000Y-57900000D03*
D14*
X158200000Y-95000000D03*
X164200000Y-89400000D03*
X157000000Y-87800000D03*
X136300000Y-57700000D03*
X116000000Y-93000000D03*
X160600000Y-92200000D03*
X157000000Y-85800000D03*
X131750000Y-88750000D03*
X163600000Y-87600000D03*
X109500000Y-86750000D03*
X158000000Y-85800000D03*
X109500000Y-82750000D03*
X109500000Y-85750000D03*
D15*
X141400000Y-39700000D03*
D14*
X112000000Y-87500000D03*
X138300000Y-41000000D03*
X135400000Y-58400000D03*
X137800000Y-90800000D03*
D15*
X142400000Y-53100000D03*
D14*
X158000000Y-88800000D03*
D15*
X113020000Y-88400000D03*
X141500000Y-53100000D03*
X113000000Y-87570000D03*
D14*
X158000000Y-89800000D03*
X137600000Y-93600000D03*
X138300000Y-58400000D03*
D15*
X141500000Y-58600000D03*
X160000000Y-88700000D03*
D14*
X109500000Y-90250000D03*
X109500000Y-78000000D03*
X158000000Y-86800000D03*
X114500000Y-88000000D03*
X127500000Y-90250000D03*
D15*
X142350000Y-55850000D03*
D14*
X157000000Y-80000000D03*
X109500000Y-79000000D03*
X137200000Y-82800000D03*
X157000000Y-84800000D03*
D15*
X159228287Y-88714184D03*
D14*
X110000000Y-94750000D03*
X136400000Y-87600000D03*
X158000000Y-87800000D03*
X137400000Y-87600000D03*
X109500000Y-84750000D03*
X108500000Y-80000000D03*
X131250000Y-39250000D03*
X109250000Y-96250000D03*
D15*
X141200000Y-57800000D03*
D14*
X108500000Y-86750000D03*
X143500000Y-36700000D03*
X132500000Y-39250000D03*
D15*
X137400000Y-34300000D03*
X159200000Y-89600000D03*
X142400000Y-57100000D03*
D14*
X132500000Y-37750000D03*
X157000000Y-96000000D03*
X137800000Y-89800000D03*
X108500000Y-79000000D03*
D15*
X141400000Y-37200000D03*
D14*
X131750000Y-87750000D03*
X112000000Y-88500000D03*
X130200000Y-93800000D03*
X130200000Y-92800000D03*
X143500000Y-34300000D03*
X129500000Y-89250000D03*
X164200000Y-88400000D03*
X134400000Y-88600000D03*
X135400000Y-88600000D03*
X140400000Y-42800000D03*
D15*
X141400000Y-40500000D03*
D14*
X137400000Y-57700000D03*
X157000000Y-90800000D03*
D15*
X160800000Y-88700000D03*
X142800000Y-53900000D03*
D14*
X129200000Y-93800000D03*
X158000000Y-80000000D03*
X157000000Y-86800000D03*
X111000000Y-87500000D03*
X142200000Y-36700000D03*
D15*
X160800000Y-89600000D03*
D14*
X128500000Y-89250000D03*
X137700000Y-42000000D03*
X109500000Y-83750000D03*
X142200000Y-34300000D03*
X158000000Y-90800000D03*
X155800000Y-95000000D03*
X138600000Y-93000000D03*
D15*
X136700000Y-35100000D03*
D14*
X136800000Y-91600000D03*
X131200000Y-63100000D03*
X139500000Y-42800000D03*
X129500000Y-90250000D03*
X129200000Y-92800000D03*
X161800000Y-89200000D03*
X108500000Y-89250000D03*
X108500000Y-90250000D03*
X131250000Y-37750000D03*
X130400000Y-65200000D03*
X115750000Y-89250000D03*
X136600000Y-42400000D03*
X162600000Y-87600000D03*
X127500000Y-89250000D03*
X109500000Y-89250000D03*
D15*
X141500000Y-54600000D03*
D14*
X157000000Y-81000000D03*
X111750000Y-94500000D03*
X158000000Y-84800000D03*
D15*
X146700000Y-58100000D03*
X160000000Y-89600000D03*
D14*
X161600000Y-92200000D03*
D15*
X141400000Y-38450000D03*
D14*
X141100000Y-42100000D03*
X138400000Y-87600000D03*
D15*
X142400000Y-54600000D03*
X142000000Y-57800000D03*
D14*
X108500000Y-82750000D03*
X108500000Y-84750000D03*
X135400000Y-82800000D03*
X136300000Y-81900000D03*
X158000000Y-81000000D03*
X157000000Y-89800000D03*
X111000000Y-88500000D03*
D15*
X136700000Y-34300000D03*
X143300000Y-58600000D03*
D14*
X116000000Y-91750000D03*
X134300000Y-58400000D03*
X130200000Y-91800000D03*
X134400000Y-87600000D03*
X109500000Y-80000000D03*
X109750000Y-88000000D03*
X130200000Y-94800000D03*
X132100000Y-64100000D03*
X137400000Y-88600000D03*
X108500000Y-85750000D03*
X160200000Y-93800000D03*
X136400000Y-88600000D03*
X130400000Y-64100000D03*
D15*
%TO.N,Net-(J105-Pin_1)*%
X134220000Y-86010000D03*
X137570000Y-86010000D03*
D14*
%TO.N,GNDS*%
X104000000Y-62000000D03*
D15*
X117600000Y-43550000D03*
X116650000Y-61600000D03*
X118350000Y-46150000D03*
D14*
X102000000Y-37000000D03*
X111000000Y-38000000D03*
X118000000Y-40750000D03*
X108000000Y-37000000D03*
D15*
X117500000Y-62650000D03*
D14*
X109000000Y-43000000D03*
X110000000Y-64000000D03*
X102000000Y-39000000D03*
X118750000Y-41500000D03*
X110000000Y-39000000D03*
X111750000Y-64500000D03*
X106000000Y-64000000D03*
D15*
X116650000Y-59000000D03*
D14*
X114000000Y-39000000D03*
X111000000Y-43000000D03*
X112000000Y-42000000D03*
X114250000Y-64500000D03*
X104000000Y-39000000D03*
X106000000Y-37000000D03*
D15*
X117550000Y-46950000D03*
D14*
X112000000Y-62000000D03*
X104000000Y-37000000D03*
D15*
X114950000Y-58900000D03*
D14*
X98000000Y-39000000D03*
X99000000Y-38000000D03*
X106000000Y-44000000D03*
D15*
X118350000Y-46950000D03*
D14*
X113000000Y-43000000D03*
X110000000Y-42000000D03*
X96000000Y-39000000D03*
X107000000Y-63000000D03*
X115000000Y-63250000D03*
X124500000Y-65500000D03*
X114000000Y-37000000D03*
D15*
X114950000Y-61750000D03*
X116400000Y-58200000D03*
D14*
X97000000Y-38000000D03*
X112000000Y-37000000D03*
D15*
X117550000Y-46150000D03*
D14*
X103000000Y-38000000D03*
X122500000Y-64000000D03*
X116750000Y-38500000D03*
X117750000Y-64500000D03*
X105000000Y-63000000D03*
X101000000Y-38000000D03*
X108000000Y-42000000D03*
X117000000Y-40750000D03*
X118250000Y-63250000D03*
X106000000Y-62000000D03*
X108000000Y-39000000D03*
X121000000Y-63250000D03*
X114250000Y-40750000D03*
X113750000Y-41750000D03*
X116250000Y-37500000D03*
D15*
X118350000Y-44850000D03*
D14*
X100000000Y-39000000D03*
X124500000Y-64000000D03*
X96000000Y-37000000D03*
X122500000Y-65500000D03*
X100000000Y-37000000D03*
X104000000Y-58000000D03*
X113000000Y-64500000D03*
X110000000Y-62000000D03*
D15*
X118950000Y-43050000D03*
D14*
X105000000Y-38000000D03*
X108000000Y-64000000D03*
D15*
X118350000Y-43550000D03*
X115800000Y-62600000D03*
D14*
X98000000Y-37000000D03*
X115500000Y-64500000D03*
X112250000Y-63250000D03*
X109000000Y-38000000D03*
X108000000Y-62000000D03*
X121500000Y-64750000D03*
X105000000Y-45000000D03*
X107000000Y-43000000D03*
X120250000Y-64500000D03*
D15*
X116650000Y-60250000D03*
D14*
X103000000Y-47000000D03*
X109000000Y-63000000D03*
X104000000Y-60000000D03*
X119000000Y-64500000D03*
X104000000Y-46000000D03*
X110000000Y-37000000D03*
X113000000Y-38000000D03*
X106000000Y-39000000D03*
X105000000Y-61000000D03*
X115500000Y-38500000D03*
D15*
X116650000Y-62450000D03*
D14*
X112000000Y-39000000D03*
X115250000Y-40750000D03*
D15*
X115800000Y-61750000D03*
X117500000Y-61750000D03*
D14*
X107000000Y-38000000D03*
D15*
X115800000Y-58900000D03*
%TO.N,Net-(J107-In)*%
X122400000Y-37800000D03*
X123200000Y-37800000D03*
X117910000Y-36730000D03*
X123200000Y-39200000D03*
X122400000Y-39200000D03*
X122000000Y-38500000D03*
D14*
X120200000Y-45200000D03*
D15*
X121250000Y-38500000D03*
D14*
X121200000Y-44200000D03*
X121200000Y-45200000D03*
X120200000Y-44200000D03*
D15*
X124000000Y-37800000D03*
X124000000Y-39200000D03*
%TO.N,Net-(J118-Pin_1)*%
X158680000Y-91690000D03*
X161410000Y-86930000D03*
%TO.N,Net-(J105-Pin_3)*%
X112760000Y-84920000D03*
X110000000Y-91680000D03*
%TD*%
%TA.AperFunction,Conductor*%
%TO.N,GNDS*%
G36*
X124015677Y-35019685D02*
G01*
X124036319Y-35036319D01*
X124963681Y-35963681D01*
X124997166Y-36025004D01*
X125000000Y-36051361D01*
X125000000Y-43000000D01*
X126000000Y-44000000D01*
X130448638Y-44000000D01*
X130515677Y-44019685D01*
X130536319Y-44036319D01*
X130963680Y-44463680D01*
X130997165Y-44525003D01*
X130999999Y-44551361D01*
X130999999Y-51948638D01*
X130980314Y-52015677D01*
X130963680Y-52036319D01*
X130536319Y-52463681D01*
X130474996Y-52497166D01*
X130448638Y-52500000D01*
X126499999Y-52500000D01*
X125000000Y-53999999D01*
X125000000Y-65948638D01*
X124980315Y-66015677D01*
X124963681Y-66036319D01*
X124536319Y-66463681D01*
X124474996Y-66497166D01*
X124448638Y-66500000D01*
X95551362Y-66500000D01*
X95484323Y-66480315D01*
X95463681Y-66463681D01*
X94036319Y-65036319D01*
X94002834Y-64974996D01*
X94000000Y-64948638D01*
X94000000Y-55075000D01*
X104934785Y-55075000D01*
X104953602Y-55278082D01*
X105009417Y-55474247D01*
X105009422Y-55474260D01*
X105100327Y-55656821D01*
X105223237Y-55819581D01*
X105373958Y-55956980D01*
X105373960Y-55956982D01*
X105473141Y-56018392D01*
X105547363Y-56064348D01*
X105737544Y-56138024D01*
X105938024Y-56175500D01*
X105938026Y-56175500D01*
X106141974Y-56175500D01*
X106141976Y-56175500D01*
X106342456Y-56138024D01*
X106532637Y-56064348D01*
X106706041Y-55956981D01*
X106856764Y-55819579D01*
X106979673Y-55656821D01*
X107070582Y-55474250D01*
X107126397Y-55278083D01*
X107145215Y-55075000D01*
X107126397Y-54871917D01*
X107070582Y-54675750D01*
X106979673Y-54493179D01*
X106856764Y-54330421D01*
X106856762Y-54330418D01*
X106706041Y-54193019D01*
X106706039Y-54193017D01*
X106532642Y-54085655D01*
X106532635Y-54085651D01*
X106437546Y-54048814D01*
X106342456Y-54011976D01*
X106141976Y-53974500D01*
X105938024Y-53974500D01*
X105737544Y-54011976D01*
X105737541Y-54011976D01*
X105737541Y-54011977D01*
X105547364Y-54085651D01*
X105547357Y-54085655D01*
X105373960Y-54193017D01*
X105373958Y-54193019D01*
X105223237Y-54330418D01*
X105100327Y-54493178D01*
X105009422Y-54675739D01*
X105009417Y-54675752D01*
X104953602Y-54871917D01*
X104934785Y-55074999D01*
X104934785Y-55075000D01*
X94000000Y-55075000D01*
X94000000Y-52460000D01*
X97719628Y-52460000D01*
X97739079Y-52682329D01*
X97739081Y-52682339D01*
X97796841Y-52897905D01*
X97796843Y-52897909D01*
X97796844Y-52897913D01*
X97891165Y-53100186D01*
X98019178Y-53283007D01*
X98176993Y-53440822D01*
X98359814Y-53568835D01*
X98562087Y-53663156D01*
X98777666Y-53720920D01*
X98955533Y-53736481D01*
X98999999Y-53740372D01*
X99000000Y-53740372D01*
X99000001Y-53740372D01*
X99037055Y-53737130D01*
X99222334Y-53720920D01*
X99437913Y-53663156D01*
X99640186Y-53568835D01*
X99823007Y-53440822D01*
X99980822Y-53283007D01*
X100108835Y-53100186D01*
X100203156Y-52897913D01*
X100260920Y-52682334D01*
X100273810Y-52535000D01*
X104934785Y-52535000D01*
X104953602Y-52738082D01*
X105009417Y-52934247D01*
X105009422Y-52934260D01*
X105100327Y-53116821D01*
X105223237Y-53279581D01*
X105373958Y-53416980D01*
X105373960Y-53416982D01*
X105425403Y-53448834D01*
X105547363Y-53524348D01*
X105737544Y-53598024D01*
X105938024Y-53635500D01*
X105938026Y-53635500D01*
X106141974Y-53635500D01*
X106141976Y-53635500D01*
X106342456Y-53598024D01*
X106532637Y-53524348D01*
X106706041Y-53416981D01*
X106856764Y-53279579D01*
X106979673Y-53116821D01*
X107070582Y-52934250D01*
X107126397Y-52738083D01*
X107145215Y-52535000D01*
X107138606Y-52463681D01*
X107127146Y-52340000D01*
X113819628Y-52340000D01*
X113839079Y-52562329D01*
X113839081Y-52562339D01*
X113896841Y-52777905D01*
X113896843Y-52777909D01*
X113896844Y-52777913D01*
X113991165Y-52980186D01*
X114119178Y-53163007D01*
X114276993Y-53320822D01*
X114459814Y-53448835D01*
X114662087Y-53543156D01*
X114877666Y-53600920D01*
X115055533Y-53616481D01*
X115099999Y-53620372D01*
X115100000Y-53620372D01*
X115100001Y-53620372D01*
X115137055Y-53617130D01*
X115322334Y-53600920D01*
X115537913Y-53543156D01*
X115740186Y-53448835D01*
X115923007Y-53320822D01*
X116080822Y-53163007D01*
X116208835Y-52980186D01*
X116303156Y-52777913D01*
X116360920Y-52562334D01*
X116380372Y-52340000D01*
X116360920Y-52117666D01*
X116303156Y-51902087D01*
X116208835Y-51699814D01*
X116080822Y-51516993D01*
X115923007Y-51359178D01*
X115740186Y-51231165D01*
X115537913Y-51136844D01*
X115537909Y-51136843D01*
X115537905Y-51136841D01*
X115322339Y-51079081D01*
X115322329Y-51079079D01*
X115100001Y-51059628D01*
X115099999Y-51059628D01*
X114877670Y-51079079D01*
X114877660Y-51079081D01*
X114662094Y-51136841D01*
X114662087Y-51136843D01*
X114662087Y-51136844D01*
X114459814Y-51231165D01*
X114276993Y-51359178D01*
X114276991Y-51359179D01*
X114276988Y-51359182D01*
X114119182Y-51516988D01*
X114119179Y-51516991D01*
X114119178Y-51516993D01*
X114035153Y-51636993D01*
X113991165Y-51699814D01*
X113896845Y-51902085D01*
X113896841Y-51902094D01*
X113839081Y-52117660D01*
X113839079Y-52117670D01*
X113819628Y-52339999D01*
X113819628Y-52340000D01*
X107127146Y-52340000D01*
X107126397Y-52331917D01*
X107099578Y-52237660D01*
X107070582Y-52135750D01*
X107061579Y-52117670D01*
X107026272Y-52046764D01*
X106979673Y-51953179D01*
X106856764Y-51790421D01*
X106856762Y-51790418D01*
X106706041Y-51653019D01*
X106706039Y-51653017D01*
X106532642Y-51545655D01*
X106532635Y-51545651D01*
X106437546Y-51508814D01*
X106342456Y-51471976D01*
X106141976Y-51434500D01*
X105938024Y-51434500D01*
X105737544Y-51471976D01*
X105737541Y-51471976D01*
X105737541Y-51471977D01*
X105547364Y-51545651D01*
X105547357Y-51545655D01*
X105373960Y-51653017D01*
X105373958Y-51653019D01*
X105223237Y-51790418D01*
X105100327Y-51953178D01*
X105009422Y-52135739D01*
X105009417Y-52135752D01*
X104953602Y-52331917D01*
X104934785Y-52534999D01*
X104934785Y-52535000D01*
X100273810Y-52535000D01*
X100280372Y-52460000D01*
X100260920Y-52237666D01*
X100217060Y-52073980D01*
X100203158Y-52022094D01*
X100203157Y-52022093D01*
X100203156Y-52022087D01*
X100108835Y-51819814D01*
X99980822Y-51636993D01*
X99823007Y-51479178D01*
X99640186Y-51351165D01*
X99437913Y-51256844D01*
X99437909Y-51256843D01*
X99437905Y-51256841D01*
X99222339Y-51199081D01*
X99222329Y-51199079D01*
X99000001Y-51179628D01*
X98999999Y-51179628D01*
X98777670Y-51199079D01*
X98777660Y-51199081D01*
X98562094Y-51256841D01*
X98562087Y-51256843D01*
X98562087Y-51256844D01*
X98359814Y-51351165D01*
X98176993Y-51479178D01*
X98176991Y-51479179D01*
X98176988Y-51479182D01*
X98019182Y-51636988D01*
X98019179Y-51636991D01*
X98019178Y-51636993D01*
X97975190Y-51699814D01*
X97891165Y-51819814D01*
X97796845Y-52022085D01*
X97796841Y-52022094D01*
X97739081Y-52237660D01*
X97739079Y-52237670D01*
X97719628Y-52459999D01*
X97719628Y-52460000D01*
X94000000Y-52460000D01*
X94000000Y-50869678D01*
X104939500Y-50869678D01*
X104954032Y-50942735D01*
X104954033Y-50942739D01*
X104954034Y-50942740D01*
X105009399Y-51025601D01*
X105060325Y-51059628D01*
X105092260Y-51080966D01*
X105092264Y-51080967D01*
X105165321Y-51095499D01*
X105165324Y-51095500D01*
X105165326Y-51095500D01*
X106914676Y-51095500D01*
X106914677Y-51095499D01*
X106987740Y-51080966D01*
X107070601Y-51025601D01*
X107125966Y-50942740D01*
X107140500Y-50869674D01*
X107140500Y-49120326D01*
X107140500Y-49120325D01*
X107140500Y-49120323D01*
X107140499Y-49120321D01*
X107125967Y-49047264D01*
X107125966Y-49047260D01*
X107070601Y-48964399D01*
X106987740Y-48909034D01*
X106987739Y-48909033D01*
X106987735Y-48909032D01*
X106914677Y-48894500D01*
X106914674Y-48894500D01*
X105165326Y-48894500D01*
X105165323Y-48894500D01*
X105092264Y-48909032D01*
X105092260Y-48909033D01*
X105009399Y-48964399D01*
X104954033Y-49047260D01*
X104954032Y-49047264D01*
X104939500Y-49120321D01*
X104939500Y-50869678D01*
X94000000Y-50869678D01*
X94000000Y-48140000D01*
X125419628Y-48140000D01*
X125439079Y-48362329D01*
X125439081Y-48362339D01*
X125496841Y-48577905D01*
X125496843Y-48577909D01*
X125496844Y-48577913D01*
X125591165Y-48780186D01*
X125719178Y-48963007D01*
X125876993Y-49120822D01*
X126059814Y-49248835D01*
X126262087Y-49343156D01*
X126477666Y-49400920D01*
X126655533Y-49416481D01*
X126699999Y-49420372D01*
X126700000Y-49420372D01*
X126700001Y-49420372D01*
X126737055Y-49417130D01*
X126922334Y-49400920D01*
X127137913Y-49343156D01*
X127340186Y-49248835D01*
X127523007Y-49120822D01*
X127680822Y-48963007D01*
X127808835Y-48780186D01*
X127903156Y-48577913D01*
X127960920Y-48362334D01*
X127980372Y-48140000D01*
X127960920Y-47917666D01*
X127903156Y-47702087D01*
X127808835Y-47499814D01*
X127680822Y-47316993D01*
X127523007Y-47159178D01*
X127340186Y-47031165D01*
X127137913Y-46936844D01*
X127137909Y-46936843D01*
X127137905Y-46936841D01*
X126922339Y-46879081D01*
X126922329Y-46879079D01*
X126700001Y-46859628D01*
X126699999Y-46859628D01*
X126477670Y-46879079D01*
X126477660Y-46879081D01*
X126262094Y-46936841D01*
X126262087Y-46936843D01*
X126262087Y-46936844D01*
X126059814Y-47031165D01*
X125876993Y-47159178D01*
X125876991Y-47159179D01*
X125876988Y-47159182D01*
X125719182Y-47316988D01*
X125591165Y-47499814D01*
X125496845Y-47702085D01*
X125496841Y-47702094D01*
X125439081Y-47917660D01*
X125439079Y-47917670D01*
X125419628Y-48139999D01*
X125419628Y-48140000D01*
X94000000Y-48140000D01*
X94000000Y-45200000D01*
X119544721Y-45200000D01*
X119563762Y-45356818D01*
X119619779Y-45504522D01*
X119619780Y-45504523D01*
X119709517Y-45634530D01*
X119827760Y-45739283D01*
X119827762Y-45739284D01*
X119967634Y-45812696D01*
X120121014Y-45850500D01*
X120121015Y-45850500D01*
X120278985Y-45850500D01*
X120432365Y-45812696D01*
X120572237Y-45739285D01*
X120572238Y-45739283D01*
X120572240Y-45739283D01*
X120617774Y-45698943D01*
X120681006Y-45669223D01*
X120750270Y-45678407D01*
X120782224Y-45698942D01*
X120816890Y-45729653D01*
X120827762Y-45739285D01*
X120967634Y-45812696D01*
X121121014Y-45850500D01*
X121121015Y-45850500D01*
X121278985Y-45850500D01*
X121432365Y-45812696D01*
X121432365Y-45812695D01*
X121572240Y-45739283D01*
X121690483Y-45634530D01*
X121780220Y-45504523D01*
X121836237Y-45356818D01*
X121855278Y-45200000D01*
X121836237Y-45043182D01*
X121780220Y-44895477D01*
X121693912Y-44770438D01*
X121672030Y-44704086D01*
X121689495Y-44636434D01*
X121693905Y-44629571D01*
X121780220Y-44504523D01*
X121836237Y-44356818D01*
X121855278Y-44200000D01*
X121836237Y-44043182D01*
X121833634Y-44036319D01*
X121814992Y-43987164D01*
X121780220Y-43895477D01*
X121690483Y-43765470D01*
X121572240Y-43660717D01*
X121572238Y-43660716D01*
X121572237Y-43660715D01*
X121432365Y-43587303D01*
X121278986Y-43549500D01*
X121278985Y-43549500D01*
X121121015Y-43549500D01*
X121121014Y-43549500D01*
X120967634Y-43587303D01*
X120827761Y-43660715D01*
X120827759Y-43660717D01*
X120782224Y-43701056D01*
X120718990Y-43730776D01*
X120649727Y-43721591D01*
X120617774Y-43701056D01*
X120572240Y-43660717D01*
X120572237Y-43660714D01*
X120432365Y-43587303D01*
X120278986Y-43549500D01*
X120278985Y-43549500D01*
X120121015Y-43549500D01*
X120121014Y-43549500D01*
X119967634Y-43587303D01*
X119827762Y-43660715D01*
X119709516Y-43765471D01*
X119619781Y-43895475D01*
X119619780Y-43895476D01*
X119563762Y-44043181D01*
X119544721Y-44199999D01*
X119544721Y-44200000D01*
X119563762Y-44356818D01*
X119619780Y-44504523D01*
X119619781Y-44504524D01*
X119706086Y-44629560D01*
X119727969Y-44695915D01*
X119710503Y-44763566D01*
X119706086Y-44770440D01*
X119619781Y-44895475D01*
X119619780Y-44895476D01*
X119563762Y-45043181D01*
X119544721Y-45199999D01*
X119544721Y-45200000D01*
X94000000Y-45200000D01*
X94000000Y-43294678D01*
X95114500Y-43294678D01*
X95129032Y-43367735D01*
X95129033Y-43367739D01*
X95129034Y-43367740D01*
X95184399Y-43450601D01*
X95267260Y-43505966D01*
X95267264Y-43505967D01*
X95340321Y-43520499D01*
X95340324Y-43520500D01*
X95340326Y-43520500D01*
X97089676Y-43520500D01*
X97089677Y-43520499D01*
X97162740Y-43505966D01*
X97245601Y-43450601D01*
X97300966Y-43367740D01*
X97315500Y-43294674D01*
X97315500Y-42420000D01*
X97649785Y-42420000D01*
X97668602Y-42623082D01*
X97724417Y-42819247D01*
X97724422Y-42819260D01*
X97815327Y-43001821D01*
X97938237Y-43164581D01*
X98088958Y-43301980D01*
X98088960Y-43301982D01*
X98188141Y-43363392D01*
X98262363Y-43409348D01*
X98452544Y-43483024D01*
X98653024Y-43520500D01*
X98653026Y-43520500D01*
X98856974Y-43520500D01*
X98856976Y-43520500D01*
X99057456Y-43483024D01*
X99247637Y-43409348D01*
X99421041Y-43301981D01*
X99571764Y-43164579D01*
X99694673Y-43001821D01*
X99785582Y-42819250D01*
X99841397Y-42623083D01*
X99860215Y-42420000D01*
X100189785Y-42420000D01*
X100208602Y-42623082D01*
X100264417Y-42819247D01*
X100264422Y-42819260D01*
X100355327Y-43001821D01*
X100478237Y-43164581D01*
X100628958Y-43301980D01*
X100628960Y-43301982D01*
X100728141Y-43363392D01*
X100802363Y-43409348D01*
X100992544Y-43483024D01*
X101193024Y-43520500D01*
X101193026Y-43520500D01*
X101396974Y-43520500D01*
X101396976Y-43520500D01*
X101597456Y-43483024D01*
X101787637Y-43409348D01*
X101961041Y-43301981D01*
X102111764Y-43164579D01*
X102234673Y-43001821D01*
X102325582Y-42819250D01*
X102381397Y-42623083D01*
X102400215Y-42420000D01*
X102381397Y-42216917D01*
X102325582Y-42020750D01*
X102234673Y-41838179D01*
X102111764Y-41675421D01*
X102111762Y-41675418D01*
X101961041Y-41538019D01*
X101961039Y-41538017D01*
X101787642Y-41430655D01*
X101787635Y-41430651D01*
X101681150Y-41389399D01*
X101597456Y-41356976D01*
X101396976Y-41319500D01*
X101193024Y-41319500D01*
X100992544Y-41356976D01*
X100992541Y-41356976D01*
X100992541Y-41356977D01*
X100802364Y-41430651D01*
X100802357Y-41430655D01*
X100628960Y-41538017D01*
X100628958Y-41538019D01*
X100478237Y-41675418D01*
X100355327Y-41838178D01*
X100264422Y-42020739D01*
X100264417Y-42020752D01*
X100208602Y-42216917D01*
X100189785Y-42419999D01*
X100189785Y-42420000D01*
X99860215Y-42420000D01*
X99841397Y-42216917D01*
X99785582Y-42020750D01*
X99694673Y-41838179D01*
X99571764Y-41675421D01*
X99571762Y-41675418D01*
X99421041Y-41538019D01*
X99421039Y-41538017D01*
X99247642Y-41430655D01*
X99247635Y-41430651D01*
X99141150Y-41389399D01*
X99057456Y-41356976D01*
X98856976Y-41319500D01*
X98653024Y-41319500D01*
X98452544Y-41356976D01*
X98452541Y-41356976D01*
X98452541Y-41356977D01*
X98262364Y-41430651D01*
X98262357Y-41430655D01*
X98088960Y-41538017D01*
X98088958Y-41538019D01*
X97938237Y-41675418D01*
X97815327Y-41838178D01*
X97724422Y-42020739D01*
X97724417Y-42020752D01*
X97668602Y-42216917D01*
X97649785Y-42419999D01*
X97649785Y-42420000D01*
X97315500Y-42420000D01*
X97315500Y-41545326D01*
X97315500Y-41545323D01*
X97315499Y-41545321D01*
X97300967Y-41472264D01*
X97300966Y-41472260D01*
X97300965Y-41472260D01*
X97245601Y-41389399D01*
X97162740Y-41334034D01*
X97162739Y-41334033D01*
X97162735Y-41334032D01*
X97089677Y-41319500D01*
X97089674Y-41319500D01*
X95340326Y-41319500D01*
X95340323Y-41319500D01*
X95267264Y-41334032D01*
X95267260Y-41334033D01*
X95184399Y-41389399D01*
X95129033Y-41472260D01*
X95129032Y-41472264D01*
X95114500Y-41545321D01*
X95114500Y-43294678D01*
X94000000Y-43294678D01*
X94000000Y-38500001D01*
X120693237Y-38500001D01*
X120712207Y-38644099D01*
X120712209Y-38644104D01*
X120767826Y-38778377D01*
X120767826Y-38778378D01*
X120767828Y-38778381D01*
X120767829Y-38778382D01*
X120856309Y-38893691D01*
X120971618Y-38982171D01*
X120971621Y-38982172D01*
X120971622Y-38982173D01*
X120984879Y-38987664D01*
X121105899Y-39037792D01*
X121118987Y-39039515D01*
X121249999Y-39056763D01*
X121250000Y-39056763D01*
X121250001Y-39056763D01*
X121298033Y-39050439D01*
X121394101Y-39037792D01*
X121528382Y-38982171D01*
X121549512Y-38965956D01*
X121614680Y-38940761D01*
X121683125Y-38954798D01*
X121700488Y-38965957D01*
X121721616Y-38982170D01*
X121721622Y-38982173D01*
X121776236Y-39004795D01*
X121830640Y-39048636D01*
X121852705Y-39114930D01*
X121851723Y-39135541D01*
X121843236Y-39199998D01*
X121843237Y-39200001D01*
X121862207Y-39344099D01*
X121862209Y-39344104D01*
X121917826Y-39478377D01*
X121917826Y-39478378D01*
X121917828Y-39478381D01*
X121917829Y-39478382D01*
X122006309Y-39593691D01*
X122121618Y-39682171D01*
X122121621Y-39682172D01*
X122121622Y-39682173D01*
X122188758Y-39709981D01*
X122255899Y-39737792D01*
X122327949Y-39747277D01*
X122399999Y-39756763D01*
X122400000Y-39756763D01*
X122400001Y-39756763D01*
X122448033Y-39750439D01*
X122544101Y-39737792D01*
X122678382Y-39682171D01*
X122724513Y-39646772D01*
X122789682Y-39621578D01*
X122858127Y-39635616D01*
X122875487Y-39646773D01*
X122921616Y-39682170D01*
X122921622Y-39682173D01*
X122988758Y-39709981D01*
X123055899Y-39737792D01*
X123127949Y-39747277D01*
X123199999Y-39756763D01*
X123200000Y-39756763D01*
X123200001Y-39756763D01*
X123248033Y-39750439D01*
X123344101Y-39737792D01*
X123478382Y-39682171D01*
X123524513Y-39646772D01*
X123589682Y-39621578D01*
X123658127Y-39635616D01*
X123675487Y-39646773D01*
X123721616Y-39682170D01*
X123721622Y-39682173D01*
X123788758Y-39709981D01*
X123855899Y-39737792D01*
X123927949Y-39747277D01*
X123999999Y-39756763D01*
X124000000Y-39756763D01*
X124000001Y-39756763D01*
X124048033Y-39750439D01*
X124144101Y-39737792D01*
X124278377Y-39682173D01*
X124278378Y-39682173D01*
X124278378Y-39682172D01*
X124278382Y-39682171D01*
X124393691Y-39593691D01*
X124482171Y-39478382D01*
X124537792Y-39344101D01*
X124556763Y-39200000D01*
X124545563Y-39114930D01*
X124537792Y-39055900D01*
X124537792Y-39055899D01*
X124482171Y-38921619D01*
X124460740Y-38893690D01*
X124393692Y-38806310D01*
X124393691Y-38806309D01*
X124278382Y-38717829D01*
X124278379Y-38717828D01*
X124278377Y-38717826D01*
X124144104Y-38662209D01*
X124144099Y-38662207D01*
X124000001Y-38643237D01*
X123999999Y-38643237D01*
X123855900Y-38662207D01*
X123855898Y-38662208D01*
X123721619Y-38717828D01*
X123675485Y-38753228D01*
X123610316Y-38778421D01*
X123541871Y-38764382D01*
X123524514Y-38753227D01*
X123478382Y-38717829D01*
X123478377Y-38717826D01*
X123344104Y-38662209D01*
X123344099Y-38662207D01*
X123200001Y-38643237D01*
X123199999Y-38643237D01*
X123055900Y-38662207D01*
X123055898Y-38662208D01*
X122921619Y-38717828D01*
X122875485Y-38753228D01*
X122810316Y-38778421D01*
X122741871Y-38764382D01*
X122724514Y-38753227D01*
X122678383Y-38717829D01*
X122661212Y-38710717D01*
X122623760Y-38695204D01*
X122569359Y-38651365D01*
X122547294Y-38585071D01*
X122548275Y-38564471D01*
X122556763Y-38500000D01*
X122548276Y-38435541D01*
X122559043Y-38366506D01*
X122605423Y-38314250D01*
X122623764Y-38304795D01*
X122678377Y-38282173D01*
X122678376Y-38282173D01*
X122678382Y-38282171D01*
X122724513Y-38246772D01*
X122789682Y-38221578D01*
X122858127Y-38235616D01*
X122875487Y-38246773D01*
X122921616Y-38282170D01*
X122921622Y-38282173D01*
X122976237Y-38304795D01*
X123055899Y-38337792D01*
X123068987Y-38339515D01*
X123199999Y-38356763D01*
X123200000Y-38356763D01*
X123200001Y-38356763D01*
X123248033Y-38350439D01*
X123344101Y-38337792D01*
X123478382Y-38282171D01*
X123524513Y-38246772D01*
X123589682Y-38221578D01*
X123658127Y-38235616D01*
X123675487Y-38246773D01*
X123721616Y-38282170D01*
X123721622Y-38282173D01*
X123776237Y-38304795D01*
X123855899Y-38337792D01*
X123868987Y-38339515D01*
X123999999Y-38356763D01*
X124000000Y-38356763D01*
X124000001Y-38356763D01*
X124048033Y-38350439D01*
X124144101Y-38337792D01*
X124278377Y-38282173D01*
X124278378Y-38282173D01*
X124278378Y-38282172D01*
X124278382Y-38282171D01*
X124393691Y-38193691D01*
X124482171Y-38078382D01*
X124537792Y-37944101D01*
X124556763Y-37800000D01*
X124550180Y-37750000D01*
X124537792Y-37655900D01*
X124537792Y-37655899D01*
X124482171Y-37521619D01*
X124393691Y-37406309D01*
X124278382Y-37317829D01*
X124278379Y-37317828D01*
X124278377Y-37317826D01*
X124144104Y-37262209D01*
X124144099Y-37262207D01*
X124000001Y-37243237D01*
X123999999Y-37243237D01*
X123855900Y-37262207D01*
X123855898Y-37262208D01*
X123721619Y-37317828D01*
X123675485Y-37353228D01*
X123610316Y-37378421D01*
X123541871Y-37364382D01*
X123524514Y-37353227D01*
X123478382Y-37317829D01*
X123478377Y-37317826D01*
X123344104Y-37262209D01*
X123344099Y-37262207D01*
X123200001Y-37243237D01*
X123199999Y-37243237D01*
X123055900Y-37262207D01*
X123055898Y-37262208D01*
X122921619Y-37317828D01*
X122875485Y-37353228D01*
X122810316Y-37378421D01*
X122741871Y-37364382D01*
X122724514Y-37353227D01*
X122678382Y-37317829D01*
X122678377Y-37317826D01*
X122544104Y-37262209D01*
X122544099Y-37262207D01*
X122400001Y-37243237D01*
X122399999Y-37243237D01*
X122255900Y-37262207D01*
X122255898Y-37262208D01*
X122121619Y-37317828D01*
X122006309Y-37406309D01*
X121917828Y-37521619D01*
X121862208Y-37655898D01*
X121862207Y-37655900D01*
X121843237Y-37799998D01*
X121843236Y-37800001D01*
X121851723Y-37864459D01*
X121840957Y-37933494D01*
X121794577Y-37985750D01*
X121776238Y-37995204D01*
X121721622Y-38017828D01*
X121721617Y-38017830D01*
X121700485Y-38034045D01*
X121635315Y-38059238D01*
X121566871Y-38045199D01*
X121549515Y-38034045D01*
X121528382Y-38017829D01*
X121515118Y-38012335D01*
X121394101Y-37962208D01*
X121394099Y-37962207D01*
X121250001Y-37943237D01*
X121249999Y-37943237D01*
X121105900Y-37962207D01*
X121105898Y-37962208D01*
X120971619Y-38017828D01*
X120856309Y-38106309D01*
X120767828Y-38221619D01*
X120712208Y-38355898D01*
X120712207Y-38355900D01*
X120693237Y-38499998D01*
X120693237Y-38500001D01*
X94000000Y-38500001D01*
X94000000Y-36730001D01*
X117353237Y-36730001D01*
X117372207Y-36874099D01*
X117372209Y-36874104D01*
X117427826Y-37008377D01*
X117427826Y-37008378D01*
X117427828Y-37008381D01*
X117427829Y-37008382D01*
X117516309Y-37123691D01*
X117631618Y-37212171D01*
X117631621Y-37212172D01*
X117631622Y-37212173D01*
X117698758Y-37239981D01*
X117765899Y-37267792D01*
X117837949Y-37277277D01*
X117909999Y-37286763D01*
X117910000Y-37286763D01*
X117910001Y-37286763D01*
X117958033Y-37280439D01*
X118054101Y-37267792D01*
X118188377Y-37212173D01*
X118188378Y-37212173D01*
X118188378Y-37212172D01*
X118188382Y-37212171D01*
X118303691Y-37123691D01*
X118392171Y-37008382D01*
X118447792Y-36874101D01*
X118466763Y-36730000D01*
X118447792Y-36585899D01*
X118392171Y-36451619D01*
X118303691Y-36336309D01*
X118188382Y-36247829D01*
X118188379Y-36247828D01*
X118188377Y-36247826D01*
X118054104Y-36192209D01*
X118054099Y-36192207D01*
X117910001Y-36173237D01*
X117909999Y-36173237D01*
X117765900Y-36192207D01*
X117765898Y-36192208D01*
X117631619Y-36247828D01*
X117516309Y-36336309D01*
X117427828Y-36451619D01*
X117372208Y-36585898D01*
X117372207Y-36585900D01*
X117353237Y-36729998D01*
X117353237Y-36730001D01*
X94000000Y-36730001D01*
X94000000Y-36551362D01*
X94019685Y-36484323D01*
X94036319Y-36463681D01*
X95463681Y-35036319D01*
X95525004Y-35002834D01*
X95551362Y-35000000D01*
X123948638Y-35000000D01*
X124015677Y-35019685D01*
G37*
%TD.AperFunction*%
%TD*%
%TA.AperFunction,Conductor*%
%TO.N,GND*%
G36*
X159015677Y-31519685D02*
G01*
X159036319Y-31536319D01*
X159963681Y-32463681D01*
X159997166Y-32525004D01*
X160000000Y-32551361D01*
X160000000Y-47000000D01*
X168113636Y-55500000D01*
X170465696Y-57964062D01*
X170497746Y-58026147D01*
X170500000Y-58049681D01*
X170500000Y-74448637D01*
X170480315Y-74515676D01*
X170463681Y-74536318D01*
X168500000Y-76499999D01*
X168500000Y-103448638D01*
X168480315Y-103515677D01*
X168463681Y-103536319D01*
X166536319Y-105463681D01*
X166474996Y-105497166D01*
X166448638Y-105500000D01*
X149999999Y-105500000D01*
X146536319Y-108963681D01*
X146474996Y-108997166D01*
X146448638Y-109000000D01*
X125051362Y-109000000D01*
X124984323Y-108980315D01*
X124963681Y-108963681D01*
X121500000Y-105500000D01*
X108548363Y-105500000D01*
X108481324Y-105480315D01*
X108464408Y-105467255D01*
X106684783Y-103830000D01*
X126854785Y-103830000D01*
X126873602Y-104033082D01*
X126929417Y-104229247D01*
X126929422Y-104229260D01*
X127020327Y-104411821D01*
X127143237Y-104574581D01*
X127293958Y-104711980D01*
X127293960Y-104711982D01*
X127393141Y-104773392D01*
X127467363Y-104819348D01*
X127657544Y-104893024D01*
X127858024Y-104930500D01*
X127858026Y-104930500D01*
X128061974Y-104930500D01*
X128061976Y-104930500D01*
X128262456Y-104893024D01*
X128452637Y-104819348D01*
X128626041Y-104711981D01*
X128634054Y-104704676D01*
X150859499Y-104704676D01*
X150859500Y-104704678D01*
X150874032Y-104777735D01*
X150874033Y-104777739D01*
X150874034Y-104777740D01*
X150929399Y-104860601D01*
X151012259Y-104915965D01*
X151012260Y-104915966D01*
X151012264Y-104915967D01*
X151085321Y-104930499D01*
X151085324Y-104930500D01*
X151085326Y-104930500D01*
X152834676Y-104930500D01*
X152834677Y-104930499D01*
X152907740Y-104915966D01*
X152990601Y-104860601D01*
X153045966Y-104777740D01*
X153060500Y-104704674D01*
X153060500Y-102955326D01*
X153060500Y-102955325D01*
X153060500Y-102955323D01*
X153060499Y-102955321D01*
X153045967Y-102882264D01*
X153045966Y-102882260D01*
X153045966Y-102882259D01*
X152990601Y-102799399D01*
X152907740Y-102744034D01*
X152907739Y-102744033D01*
X152907735Y-102744032D01*
X152834677Y-102729500D01*
X152834674Y-102729500D01*
X151085326Y-102729500D01*
X151085323Y-102729500D01*
X151012264Y-102744032D01*
X151012260Y-102744033D01*
X150929399Y-102799399D01*
X150874033Y-102882260D01*
X150874032Y-102882264D01*
X150859500Y-102955321D01*
X150859499Y-102955323D01*
X150859499Y-104704676D01*
X128634054Y-104704676D01*
X128776764Y-104574579D01*
X128899673Y-104411821D01*
X128990582Y-104229250D01*
X129046397Y-104033083D01*
X129065215Y-103830000D01*
X129046397Y-103626917D01*
X128990582Y-103430750D01*
X128899673Y-103248179D01*
X128840704Y-103170091D01*
X128776762Y-103085418D01*
X128626041Y-102948019D01*
X128626039Y-102948017D01*
X128452642Y-102840655D01*
X128452635Y-102840651D01*
X128346150Y-102799399D01*
X128262456Y-102766976D01*
X128061976Y-102729500D01*
X127858024Y-102729500D01*
X127657544Y-102766976D01*
X127657541Y-102766976D01*
X127657541Y-102766977D01*
X127467364Y-102840651D01*
X127467357Y-102840655D01*
X127293960Y-102948017D01*
X127293958Y-102948019D01*
X127143237Y-103085418D01*
X127020327Y-103248178D01*
X126929422Y-103430739D01*
X126929417Y-103430752D01*
X126873602Y-103626917D01*
X126854785Y-103829999D01*
X126854785Y-103830000D01*
X106684783Y-103830000D01*
X106040045Y-103236841D01*
X106004036Y-103176965D01*
X106000000Y-103145586D01*
X106000000Y-101290000D01*
X126854785Y-101290000D01*
X126873602Y-101493082D01*
X126929417Y-101689247D01*
X126929422Y-101689260D01*
X127020327Y-101871821D01*
X127143237Y-102034581D01*
X127293958Y-102171980D01*
X127293960Y-102171982D01*
X127393141Y-102233392D01*
X127467363Y-102279348D01*
X127657544Y-102353024D01*
X127858024Y-102390500D01*
X127858026Y-102390500D01*
X128061974Y-102390500D01*
X128061976Y-102390500D01*
X128262456Y-102353024D01*
X128452637Y-102279348D01*
X128626041Y-102171981D01*
X128776764Y-102034579D01*
X128899673Y-101871821D01*
X128990582Y-101689250D01*
X129046397Y-101493083D01*
X129065215Y-101290000D01*
X150854785Y-101290000D01*
X150873602Y-101493082D01*
X150929417Y-101689247D01*
X150929422Y-101689260D01*
X151020327Y-101871821D01*
X151143237Y-102034581D01*
X151293958Y-102171980D01*
X151293960Y-102171982D01*
X151393141Y-102233392D01*
X151467363Y-102279348D01*
X151657544Y-102353024D01*
X151858024Y-102390500D01*
X151858026Y-102390500D01*
X152061974Y-102390500D01*
X152061976Y-102390500D01*
X152262456Y-102353024D01*
X152452637Y-102279348D01*
X152626041Y-102171981D01*
X152776764Y-102034579D01*
X152899673Y-101871821D01*
X152990582Y-101689250D01*
X153046397Y-101493083D01*
X153065215Y-101290000D01*
X153046397Y-101086917D01*
X152990582Y-100890750D01*
X152899673Y-100708179D01*
X152776764Y-100545421D01*
X152776762Y-100545418D01*
X152626041Y-100408019D01*
X152626039Y-100408017D01*
X152452642Y-100300655D01*
X152452635Y-100300651D01*
X152357546Y-100263813D01*
X152262456Y-100226976D01*
X152061976Y-100189500D01*
X151858024Y-100189500D01*
X151657544Y-100226976D01*
X151657541Y-100226976D01*
X151657541Y-100226977D01*
X151467364Y-100300651D01*
X151467357Y-100300655D01*
X151293960Y-100408017D01*
X151293958Y-100408019D01*
X151143237Y-100545418D01*
X151020327Y-100708178D01*
X150929422Y-100890739D01*
X150929417Y-100890752D01*
X150873602Y-101086917D01*
X150854785Y-101289999D01*
X150854785Y-101290000D01*
X129065215Y-101290000D01*
X129046397Y-101086917D01*
X128990582Y-100890750D01*
X128899673Y-100708179D01*
X128776764Y-100545421D01*
X128776762Y-100545418D01*
X128626041Y-100408019D01*
X128626039Y-100408017D01*
X128452642Y-100300655D01*
X128452635Y-100300651D01*
X128357546Y-100263813D01*
X128262456Y-100226976D01*
X128061976Y-100189500D01*
X127858024Y-100189500D01*
X127657544Y-100226976D01*
X127657541Y-100226976D01*
X127657541Y-100226977D01*
X127467364Y-100300651D01*
X127467357Y-100300655D01*
X127293960Y-100408017D01*
X127293958Y-100408019D01*
X127143237Y-100545418D01*
X127020327Y-100708178D01*
X126929422Y-100890739D01*
X126929417Y-100890752D01*
X126873602Y-101086917D01*
X126854785Y-101289999D01*
X126854785Y-101290000D01*
X106000000Y-101290000D01*
X106000000Y-98790000D01*
X112679628Y-98790000D01*
X112699079Y-99012329D01*
X112699081Y-99012339D01*
X112756841Y-99227905D01*
X112756843Y-99227909D01*
X112756844Y-99227913D01*
X112851165Y-99430186D01*
X112979178Y-99613007D01*
X113136993Y-99770822D01*
X113319814Y-99898835D01*
X113522087Y-99993156D01*
X113737666Y-100050920D01*
X113915533Y-100066481D01*
X113959999Y-100070372D01*
X113960000Y-100070372D01*
X113960001Y-100070372D01*
X113997055Y-100067129D01*
X114182334Y-100050920D01*
X114397913Y-99993156D01*
X114600186Y-99898835D01*
X114783007Y-99770822D01*
X114929151Y-99624678D01*
X126859500Y-99624678D01*
X126874032Y-99697735D01*
X126874033Y-99697739D01*
X126874034Y-99697740D01*
X126929399Y-99780601D01*
X127012260Y-99835966D01*
X127012264Y-99835967D01*
X127085321Y-99850499D01*
X127085324Y-99850500D01*
X127085326Y-99850500D01*
X128834676Y-99850500D01*
X128834677Y-99850499D01*
X128907740Y-99835966D01*
X128990601Y-99780601D01*
X129045966Y-99697740D01*
X129060500Y-99624674D01*
X129060500Y-98790000D01*
X137179628Y-98790000D01*
X137199079Y-99012329D01*
X137199081Y-99012339D01*
X137256841Y-99227905D01*
X137256843Y-99227909D01*
X137256844Y-99227913D01*
X137351165Y-99430186D01*
X137479178Y-99613007D01*
X137636993Y-99770822D01*
X137819814Y-99898835D01*
X138022087Y-99993156D01*
X138237666Y-100050920D01*
X138415533Y-100066481D01*
X138459999Y-100070372D01*
X138460000Y-100070372D01*
X138460001Y-100070372D01*
X138497055Y-100067129D01*
X138682334Y-100050920D01*
X138897913Y-99993156D01*
X139100186Y-99898835D01*
X139283007Y-99770822D01*
X139440822Y-99613007D01*
X139568835Y-99430186D01*
X139663156Y-99227913D01*
X139720920Y-99012334D01*
X139740372Y-98790000D01*
X139736872Y-98750000D01*
X150854785Y-98750000D01*
X150873602Y-98953082D01*
X150929417Y-99149247D01*
X150929422Y-99149260D01*
X151020327Y-99331821D01*
X151143237Y-99494581D01*
X151293958Y-99631980D01*
X151293960Y-99631982D01*
X151393141Y-99693392D01*
X151467363Y-99739348D01*
X151657544Y-99813024D01*
X151858024Y-99850500D01*
X151858026Y-99850500D01*
X152061974Y-99850500D01*
X152061976Y-99850500D01*
X152262456Y-99813024D01*
X152452637Y-99739348D01*
X152626041Y-99631981D01*
X152776764Y-99494579D01*
X152899673Y-99331821D01*
X152990582Y-99149250D01*
X153046397Y-98953083D01*
X153061509Y-98790000D01*
X161179628Y-98790000D01*
X161199079Y-99012329D01*
X161199081Y-99012339D01*
X161256841Y-99227905D01*
X161256843Y-99227909D01*
X161256844Y-99227913D01*
X161351165Y-99430186D01*
X161479178Y-99613007D01*
X161636993Y-99770822D01*
X161819814Y-99898835D01*
X162022087Y-99993156D01*
X162237666Y-100050920D01*
X162415533Y-100066481D01*
X162459999Y-100070372D01*
X162460000Y-100070372D01*
X162460001Y-100070372D01*
X162497055Y-100067129D01*
X162682334Y-100050920D01*
X162897913Y-99993156D01*
X163100186Y-99898835D01*
X163283007Y-99770822D01*
X163440822Y-99613007D01*
X163568835Y-99430186D01*
X163663156Y-99227913D01*
X163720920Y-99012334D01*
X163740372Y-98790000D01*
X163720920Y-98567666D01*
X163663156Y-98352087D01*
X163568835Y-98149814D01*
X163440822Y-97966993D01*
X163283007Y-97809178D01*
X163100186Y-97681165D01*
X162897913Y-97586844D01*
X162897909Y-97586843D01*
X162897905Y-97586841D01*
X162682339Y-97529081D01*
X162682329Y-97529079D01*
X162460001Y-97509628D01*
X162459999Y-97509628D01*
X162237670Y-97529079D01*
X162237660Y-97529081D01*
X162022094Y-97586841D01*
X162022087Y-97586843D01*
X162022087Y-97586844D01*
X161819814Y-97681165D01*
X161636993Y-97809178D01*
X161636991Y-97809179D01*
X161636988Y-97809182D01*
X161479182Y-97966988D01*
X161479179Y-97966991D01*
X161479178Y-97966993D01*
X161351165Y-98149814D01*
X161257468Y-98350750D01*
X161256845Y-98352085D01*
X161256841Y-98352094D01*
X161199081Y-98567660D01*
X161199079Y-98567670D01*
X161179628Y-98789999D01*
X161179628Y-98790000D01*
X153061509Y-98790000D01*
X153065215Y-98750000D01*
X153046397Y-98546917D01*
X152990582Y-98350750D01*
X152899673Y-98168179D01*
X152776764Y-98005421D01*
X152776762Y-98005418D01*
X152626041Y-97868019D01*
X152626039Y-97868017D01*
X152452642Y-97760655D01*
X152452635Y-97760651D01*
X152346150Y-97719399D01*
X152262456Y-97686976D01*
X152061976Y-97649500D01*
X151858024Y-97649500D01*
X151657544Y-97686976D01*
X151657541Y-97686976D01*
X151657541Y-97686977D01*
X151467364Y-97760651D01*
X151467357Y-97760655D01*
X151293960Y-97868017D01*
X151293958Y-97868019D01*
X151143237Y-98005418D01*
X151020327Y-98168178D01*
X150929422Y-98350739D01*
X150929417Y-98350752D01*
X150873602Y-98546917D01*
X150854785Y-98749999D01*
X150854785Y-98750000D01*
X139736872Y-98750000D01*
X139720920Y-98567666D01*
X139663156Y-98352087D01*
X139568835Y-98149814D01*
X139440822Y-97966993D01*
X139283007Y-97809178D01*
X139100186Y-97681165D01*
X138897913Y-97586844D01*
X138897909Y-97586843D01*
X138897905Y-97586841D01*
X138682339Y-97529081D01*
X138682329Y-97529079D01*
X138460001Y-97509628D01*
X138459999Y-97509628D01*
X138237670Y-97529079D01*
X138237660Y-97529081D01*
X138022094Y-97586841D01*
X138022087Y-97586843D01*
X138022087Y-97586844D01*
X137819814Y-97681165D01*
X137636993Y-97809178D01*
X137636991Y-97809179D01*
X137636988Y-97809182D01*
X137479182Y-97966988D01*
X137479179Y-97966991D01*
X137479178Y-97966993D01*
X137351165Y-98149814D01*
X137257468Y-98350750D01*
X137256845Y-98352085D01*
X137256841Y-98352094D01*
X137199081Y-98567660D01*
X137199079Y-98567670D01*
X137179628Y-98789999D01*
X137179628Y-98790000D01*
X129060500Y-98790000D01*
X129060500Y-97875326D01*
X129060500Y-97875325D01*
X129060500Y-97875323D01*
X129060499Y-97875321D01*
X129045967Y-97802264D01*
X129045966Y-97802260D01*
X129045966Y-97802259D01*
X128990601Y-97719399D01*
X128907740Y-97664034D01*
X128907739Y-97664033D01*
X128907735Y-97664032D01*
X128834677Y-97649500D01*
X128834674Y-97649500D01*
X127085326Y-97649500D01*
X127085323Y-97649500D01*
X127012264Y-97664032D01*
X127012260Y-97664033D01*
X126929399Y-97719399D01*
X126874033Y-97802260D01*
X126874032Y-97802264D01*
X126859500Y-97875321D01*
X126859500Y-99624678D01*
X114929151Y-99624678D01*
X114940822Y-99613007D01*
X115068835Y-99430186D01*
X115163156Y-99227913D01*
X115220920Y-99012334D01*
X115240372Y-98790000D01*
X115220920Y-98567666D01*
X115163156Y-98352087D01*
X115068835Y-98149814D01*
X114940822Y-97966993D01*
X114783007Y-97809178D01*
X114600186Y-97681165D01*
X114397913Y-97586844D01*
X114397909Y-97586843D01*
X114397905Y-97586841D01*
X114182339Y-97529081D01*
X114182329Y-97529079D01*
X113960001Y-97509628D01*
X113959999Y-97509628D01*
X113737670Y-97529079D01*
X113737660Y-97529081D01*
X113522094Y-97586841D01*
X113522087Y-97586843D01*
X113522087Y-97586844D01*
X113319814Y-97681165D01*
X113136993Y-97809178D01*
X113136991Y-97809179D01*
X113136988Y-97809182D01*
X112979182Y-97966988D01*
X112979179Y-97966991D01*
X112979178Y-97966993D01*
X112851165Y-98149814D01*
X112757468Y-98350750D01*
X112756845Y-98352085D01*
X112756841Y-98352094D01*
X112699081Y-98567660D01*
X112699079Y-98567670D01*
X112679628Y-98789999D01*
X112679628Y-98790000D01*
X106000000Y-98790000D01*
X106000000Y-91680001D01*
X109443237Y-91680001D01*
X109462207Y-91824099D01*
X109462209Y-91824104D01*
X109517826Y-91958377D01*
X109517826Y-91958378D01*
X109517828Y-91958381D01*
X109517829Y-91958382D01*
X109606309Y-92073691D01*
X109721618Y-92162171D01*
X109721621Y-92162172D01*
X109721622Y-92162173D01*
X109788758Y-92189981D01*
X109855899Y-92217792D01*
X109927949Y-92227277D01*
X109999999Y-92236763D01*
X110000000Y-92236763D01*
X110000001Y-92236763D01*
X110068142Y-92227792D01*
X110144101Y-92217792D01*
X110278377Y-92162173D01*
X110278378Y-92162173D01*
X110278378Y-92162172D01*
X110278382Y-92162171D01*
X110393691Y-92073691D01*
X110482171Y-91958382D01*
X110537792Y-91824101D01*
X110555446Y-91690001D01*
X158123237Y-91690001D01*
X158142207Y-91834099D01*
X158142209Y-91834104D01*
X158197826Y-91968377D01*
X158197826Y-91968378D01*
X158197828Y-91968381D01*
X158197829Y-91968382D01*
X158286309Y-92083691D01*
X158401618Y-92172171D01*
X158401621Y-92172172D01*
X158401622Y-92172173D01*
X158468758Y-92199981D01*
X158535899Y-92227792D01*
X158604041Y-92236763D01*
X158679999Y-92246763D01*
X158680000Y-92246763D01*
X158680001Y-92246763D01*
X158728033Y-92240439D01*
X158824101Y-92227792D01*
X158958377Y-92172173D01*
X158958378Y-92172173D01*
X158958378Y-92172172D01*
X158958382Y-92172171D01*
X159073691Y-92083691D01*
X159162171Y-91968382D01*
X159217792Y-91834101D01*
X159236763Y-91690000D01*
X159235446Y-91680000D01*
X159217792Y-91545900D01*
X159217792Y-91545899D01*
X159162171Y-91411619D01*
X159073691Y-91296309D01*
X158958382Y-91207829D01*
X158958379Y-91207828D01*
X158958377Y-91207826D01*
X158824104Y-91152209D01*
X158824099Y-91152207D01*
X158680001Y-91133237D01*
X158679999Y-91133237D01*
X158535900Y-91152207D01*
X158535898Y-91152208D01*
X158401619Y-91207828D01*
X158286309Y-91296309D01*
X158197828Y-91411619D01*
X158142208Y-91545898D01*
X158142207Y-91545900D01*
X158123237Y-91689998D01*
X158123237Y-91690001D01*
X110555446Y-91690001D01*
X110556763Y-91680001D01*
X110556763Y-91679998D01*
X110539109Y-91545900D01*
X110537792Y-91535899D01*
X110482171Y-91401619D01*
X110393691Y-91286309D01*
X110278382Y-91197829D01*
X110278379Y-91197828D01*
X110278377Y-91197826D01*
X110144104Y-91142209D01*
X110144099Y-91142207D01*
X110000001Y-91123237D01*
X109999999Y-91123237D01*
X109855900Y-91142207D01*
X109855898Y-91142208D01*
X109721619Y-91197828D01*
X109606309Y-91286309D01*
X109517828Y-91401619D01*
X109462208Y-91535898D01*
X109462207Y-91535900D01*
X109443237Y-91679998D01*
X109443237Y-91680001D01*
X106000000Y-91680001D01*
X106000000Y-86930001D01*
X160853237Y-86930001D01*
X160872207Y-87074099D01*
X160872209Y-87074104D01*
X160927826Y-87208377D01*
X160927826Y-87208378D01*
X160927828Y-87208381D01*
X160927829Y-87208382D01*
X161016309Y-87323691D01*
X161131618Y-87412171D01*
X161131621Y-87412172D01*
X161131622Y-87412173D01*
X161198758Y-87439981D01*
X161265899Y-87467792D01*
X161337949Y-87477277D01*
X161409999Y-87486763D01*
X161410000Y-87486763D01*
X161410001Y-87486763D01*
X161458033Y-87480439D01*
X161554101Y-87467792D01*
X161688377Y-87412173D01*
X161688378Y-87412173D01*
X161688378Y-87412172D01*
X161688382Y-87412171D01*
X161803691Y-87323691D01*
X161892171Y-87208382D01*
X161947792Y-87074101D01*
X161966763Y-86930000D01*
X161947792Y-86785899D01*
X161892171Y-86651619D01*
X161803691Y-86536309D01*
X161688382Y-86447829D01*
X161688379Y-86447828D01*
X161688377Y-86447826D01*
X161554104Y-86392209D01*
X161554099Y-86392207D01*
X161410001Y-86373237D01*
X161409999Y-86373237D01*
X161265900Y-86392207D01*
X161265898Y-86392208D01*
X161131619Y-86447828D01*
X161016309Y-86536309D01*
X160927828Y-86651619D01*
X160872208Y-86785898D01*
X160872207Y-86785900D01*
X160853237Y-86929998D01*
X160853237Y-86930001D01*
X106000000Y-86930001D01*
X106000000Y-86010001D01*
X133663237Y-86010001D01*
X133682207Y-86154099D01*
X133682209Y-86154104D01*
X133737826Y-86288377D01*
X133737826Y-86288378D01*
X133737828Y-86288381D01*
X133737829Y-86288382D01*
X133826309Y-86403691D01*
X133941618Y-86492171D01*
X133941621Y-86492172D01*
X133941622Y-86492173D01*
X134008758Y-86519981D01*
X134075899Y-86547792D01*
X134147949Y-86557277D01*
X134219999Y-86566763D01*
X134220000Y-86566763D01*
X134220001Y-86566763D01*
X134268033Y-86560439D01*
X134364101Y-86547792D01*
X134498377Y-86492173D01*
X134498378Y-86492173D01*
X134498378Y-86492172D01*
X134498382Y-86492171D01*
X134613691Y-86403691D01*
X134702171Y-86288382D01*
X134757792Y-86154101D01*
X134776763Y-86010001D01*
X137013237Y-86010001D01*
X137032207Y-86154099D01*
X137032209Y-86154104D01*
X137087826Y-86288377D01*
X137087826Y-86288378D01*
X137087828Y-86288381D01*
X137087829Y-86288382D01*
X137176309Y-86403691D01*
X137291618Y-86492171D01*
X137291621Y-86492172D01*
X137291622Y-86492173D01*
X137358758Y-86519981D01*
X137425899Y-86547792D01*
X137497949Y-86557277D01*
X137569999Y-86566763D01*
X137570000Y-86566763D01*
X137570001Y-86566763D01*
X137618033Y-86560439D01*
X137714101Y-86547792D01*
X137848377Y-86492173D01*
X137848378Y-86492173D01*
X137848378Y-86492172D01*
X137848382Y-86492171D01*
X137963691Y-86403691D01*
X138052171Y-86288382D01*
X138107792Y-86154101D01*
X138126763Y-86010000D01*
X138107792Y-85865899D01*
X138052171Y-85731619D01*
X137963691Y-85616309D01*
X137848382Y-85527829D01*
X137848379Y-85527828D01*
X137848377Y-85527826D01*
X137714104Y-85472209D01*
X137714099Y-85472207D01*
X137570001Y-85453237D01*
X137569999Y-85453237D01*
X137425900Y-85472207D01*
X137425898Y-85472208D01*
X137291619Y-85527828D01*
X137176309Y-85616309D01*
X137087828Y-85731619D01*
X137032208Y-85865898D01*
X137032207Y-85865900D01*
X137013237Y-86009998D01*
X137013237Y-86010001D01*
X134776763Y-86010001D01*
X134776763Y-86010000D01*
X134757792Y-85865899D01*
X134702171Y-85731619D01*
X134613691Y-85616309D01*
X134498382Y-85527829D01*
X134498379Y-85527828D01*
X134498377Y-85527826D01*
X134364104Y-85472209D01*
X134364099Y-85472207D01*
X134220001Y-85453237D01*
X134219999Y-85453237D01*
X134075900Y-85472207D01*
X134075898Y-85472208D01*
X133941619Y-85527828D01*
X133826309Y-85616309D01*
X133737828Y-85731619D01*
X133682208Y-85865898D01*
X133682207Y-85865900D01*
X133663237Y-86009998D01*
X133663237Y-86010001D01*
X106000000Y-86010001D01*
X106000000Y-84920001D01*
X112203237Y-84920001D01*
X112222207Y-85064099D01*
X112222209Y-85064104D01*
X112277826Y-85198377D01*
X112277826Y-85198378D01*
X112277828Y-85198381D01*
X112277829Y-85198382D01*
X112366309Y-85313691D01*
X112481618Y-85402171D01*
X112481621Y-85402172D01*
X112481622Y-85402173D01*
X112548758Y-85429981D01*
X112615899Y-85457792D01*
X112687949Y-85467277D01*
X112759999Y-85476763D01*
X112760000Y-85476763D01*
X112760001Y-85476763D01*
X112808033Y-85470439D01*
X112904101Y-85457792D01*
X113038377Y-85402173D01*
X113038378Y-85402173D01*
X113038378Y-85402172D01*
X113038382Y-85402171D01*
X113153691Y-85313691D01*
X113242171Y-85198382D01*
X113297792Y-85064101D01*
X113316763Y-84920000D01*
X113297792Y-84775899D01*
X113242171Y-84641619D01*
X113153691Y-84526309D01*
X113038382Y-84437829D01*
X113038379Y-84437828D01*
X113038377Y-84437826D01*
X112904104Y-84382209D01*
X112904099Y-84382207D01*
X112760001Y-84363237D01*
X112759999Y-84363237D01*
X112615900Y-84382207D01*
X112615898Y-84382208D01*
X112481619Y-84437828D01*
X112366309Y-84526309D01*
X112277828Y-84641619D01*
X112222208Y-84775898D01*
X112222207Y-84775900D01*
X112203237Y-84919998D01*
X112203237Y-84920001D01*
X106000000Y-84920001D01*
X106000000Y-75650342D01*
X106019685Y-75583303D01*
X106035093Y-75563904D01*
X107069444Y-74500000D01*
X109174619Y-72334676D01*
X166689499Y-72334676D01*
X166689500Y-72334678D01*
X166704032Y-72407735D01*
X166704033Y-72407739D01*
X166704034Y-72407740D01*
X166759399Y-72490601D01*
X166842259Y-72545965D01*
X166842260Y-72545966D01*
X166842264Y-72545967D01*
X166915321Y-72560499D01*
X166915324Y-72560500D01*
X166915326Y-72560500D01*
X168664676Y-72560500D01*
X168664677Y-72560499D01*
X168737740Y-72545966D01*
X168820601Y-72490601D01*
X168875966Y-72407740D01*
X168890500Y-72334674D01*
X168890500Y-70585326D01*
X168890500Y-70585325D01*
X168890500Y-70585323D01*
X168890499Y-70585321D01*
X168875967Y-70512264D01*
X168875966Y-70512260D01*
X168820601Y-70429399D01*
X168737740Y-70374034D01*
X168737739Y-70374033D01*
X168737735Y-70374032D01*
X168664677Y-70359500D01*
X168664674Y-70359500D01*
X166915326Y-70359500D01*
X166915323Y-70359500D01*
X166842264Y-70374032D01*
X166842260Y-70374033D01*
X166759399Y-70429399D01*
X166704033Y-70512260D01*
X166704032Y-70512264D01*
X166689500Y-70585321D01*
X166689499Y-70585323D01*
X166689499Y-72334676D01*
X109174619Y-72334676D01*
X109463481Y-72037561D01*
X109524326Y-72003217D01*
X109552388Y-72000000D01*
X149000000Y-72000000D01*
X150000000Y-71000000D01*
X150000000Y-67000000D01*
X150000000Y-66954676D01*
X161899499Y-66954676D01*
X161899500Y-66954678D01*
X161914032Y-67027735D01*
X161914033Y-67027739D01*
X161915108Y-67029348D01*
X161969399Y-67110601D01*
X162014147Y-67140500D01*
X162052260Y-67165966D01*
X162052264Y-67165967D01*
X162125321Y-67180499D01*
X162125324Y-67180500D01*
X162125326Y-67180500D01*
X163874676Y-67180500D01*
X163874677Y-67180499D01*
X163947740Y-67165966D01*
X164030601Y-67110601D01*
X164085966Y-67027740D01*
X164100500Y-66954674D01*
X164100500Y-66040000D01*
X166684785Y-66040000D01*
X166703602Y-66243082D01*
X166759417Y-66439247D01*
X166759422Y-66439260D01*
X166850327Y-66621821D01*
X166973237Y-66784581D01*
X167123958Y-66921980D01*
X167123960Y-66921982D01*
X167223141Y-66983392D01*
X167297363Y-67029348D01*
X167487544Y-67103024D01*
X167688024Y-67140500D01*
X167688026Y-67140500D01*
X167891974Y-67140500D01*
X167891976Y-67140500D01*
X168092456Y-67103024D01*
X168282637Y-67029348D01*
X168456041Y-66921981D01*
X168606764Y-66784579D01*
X168729673Y-66621821D01*
X168820582Y-66439250D01*
X168876397Y-66243083D01*
X168895215Y-66040000D01*
X168889684Y-65980315D01*
X168876397Y-65836917D01*
X168867180Y-65804523D01*
X168820582Y-65640750D01*
X168729673Y-65458179D01*
X168646952Y-65348638D01*
X168606762Y-65295418D01*
X168456041Y-65158019D01*
X168456039Y-65158017D01*
X168282642Y-65050655D01*
X168282635Y-65050651D01*
X168098971Y-64979500D01*
X168092456Y-64976976D01*
X167891976Y-64939500D01*
X167688024Y-64939500D01*
X167487544Y-64976976D01*
X167487541Y-64976976D01*
X167487541Y-64976977D01*
X167297364Y-65050651D01*
X167297357Y-65050655D01*
X167123960Y-65158017D01*
X167123958Y-65158019D01*
X166973237Y-65295418D01*
X166850327Y-65458178D01*
X166759422Y-65640739D01*
X166759417Y-65640752D01*
X166703602Y-65836917D01*
X166684785Y-66039999D01*
X166684785Y-66040000D01*
X164100500Y-66040000D01*
X164100500Y-65205326D01*
X164100500Y-65205323D01*
X164100499Y-65205321D01*
X164085967Y-65132264D01*
X164085966Y-65132260D01*
X164072894Y-65112696D01*
X164030601Y-65049399D01*
X163947740Y-64994034D01*
X163947739Y-64994033D01*
X163947735Y-64994032D01*
X163874677Y-64979500D01*
X163874674Y-64979500D01*
X162125326Y-64979500D01*
X162125323Y-64979500D01*
X162052264Y-64994032D01*
X162052260Y-64994033D01*
X161969399Y-65049399D01*
X161914033Y-65132260D01*
X161914032Y-65132264D01*
X161899500Y-65205321D01*
X161899499Y-65205323D01*
X161899499Y-66954676D01*
X150000000Y-66954676D01*
X150000000Y-63540000D01*
X151854785Y-63540000D01*
X151873602Y-63743082D01*
X151929417Y-63939247D01*
X151929422Y-63939260D01*
X152020327Y-64121821D01*
X152143237Y-64284581D01*
X152293958Y-64421980D01*
X152293960Y-64421982D01*
X152335561Y-64447740D01*
X152467363Y-64529348D01*
X152657544Y-64603024D01*
X152858024Y-64640500D01*
X152858026Y-64640500D01*
X153061974Y-64640500D01*
X153061976Y-64640500D01*
X153262456Y-64603024D01*
X153452637Y-64529348D01*
X153626041Y-64421981D01*
X153776764Y-64284579D01*
X153899673Y-64121821D01*
X153990582Y-63939250D01*
X154046397Y-63743083D01*
X154065215Y-63540000D01*
X154394785Y-63540000D01*
X154413602Y-63743082D01*
X154469417Y-63939247D01*
X154469422Y-63939260D01*
X154560327Y-64121821D01*
X154683237Y-64284581D01*
X154833958Y-64421980D01*
X154833960Y-64421982D01*
X154875561Y-64447740D01*
X155007363Y-64529348D01*
X155197544Y-64603024D01*
X155398024Y-64640500D01*
X155398026Y-64640500D01*
X155601974Y-64640500D01*
X155601976Y-64640500D01*
X155802456Y-64603024D01*
X155992637Y-64529348D01*
X156166041Y-64421981D01*
X156174054Y-64414676D01*
X156939499Y-64414676D01*
X156939500Y-64414678D01*
X156954032Y-64487735D01*
X156954033Y-64487739D01*
X156954034Y-64487740D01*
X157009399Y-64570601D01*
X157072400Y-64612696D01*
X157092260Y-64625966D01*
X157092264Y-64625967D01*
X157165321Y-64640499D01*
X157165324Y-64640500D01*
X157165326Y-64640500D01*
X158914676Y-64640500D01*
X158914677Y-64640499D01*
X158987740Y-64625966D01*
X159070601Y-64570601D01*
X159125966Y-64487740D01*
X159140500Y-64414674D01*
X159140500Y-63540000D01*
X161894785Y-63540000D01*
X161913602Y-63743082D01*
X161969417Y-63939247D01*
X161969422Y-63939260D01*
X162060327Y-64121821D01*
X162183237Y-64284581D01*
X162333958Y-64421980D01*
X162333960Y-64421982D01*
X162375561Y-64447740D01*
X162507363Y-64529348D01*
X162697544Y-64603024D01*
X162898024Y-64640500D01*
X162898026Y-64640500D01*
X163101974Y-64640500D01*
X163101976Y-64640500D01*
X163302456Y-64603024D01*
X163492637Y-64529348D01*
X163666041Y-64421981D01*
X163717932Y-64374676D01*
X166689499Y-64374676D01*
X166689500Y-64374678D01*
X166704032Y-64447735D01*
X166704033Y-64447739D01*
X166704034Y-64447740D01*
X166759399Y-64530601D01*
X166842259Y-64585965D01*
X166842260Y-64585966D01*
X166842264Y-64585967D01*
X166915321Y-64600499D01*
X166915324Y-64600500D01*
X166915326Y-64600500D01*
X168664676Y-64600500D01*
X168664677Y-64600499D01*
X168737740Y-64585966D01*
X168820601Y-64530601D01*
X168875966Y-64447740D01*
X168890500Y-64374674D01*
X168890500Y-62625326D01*
X168890500Y-62625323D01*
X168890499Y-62625321D01*
X168875967Y-62552264D01*
X168875966Y-62552260D01*
X168867295Y-62539283D01*
X168820601Y-62469399D01*
X168737740Y-62414034D01*
X168737739Y-62414033D01*
X168737735Y-62414032D01*
X168664677Y-62399500D01*
X168664674Y-62399500D01*
X166915326Y-62399500D01*
X166915323Y-62399500D01*
X166842264Y-62414032D01*
X166842260Y-62414033D01*
X166759399Y-62469399D01*
X166704033Y-62552260D01*
X166704032Y-62552264D01*
X166689500Y-62625321D01*
X166689499Y-62625323D01*
X166689499Y-64374676D01*
X163717932Y-64374676D01*
X163816764Y-64284579D01*
X163939673Y-64121821D01*
X164030582Y-63939250D01*
X164086397Y-63743083D01*
X164105215Y-63540000D01*
X164086397Y-63336917D01*
X164030582Y-63140750D01*
X164029109Y-63137792D01*
X163960497Y-63000000D01*
X163939673Y-62958179D01*
X163879413Y-62878382D01*
X163816762Y-62795418D01*
X163666041Y-62658019D01*
X163666039Y-62658017D01*
X163492642Y-62550655D01*
X163492635Y-62550651D01*
X163377115Y-62505899D01*
X163302456Y-62476976D01*
X163101976Y-62439500D01*
X162898024Y-62439500D01*
X162697544Y-62476976D01*
X162697541Y-62476976D01*
X162697541Y-62476977D01*
X162507364Y-62550651D01*
X162507357Y-62550655D01*
X162333960Y-62658017D01*
X162333958Y-62658019D01*
X162183237Y-62795418D01*
X162060327Y-62958178D01*
X161969422Y-63140739D01*
X161969417Y-63140752D01*
X161913602Y-63336917D01*
X161894785Y-63539999D01*
X161894785Y-63540000D01*
X159140500Y-63540000D01*
X159140500Y-62665326D01*
X159140500Y-62665325D01*
X159140500Y-62665323D01*
X159140499Y-62665321D01*
X159125967Y-62592264D01*
X159125966Y-62592260D01*
X159125966Y-62592259D01*
X159070601Y-62509399D01*
X158997742Y-62460717D01*
X158987739Y-62454033D01*
X158987735Y-62454032D01*
X158914677Y-62439500D01*
X158914674Y-62439500D01*
X157165326Y-62439500D01*
X157165323Y-62439500D01*
X157092264Y-62454032D01*
X157092260Y-62454033D01*
X157009399Y-62509399D01*
X156954033Y-62592260D01*
X156954032Y-62592264D01*
X156939500Y-62665321D01*
X156939499Y-62665323D01*
X156939499Y-64414676D01*
X156174054Y-64414676D01*
X156316764Y-64284579D01*
X156439673Y-64121821D01*
X156530582Y-63939250D01*
X156586397Y-63743083D01*
X156605215Y-63540000D01*
X156586397Y-63336917D01*
X156530582Y-63140750D01*
X156529109Y-63137792D01*
X156460497Y-63000000D01*
X156439673Y-62958179D01*
X156379413Y-62878382D01*
X156316762Y-62795418D01*
X156166041Y-62658019D01*
X156166039Y-62658017D01*
X155992642Y-62550655D01*
X155992635Y-62550651D01*
X155877115Y-62505899D01*
X155802456Y-62476976D01*
X155601976Y-62439500D01*
X155398024Y-62439500D01*
X155197544Y-62476976D01*
X155197541Y-62476976D01*
X155197541Y-62476977D01*
X155007364Y-62550651D01*
X155007357Y-62550655D01*
X154833960Y-62658017D01*
X154833958Y-62658019D01*
X154683237Y-62795418D01*
X154560327Y-62958178D01*
X154469422Y-63140739D01*
X154469417Y-63140752D01*
X154413602Y-63336917D01*
X154394785Y-63539999D01*
X154394785Y-63540000D01*
X154065215Y-63540000D01*
X154046397Y-63336917D01*
X153990582Y-63140750D01*
X153989109Y-63137792D01*
X153920497Y-63000000D01*
X153899673Y-62958179D01*
X153839413Y-62878382D01*
X153776762Y-62795418D01*
X153626041Y-62658019D01*
X153626039Y-62658017D01*
X153452642Y-62550655D01*
X153452635Y-62550651D01*
X153337115Y-62505899D01*
X153262456Y-62476976D01*
X153061976Y-62439500D01*
X152858024Y-62439500D01*
X152657544Y-62476976D01*
X152657541Y-62476976D01*
X152657541Y-62476977D01*
X152467364Y-62550651D01*
X152467357Y-62550655D01*
X152293960Y-62658017D01*
X152293958Y-62658019D01*
X152143237Y-62795418D01*
X152020327Y-62958178D01*
X151929422Y-63140739D01*
X151929417Y-63140752D01*
X151873602Y-63336917D01*
X151854785Y-63539999D01*
X151854785Y-63540000D01*
X150000000Y-63540000D01*
X150000000Y-61600000D01*
X149000000Y-60600000D01*
X133799999Y-60600000D01*
X133200000Y-61199999D01*
X133200000Y-65348638D01*
X133180315Y-65415677D01*
X133163681Y-65436319D01*
X132636319Y-65963681D01*
X132574996Y-65997166D01*
X132548638Y-66000000D01*
X130551362Y-66000000D01*
X130484323Y-65980315D01*
X130463681Y-65963681D01*
X130036319Y-65536318D01*
X130002834Y-65474995D01*
X130000000Y-65448637D01*
X130000000Y-55551362D01*
X130019685Y-55484323D01*
X130036319Y-55463681D01*
X133500000Y-52000000D01*
X133500000Y-51914676D01*
X144439499Y-51914676D01*
X144439500Y-51914678D01*
X144454032Y-51987735D01*
X144454033Y-51987739D01*
X144454034Y-51987740D01*
X144509399Y-52070601D01*
X144579838Y-52117666D01*
X144592260Y-52125966D01*
X144592264Y-52125967D01*
X144665321Y-52140499D01*
X144665324Y-52140500D01*
X144665326Y-52140500D01*
X146414676Y-52140500D01*
X146414677Y-52140499D01*
X146487740Y-52125966D01*
X146570601Y-52070601D01*
X146625966Y-51987740D01*
X146640500Y-51914674D01*
X146640500Y-50165326D01*
X146640500Y-50165323D01*
X146640499Y-50165321D01*
X146625967Y-50092264D01*
X146625966Y-50092260D01*
X146625965Y-50092259D01*
X146570601Y-50009399D01*
X146487740Y-49954034D01*
X146487739Y-49954033D01*
X146487735Y-49954032D01*
X146414677Y-49939500D01*
X146414674Y-49939500D01*
X144665326Y-49939500D01*
X144665323Y-49939500D01*
X144592264Y-49954032D01*
X144592260Y-49954033D01*
X144509399Y-50009399D01*
X144454033Y-50092260D01*
X144454032Y-50092264D01*
X144439500Y-50165321D01*
X144439499Y-50165323D01*
X144439499Y-51914676D01*
X133500000Y-51914676D01*
X133500000Y-48500000D01*
X144434785Y-48500000D01*
X144453602Y-48703082D01*
X144509417Y-48899247D01*
X144509422Y-48899260D01*
X144600327Y-49081821D01*
X144723237Y-49244581D01*
X144873958Y-49381980D01*
X144873960Y-49381982D01*
X144973141Y-49443392D01*
X145047363Y-49489348D01*
X145237544Y-49563024D01*
X145438024Y-49600500D01*
X145438026Y-49600500D01*
X145641974Y-49600500D01*
X145641976Y-49600500D01*
X145842456Y-49563024D01*
X146032637Y-49489348D01*
X146206041Y-49381981D01*
X146334122Y-49265219D01*
X146356762Y-49244581D01*
X146405391Y-49180186D01*
X146479673Y-49081821D01*
X146570582Y-48899250D01*
X146626397Y-48703083D01*
X146641509Y-48540000D01*
X150719628Y-48540000D01*
X150739079Y-48762329D01*
X150739081Y-48762339D01*
X150796841Y-48977905D01*
X150796843Y-48977909D01*
X150796844Y-48977913D01*
X150891165Y-49180186D01*
X151019178Y-49363007D01*
X151176993Y-49520822D01*
X151359814Y-49648835D01*
X151562087Y-49743156D01*
X151777666Y-49800920D01*
X151955533Y-49816481D01*
X151999999Y-49820372D01*
X152000000Y-49820372D01*
X152000001Y-49820372D01*
X152037055Y-49817130D01*
X152222334Y-49800920D01*
X152437913Y-49743156D01*
X152640186Y-49648835D01*
X152823007Y-49520822D01*
X152980822Y-49363007D01*
X153108835Y-49180186D01*
X153203156Y-48977913D01*
X153260920Y-48762334D01*
X153280372Y-48540000D01*
X153260920Y-48317666D01*
X153203156Y-48102087D01*
X153108835Y-47899814D01*
X152980822Y-47716993D01*
X152823007Y-47559178D01*
X152640186Y-47431165D01*
X152437913Y-47336844D01*
X152437909Y-47336843D01*
X152437905Y-47336841D01*
X152222339Y-47279081D01*
X152222329Y-47279079D01*
X152000001Y-47259628D01*
X151999999Y-47259628D01*
X151777670Y-47279079D01*
X151777660Y-47279081D01*
X151562094Y-47336841D01*
X151562087Y-47336843D01*
X151562087Y-47336844D01*
X151359814Y-47431165D01*
X151176993Y-47559178D01*
X151176991Y-47559179D01*
X151176988Y-47559182D01*
X151019182Y-47716988D01*
X151019179Y-47716991D01*
X151019178Y-47716993D01*
X150891165Y-47899814D01*
X150797468Y-48100750D01*
X150796845Y-48102085D01*
X150796841Y-48102094D01*
X150739081Y-48317660D01*
X150739079Y-48317670D01*
X150719628Y-48539999D01*
X150719628Y-48540000D01*
X146641509Y-48540000D01*
X146645215Y-48500000D01*
X146626397Y-48296917D01*
X146570582Y-48100750D01*
X146479673Y-47918179D01*
X146356764Y-47755421D01*
X146356762Y-47755418D01*
X146206041Y-47618019D01*
X146206039Y-47618017D01*
X146032642Y-47510655D01*
X146032635Y-47510651D01*
X145937546Y-47473814D01*
X145842456Y-47436976D01*
X145641976Y-47399500D01*
X145438024Y-47399500D01*
X145237544Y-47436976D01*
X145237541Y-47436976D01*
X145237541Y-47436977D01*
X145047364Y-47510651D01*
X145047357Y-47510655D01*
X144873960Y-47618017D01*
X144873958Y-47618019D01*
X144723237Y-47755418D01*
X144600327Y-47918178D01*
X144509422Y-48100739D01*
X144509417Y-48100752D01*
X144453602Y-48296917D01*
X144434785Y-48499999D01*
X144434785Y-48500000D01*
X133500000Y-48500000D01*
X133500000Y-45960000D01*
X144434785Y-45960000D01*
X144453602Y-46163082D01*
X144509417Y-46359247D01*
X144509422Y-46359260D01*
X144600327Y-46541821D01*
X144723237Y-46704581D01*
X144873958Y-46841980D01*
X144873960Y-46841982D01*
X144902460Y-46859628D01*
X145047363Y-46949348D01*
X145237544Y-47023024D01*
X145438024Y-47060500D01*
X145438026Y-47060500D01*
X145641974Y-47060500D01*
X145641976Y-47060500D01*
X145842456Y-47023024D01*
X146032637Y-46949348D01*
X146206041Y-46841981D01*
X146356764Y-46704579D01*
X146479673Y-46541821D01*
X146570582Y-46359250D01*
X146626397Y-46163083D01*
X146645215Y-45960000D01*
X146637025Y-45871619D01*
X146626397Y-45756917D01*
X146585223Y-45612208D01*
X146570582Y-45560750D01*
X146542584Y-45504523D01*
X146493906Y-45406763D01*
X146479673Y-45378179D01*
X146420704Y-45300091D01*
X146356762Y-45215418D01*
X146206041Y-45078019D01*
X146206039Y-45078017D01*
X146032642Y-44970655D01*
X146032635Y-44970651D01*
X145937546Y-44933814D01*
X145842456Y-44896976D01*
X145641976Y-44859500D01*
X145438024Y-44859500D01*
X145237544Y-44896976D01*
X145237541Y-44896976D01*
X145237541Y-44896977D01*
X145047364Y-44970651D01*
X145047357Y-44970655D01*
X144873960Y-45078017D01*
X144873958Y-45078019D01*
X144723237Y-45215418D01*
X144600327Y-45378178D01*
X144509422Y-45560739D01*
X144509417Y-45560752D01*
X144453602Y-45756917D01*
X144434785Y-45959999D01*
X144434785Y-45960000D01*
X133500000Y-45960000D01*
X133500000Y-43500000D01*
X132000000Y-42000000D01*
X130051362Y-42000000D01*
X129984323Y-41980315D01*
X129963681Y-41963681D01*
X129036318Y-41036318D01*
X129002833Y-40974995D01*
X129000000Y-40948646D01*
X128999999Y-32551358D01*
X129019684Y-32484323D01*
X129036313Y-32463686D01*
X129963681Y-31536318D01*
X130025004Y-31502834D01*
X130051362Y-31500000D01*
X158948638Y-31500000D01*
X159015677Y-31519685D01*
G37*
%TD.AperFunction*%
%TD*%
M02*
