%TF.GenerationSoftware,KiCad,Pcbnew,7.0.7*%
%TF.CreationDate,2023-11-17T01:25:33+08:00*%
%TF.ProjectId,Isolated Power Supply and LDO Verification,49736f6c-6174-4656-9420-506f77657220,rev?*%
%TF.SameCoordinates,Original*%
%TF.FileFunction,Copper,L1,Top*%
%TF.FilePolarity,Positive*%
%FSLAX46Y46*%
G04 Gerber Fmt 4.6, Leading zero omitted, Abs format (unit mm)*
G04 Created by KiCad (PCBNEW 7.0.7) date 2023-11-17 01:25:33*
%MOMM*%
%LPD*%
G01*
G04 APERTURE LIST*
G04 Aperture macros list*
%AMRoundRect*
0 Rectangle with rounded corners*
0 $1 Rounding radius*
0 $2 $3 $4 $5 $6 $7 $8 $9 X,Y pos of 4 corners*
0 Add a 4 corners polygon primitive as box body*
4,1,4,$2,$3,$4,$5,$6,$7,$8,$9,$2,$3,0*
0 Add four circle primitives for the rounded corners*
1,1,$1+$1,$2,$3*
1,1,$1+$1,$4,$5*
1,1,$1+$1,$6,$7*
1,1,$1+$1,$8,$9*
0 Add four rect primitives between the rounded corners*
20,1,$1+$1,$2,$3,$4,$5,0*
20,1,$1+$1,$4,$5,$6,$7,0*
20,1,$1+$1,$6,$7,$8,$9,0*
20,1,$1+$1,$8,$9,$2,$3,0*%
G04 Aperture macros list end*
%TA.AperFunction,ComponentPad*%
%ADD10C,2.050000*%
%TD*%
%TA.AperFunction,ComponentPad*%
%ADD11C,2.250000*%
%TD*%
%TA.AperFunction,ComponentPad*%
%ADD12R,1.700000X1.700000*%
%TD*%
%TA.AperFunction,ComponentPad*%
%ADD13O,1.700000X1.700000*%
%TD*%
%TA.AperFunction,SMDPad,CuDef*%
%ADD14RoundRect,0.135000X-0.135000X-0.185000X0.135000X-0.185000X0.135000X0.185000X-0.135000X0.185000X0*%
%TD*%
%TA.AperFunction,SMDPad,CuDef*%
%ADD15RoundRect,0.062500X-0.062500X0.362500X-0.062500X-0.362500X0.062500X-0.362500X0.062500X0.362500X0*%
%TD*%
%TA.AperFunction,SMDPad,CuDef*%
%ADD16R,2.380000X1.650000*%
%TD*%
%TA.AperFunction,SMDPad,CuDef*%
%ADD17RoundRect,0.225000X-0.250000X0.225000X-0.250000X-0.225000X0.250000X-0.225000X0.250000X0.225000X0*%
%TD*%
%TA.AperFunction,SMDPad,CuDef*%
%ADD18R,0.600000X0.800000*%
%TD*%
%TA.AperFunction,SMDPad,CuDef*%
%ADD19R,0.600000X0.650000*%
%TD*%
%TA.AperFunction,SMDPad,CuDef*%
%ADD20RoundRect,0.135000X0.185000X-0.135000X0.185000X0.135000X-0.185000X0.135000X-0.185000X-0.135000X0*%
%TD*%
%TA.AperFunction,SMDPad,CuDef*%
%ADD21RoundRect,0.250000X0.325000X0.650000X-0.325000X0.650000X-0.325000X-0.650000X0.325000X-0.650000X0*%
%TD*%
%TA.AperFunction,SMDPad,CuDef*%
%ADD22RoundRect,0.140000X-0.140000X-0.170000X0.140000X-0.170000X0.140000X0.170000X-0.140000X0.170000X0*%
%TD*%
%TA.AperFunction,SMDPad,CuDef*%
%ADD23RoundRect,0.250000X0.250000X0.475000X-0.250000X0.475000X-0.250000X-0.475000X0.250000X-0.475000X0*%
%TD*%
%TA.AperFunction,SMDPad,CuDef*%
%ADD24RoundRect,0.250000X-0.300000X0.300000X-0.300000X-0.300000X0.300000X-0.300000X0.300000X0.300000X0*%
%TD*%
%TA.AperFunction,SMDPad,CuDef*%
%ADD25RoundRect,0.250000X-0.650000X0.325000X-0.650000X-0.325000X0.650000X-0.325000X0.650000X0.325000X0*%
%TD*%
%TA.AperFunction,SMDPad,CuDef*%
%ADD26RoundRect,0.250000X-0.325000X-0.650000X0.325000X-0.650000X0.325000X0.650000X-0.325000X0.650000X0*%
%TD*%
%TA.AperFunction,SMDPad,CuDef*%
%ADD27RoundRect,0.250000X-0.475000X0.250000X-0.475000X-0.250000X0.475000X-0.250000X0.475000X0.250000X0*%
%TD*%
%TA.AperFunction,SMDPad,CuDef*%
%ADD28RoundRect,0.150000X0.950000X0.150000X-0.950000X0.150000X-0.950000X-0.150000X0.950000X-0.150000X0*%
%TD*%
%TA.AperFunction,SMDPad,CuDef*%
%ADD29RoundRect,0.250000X0.475000X-0.250000X0.475000X0.250000X-0.475000X0.250000X-0.475000X-0.250000X0*%
%TD*%
%TA.AperFunction,SMDPad,CuDef*%
%ADD30RoundRect,0.250000X0.650000X-0.325000X0.650000X0.325000X-0.650000X0.325000X-0.650000X-0.325000X0*%
%TD*%
%TA.AperFunction,SMDPad,CuDef*%
%ADD31RoundRect,0.140000X0.170000X-0.140000X0.170000X0.140000X-0.170000X0.140000X-0.170000X-0.140000X0*%
%TD*%
%TA.AperFunction,SMDPad,CuDef*%
%ADD32RoundRect,0.225000X0.250000X-0.225000X0.250000X0.225000X-0.250000X0.225000X-0.250000X-0.225000X0*%
%TD*%
%TA.AperFunction,SMDPad,CuDef*%
%ADD33RoundRect,0.250000X0.300000X-0.300000X0.300000X0.300000X-0.300000X0.300000X-0.300000X-0.300000X0*%
%TD*%
%TA.AperFunction,SMDPad,CuDef*%
%ADD34RoundRect,0.150000X-0.512500X-0.150000X0.512500X-0.150000X0.512500X0.150000X-0.512500X0.150000X0*%
%TD*%
%TA.AperFunction,SMDPad,CuDef*%
%ADD35RoundRect,0.100000X0.100000X-0.625000X0.100000X0.625000X-0.100000X0.625000X-0.100000X-0.625000X0*%
%TD*%
%TA.AperFunction,SMDPad,CuDef*%
%ADD36R,2.150000X1.950000*%
%TD*%
%TA.AperFunction,SMDPad,CuDef*%
%ADD37RoundRect,0.140000X-0.170000X0.140000X-0.170000X-0.140000X0.170000X-0.140000X0.170000X0.140000X0*%
%TD*%
%TA.AperFunction,SMDPad,CuDef*%
%ADD38RoundRect,0.250000X0.250000X-0.800000X0.250000X0.800000X-0.250000X0.800000X-0.250000X-0.800000X0*%
%TD*%
%TA.AperFunction,SMDPad,CuDef*%
%ADD39RoundRect,0.075000X-0.075000X0.650000X-0.075000X-0.650000X0.075000X-0.650000X0.075000X0.650000X0*%
%TD*%
%TA.AperFunction,SMDPad,CuDef*%
%ADD40R,1.880000X1.680000*%
%TD*%
%TA.AperFunction,ViaPad*%
%ADD41C,0.800000*%
%TD*%
%TA.AperFunction,ViaPad*%
%ADD42C,0.603000*%
%TD*%
%TA.AperFunction,Conductor*%
%ADD43C,0.800000*%
%TD*%
%TA.AperFunction,Conductor*%
%ADD44C,0.200000*%
%TD*%
%TA.AperFunction,Conductor*%
%ADD45C,0.300000*%
%TD*%
G04 APERTURE END LIST*
D10*
%TO.P,J107,1,In*%
%TO.N,Net-(J107-In)*%
X126700000Y-48140000D03*
D11*
%TO.P,J107,2,Ext*%
%TO.N,GNDS*%
X124160000Y-45600000D03*
X124160000Y-50680000D03*
X129240000Y-45600000D03*
X129240000Y-50680000D03*
%TD*%
D12*
%TO.P,J102,1,Pin_1*%
%TO.N,GNDS*%
X96215000Y-62520000D03*
D13*
%TO.P,J102,2,Pin_2*%
X98755000Y-62520000D03*
%TO.P,J102,3,Pin_3*%
X101295000Y-62520000D03*
%TD*%
D14*
%TO.P,R104,1*%
%TO.N,Net-(U101-FB)*%
X136660000Y-92650000D03*
%TO.P,R104,2*%
%TO.N,GND*%
X137680000Y-92650000D03*
%TD*%
D15*
%TO.P,U106,1,IN*%
%TO.N,Net-(J118-Pin_1)*%
X161000001Y-87679999D03*
%TO.P,U106,2,IN*%
X160500001Y-87679999D03*
%TO.P,U106,3,EN/UV*%
X160000001Y-87679999D03*
%TO.P,U106,4,PG*%
%TO.N,unconnected-(U106-PG-Pad4)*%
X159500001Y-87679999D03*
%TO.P,U106,5,ILIM*%
%TO.N,GND*%
X159000001Y-87679999D03*
%TO.P,U106,6,PGFB*%
%TO.N,Net-(J118-Pin_1)*%
X159000001Y-90579999D03*
%TO.P,U106,7,SET*%
%TO.N,Net-(U106-SET)*%
X159500001Y-90579999D03*
%TO.P,U106,8,GND*%
%TO.N,GND*%
X160000001Y-90579999D03*
%TO.P,U106,9,OUTS*%
%TO.N,Net-(J116-In)*%
X160500001Y-90579999D03*
%TO.P,U106,10,OUT*%
X161000001Y-90579999D03*
D16*
%TO.P,U106,11,GND*%
%TO.N,GND*%
X160000001Y-89129999D03*
%TD*%
D12*
%TO.P,J103,1,Pin_1*%
%TO.N,Net-(J103-Pin_1)*%
X167790000Y-63500000D03*
D13*
%TO.P,J103,2,Pin_2*%
%TO.N,Net-(BT101-+)*%
X167790000Y-66040000D03*
%TD*%
D17*
%TO.P,C119,1*%
%TO.N,Net-(D101-K)*%
X137040000Y-39475000D03*
%TO.P,C119,2*%
%TO.N,GND*%
X137040000Y-41025000D03*
%TD*%
D10*
%TO.P,J116,1,In*%
%TO.N,Net-(J116-In)*%
X162460000Y-98790000D03*
D11*
%TO.P,J116,2,Ext*%
%TO.N,GND*%
X165000000Y-96250000D03*
X159920000Y-96250000D03*
X165000000Y-101330000D03*
X159920000Y-101330000D03*
%TD*%
D18*
%TO.P,C123,1,1*%
%TO.N,Net-(D101-K)*%
X140440000Y-38500000D03*
D19*
%TO.P,C123,2,2*%
%TO.N,GND*%
X141440000Y-37875000D03*
X141440000Y-39025000D03*
D18*
%TO.P,C123,3,3*%
%TO.N,Net-(J114-Pin_3)*%
X142440000Y-38500000D03*
%TD*%
D20*
%TO.P,R102,1*%
%TO.N,GNDS*%
X116040000Y-40510000D03*
%TO.P,R102,2*%
%TO.N,Net-(U103-CLK)*%
X116040000Y-39490000D03*
%TD*%
D21*
%TO.P,C108,1*%
%TO.N,Net-(J107-In)*%
X120515000Y-42300000D03*
%TO.P,C108,2*%
%TO.N,GNDS*%
X117565000Y-42300000D03*
%TD*%
D22*
%TO.P,C112,1*%
%TO.N,/+4V5_REG*%
X134690000Y-93699999D03*
%TO.P,C112,2*%
%TO.N,Net-(U101-FB)*%
X135650000Y-93699999D03*
%TD*%
D10*
%TO.P,J104,1,In*%
%TO.N,Net-(J101-Pin_1)*%
X99000000Y-52460000D03*
D11*
%TO.P,J104,2,Ext*%
%TO.N,GNDS*%
X96460000Y-49920000D03*
X96460000Y-55000000D03*
X101540000Y-49920000D03*
X101540000Y-55000000D03*
%TD*%
D20*
%TO.P,R101,1*%
%TO.N,GND*%
X110920000Y-93860000D03*
%TO.P,R101,2*%
%TO.N,Net-(U102-SET)*%
X110920000Y-92840000D03*
%TD*%
D23*
%TO.P,C133,1*%
%TO.N,Net-(J105-Pin_3)*%
X112470000Y-78949999D03*
%TO.P,C133,2*%
%TO.N,GND*%
X110570000Y-78949999D03*
%TD*%
%TO.P,C132,1*%
%TO.N,Net-(J118-Pin_1)*%
X160950001Y-85770000D03*
%TO.P,C132,2*%
%TO.N,GND*%
X159050001Y-85770000D03*
%TD*%
D21*
%TO.P,C124,1*%
%TO.N,Net-(J114-Pin_3)*%
X142915000Y-41400000D03*
%TO.P,C124,2*%
%TO.N,GND*%
X139965000Y-41400000D03*
%TD*%
D24*
%TO.P,D102,1,K*%
%TO.N,Net-(D101-K)*%
X134540000Y-39400001D03*
%TO.P,D102,2,A*%
%TO.N,Net-(D102-A)*%
X134540000Y-42200001D03*
%TD*%
D23*
%TO.P,C113,1*%
%TO.N,Net-(J109-In)*%
X114270000Y-93350000D03*
%TO.P,C113,2*%
%TO.N,GND*%
X112370000Y-93350000D03*
%TD*%
D12*
%TO.P,J113,1,Pin_1*%
%TO.N,Net-(J109-In)*%
X103460000Y-98750000D03*
D13*
%TO.P,J113,2,Pin_2*%
X103460000Y-101290000D03*
%TO.P,J113,3,Pin_3*%
X103460000Y-103830000D03*
%TD*%
D25*
%TO.P,C107,1*%
%TO.N,Net-(J106-Pin_3)*%
X113640000Y-60325000D03*
%TO.P,C107,2*%
%TO.N,GNDS*%
X113640000Y-63275000D03*
%TD*%
%TO.P,C117,1*%
%TO.N,Net-(U104-VOUT+)*%
X136840000Y-55925000D03*
%TO.P,C117,2*%
%TO.N,GND*%
X136840000Y-58875000D03*
%TD*%
D10*
%TO.P,J109,1,In*%
%TO.N,Net-(J109-In)*%
X113960000Y-98790000D03*
D11*
%TO.P,J109,2,Ext*%
%TO.N,GND*%
X116500000Y-96250000D03*
X111420000Y-96250000D03*
X116500000Y-101330000D03*
X111420000Y-101330000D03*
%TD*%
D26*
%TO.P,C121,1*%
%TO.N,Net-(D101-K)*%
X139965000Y-35500000D03*
%TO.P,C121,2*%
%TO.N,GND*%
X142915000Y-35500000D03*
%TD*%
D18*
%TO.P,C110,1,1*%
%TO.N,Net-(J106-Pin_1)*%
X117340000Y-44900000D03*
D19*
%TO.P,C110,2,2*%
%TO.N,GNDS*%
X118340000Y-44275000D03*
X118340000Y-45425000D03*
D18*
%TO.P,C110,3,3*%
%TO.N,Net-(J107-In)*%
X119340000Y-44900000D03*
%TD*%
D27*
%TO.P,C103,1*%
%TO.N,Net-(J105-Pin_1)*%
X128170000Y-86100000D03*
%TO.P,C103,2*%
%TO.N,GND*%
X128170000Y-88000000D03*
%TD*%
D28*
%TO.P,U105,1*%
%TO.N,Net-(U103-VD1)*%
X123690000Y-35960000D03*
%TO.P,U105,2*%
%TO.N,Net-(J107-In)*%
X123690000Y-38500000D03*
%TO.P,U105,3*%
%TO.N,Net-(U103-VD2)*%
X123690000Y-41040000D03*
%TO.P,U105,4*%
%TO.N,Net-(D102-A)*%
X131390000Y-41040000D03*
%TO.P,U105,5*%
%TO.N,GND*%
X131390000Y-38500000D03*
%TO.P,U105,6*%
%TO.N,Net-(D101-A)*%
X131390000Y-35960000D03*
%TD*%
D10*
%TO.P,J115,1,In*%
%TO.N,Net-(J103-Pin_1)*%
X152000000Y-48540000D03*
D11*
%TO.P,J115,2,Ext*%
%TO.N,GND*%
X149460000Y-46000000D03*
X149460000Y-51080000D03*
X154540000Y-46000000D03*
X154540000Y-51080000D03*
%TD*%
D12*
%TO.P,J106,1,Pin_1*%
%TO.N,Net-(J106-Pin_1)*%
X106040000Y-49995000D03*
D13*
%TO.P,J106,2,Pin_2*%
%TO.N,Net-(J101-Pin_1)*%
X106040000Y-52535000D03*
%TO.P,J106,3,Pin_3*%
%TO.N,Net-(J106-Pin_3)*%
X106040000Y-55075000D03*
%TD*%
D12*
%TO.P,J105,1,Pin_1*%
%TO.N,Net-(J105-Pin_1)*%
X158040000Y-63540000D03*
D13*
%TO.P,J105,2,Pin_2*%
%TO.N,Net-(J103-Pin_1)*%
X155500000Y-63540000D03*
%TO.P,J105,3,Pin_3*%
%TO.N,Net-(J105-Pin_3)*%
X152960000Y-63540000D03*
%TD*%
D23*
%TO.P,C115,1*%
%TO.N,/+4V5_REG*%
X133219999Y-92300000D03*
%TO.P,C115,2*%
%TO.N,GND*%
X131319999Y-92300000D03*
%TD*%
D27*
%TO.P,C130,1*%
%TO.N,Net-(J105-Pin_1)*%
X132970000Y-86100000D03*
%TO.P,C130,2*%
%TO.N,GND*%
X132970000Y-88000000D03*
%TD*%
D17*
%TO.P,C131,1*%
%TO.N,Net-(U104-VOUT+)*%
X134840000Y-55825000D03*
%TO.P,C131,2*%
%TO.N,GND*%
X134840000Y-57375000D03*
%TD*%
D18*
%TO.P,C120,1,1*%
%TO.N,Net-(U104-VOUT+)*%
X141340000Y-55900000D03*
D19*
%TO.P,C120,2,2*%
%TO.N,GND*%
X142340000Y-55275000D03*
X142340000Y-56425000D03*
D18*
%TO.P,C120,3,3*%
%TO.N,Net-(J114-Pin_1)*%
X143340000Y-55900000D03*
%TD*%
D27*
%TO.P,C126,1*%
%TO.N,Net-(U106-SET)*%
X157000000Y-93130000D03*
%TO.P,C126,2*%
%TO.N,GND*%
X157000000Y-95030000D03*
%TD*%
D10*
%TO.P,J108,1,In*%
%TO.N,Net-(J108-In)*%
X115100000Y-52340000D03*
D11*
%TO.P,J108,2,Ext*%
%TO.N,GNDS*%
X112560000Y-49800000D03*
X112560000Y-54880000D03*
X117640000Y-49800000D03*
X117640000Y-54880000D03*
%TD*%
D23*
%TO.P,C129,1*%
%TO.N,Net-(J116-In)*%
X162950002Y-93330000D03*
%TO.P,C129,2*%
%TO.N,GND*%
X161050002Y-93330000D03*
%TD*%
D12*
%TO.P,J118,1,Pin_1*%
%TO.N,Net-(J118-Pin_1)*%
X163000000Y-66080000D03*
D13*
%TO.P,J118,2,Pin_2*%
%TO.N,Net-(J103-Pin_1)*%
X163000000Y-63540000D03*
%TD*%
D27*
%TO.P,C102,1*%
%TO.N,Net-(U102-SET)*%
X108420001Y-93200000D03*
%TO.P,C102,2*%
%TO.N,GND*%
X108420001Y-95100000D03*
%TD*%
D29*
%TO.P,C128,1*%
%TO.N,Net-(J116-In)*%
X163000000Y-90530000D03*
%TO.P,C128,2*%
%TO.N,GND*%
X163000000Y-88630000D03*
%TD*%
D12*
%TO.P,J114,1,Pin_1*%
%TO.N,Net-(J114-Pin_1)*%
X145540000Y-51040000D03*
D13*
%TO.P,J114,2,Pin_2*%
%TO.N,Net-(J103-Pin_1)*%
X145540000Y-48500000D03*
%TO.P,J114,3,Pin_3*%
%TO.N,Net-(J114-Pin_3)*%
X145540000Y-45960000D03*
%TD*%
D25*
%TO.P,C109,1*%
%TO.N,Net-(J108-In)*%
X119640000Y-60325000D03*
%TO.P,C109,2*%
%TO.N,GNDS*%
X119640000Y-63275000D03*
%TD*%
D30*
%TO.P,C106,1*%
%TO.N,Net-(J106-Pin_1)*%
X115340000Y-44975000D03*
%TO.P,C106,2*%
%TO.N,GNDS*%
X115340000Y-42025000D03*
%TD*%
D20*
%TO.P,R105,1*%
%TO.N,GND*%
X159500000Y-93840000D03*
%TO.P,R105,2*%
%TO.N,Net-(U106-SET)*%
X159500000Y-92820000D03*
%TD*%
D12*
%TO.P,J101,1,Pin_1*%
%TO.N,Net-(J101-Pin_1)*%
X96215000Y-42420000D03*
D13*
%TO.P,J101,2,Pin_2*%
X98755000Y-42420000D03*
%TO.P,J101,3,Pin_3*%
X101295000Y-42420000D03*
%TD*%
D12*
%TO.P,J112,1,Pin_1*%
%TO.N,GND*%
X135920001Y-107000000D03*
D13*
%TO.P,J112,2,Pin_2*%
X138460001Y-107000000D03*
%TO.P,J112,3,Pin_3*%
X141000001Y-107000000D03*
%TD*%
D14*
%TO.P,R103,1*%
%TO.N,/+4V5_REG*%
X134660000Y-92650000D03*
%TO.P,R103,2*%
%TO.N,Net-(U101-FB)*%
X135680000Y-92650000D03*
%TD*%
D10*
%TO.P,J110,1,In*%
%TO.N,/+4V5_REG*%
X138460000Y-98790000D03*
D11*
%TO.P,J110,2,Ext*%
%TO.N,GND*%
X135920000Y-101330000D03*
X141000000Y-101330000D03*
X135920000Y-96250000D03*
X141000000Y-96250000D03*
%TD*%
D23*
%TO.P,C125,1*%
%TO.N,Net-(J118-Pin_1)*%
X160949999Y-80970000D03*
%TO.P,C125,2*%
%TO.N,GND*%
X159049999Y-80970000D03*
%TD*%
D12*
%TO.P,J117,1,Pin_1*%
%TO.N,Net-(J116-In)*%
X151960000Y-103830000D03*
D13*
%TO.P,J117,2,Pin_2*%
X151960000Y-101290000D03*
%TO.P,J117,3,Pin_3*%
X151960000Y-98750000D03*
%TD*%
D31*
%TO.P,C104,1*%
%TO.N,Net-(U101-NR{slash}SS)*%
X136270000Y-83680000D03*
%TO.P,C104,2*%
%TO.N,GND*%
X136270000Y-82720000D03*
%TD*%
D12*
%TO.P,BT101,1,+*%
%TO.N,Net-(BT101-+)*%
X167790000Y-71460000D03*
D13*
%TO.P,BT101,2,-*%
%TO.N,GND*%
X167790000Y-74000000D03*
%TD*%
D12*
%TO.P,J111,1,Pin_1*%
%TO.N,/+4V5_REG*%
X127960000Y-98750000D03*
D13*
%TO.P,J111,2,Pin_2*%
X127960000Y-101290000D03*
%TO.P,J111,3,Pin_3*%
X127960000Y-103830000D03*
%TD*%
D18*
%TO.P,C111,1,1*%
%TO.N,Net-(J106-Pin_3)*%
X115640000Y-60300000D03*
D19*
%TO.P,C111,2,2*%
%TO.N,GNDS*%
X116640000Y-59675000D03*
X116640000Y-60825000D03*
D18*
%TO.P,C111,3,3*%
%TO.N,Net-(J108-In)*%
X117640000Y-60300000D03*
%TD*%
D23*
%TO.P,C116,1*%
%TO.N,/+4V5_REG*%
X133220000Y-94400000D03*
%TO.P,C116,2*%
%TO.N,GND*%
X131320000Y-94400000D03*
%TD*%
D32*
%TO.P,C118,1*%
%TO.N,Net-(D101-K)*%
X137040000Y-37525000D03*
%TO.P,C118,2*%
%TO.N,GND*%
X137040000Y-35975000D03*
%TD*%
D33*
%TO.P,D101,1,K*%
%TO.N,Net-(D101-K)*%
X134540000Y-37600000D03*
%TO.P,D101,2,A*%
%TO.N,Net-(D101-A)*%
X134540000Y-34800000D03*
%TD*%
D29*
%TO.P,C114,1*%
%TO.N,Net-(J109-In)*%
X114320000Y-91100000D03*
%TO.P,C114,2*%
%TO.N,GND*%
X114320000Y-89200000D03*
%TD*%
D23*
%TO.P,C101,1*%
%TO.N,Net-(J105-Pin_3)*%
X112470001Y-83850000D03*
%TO.P,C101,2*%
%TO.N,GND*%
X110570001Y-83850000D03*
%TD*%
D34*
%TO.P,U103,1,EN*%
%TO.N,Net-(J107-In)*%
X117902500Y-37550000D03*
%TO.P,U103,2,GND*%
%TO.N,GNDS*%
X117902500Y-38500000D03*
%TO.P,U103,3,CLK*%
%TO.N,Net-(U103-CLK)*%
X117902500Y-39450000D03*
%TO.P,U103,4,VD2*%
%TO.N,Net-(U103-VD2)*%
X120177500Y-39450000D03*
%TO.P,U103,5,VIN*%
%TO.N,Net-(J107-In)*%
X120177500Y-38500000D03*
%TO.P,U103,6,VD1*%
%TO.N,Net-(U103-VD1)*%
X120177500Y-37550000D03*
%TD*%
D35*
%TO.P,U101,1,OUT*%
%TO.N,/+4V5_REG*%
X134935000Y-90310000D03*
%TO.P,U101,2,FB*%
%TO.N,Net-(U101-FB)*%
X135585000Y-90310000D03*
%TO.P,U101,3,NC*%
%TO.N,unconnected-(U101-NC-Pad3)*%
X136235000Y-90310000D03*
%TO.P,U101,4,GND*%
%TO.N,GND*%
X136885000Y-90310000D03*
%TO.P,U101,5,EN*%
%TO.N,Net-(J105-Pin_1)*%
X136885000Y-86010000D03*
%TO.P,U101,6,NR/SS*%
%TO.N,Net-(U101-NR{slash}SS)*%
X136235000Y-86010000D03*
%TO.P,U101,7,DNC*%
%TO.N,unconnected-(U101-DNC-Pad7)*%
X135585000Y-86010000D03*
%TO.P,U101,8,IN*%
%TO.N,Net-(J105-Pin_1)*%
X134935000Y-86010000D03*
D36*
%TO.P,U101,9,EP*%
%TO.N,GND*%
X135910000Y-88160000D03*
%TD*%
D37*
%TO.P,C127,1*%
%TO.N,Net-(U106-SET)*%
X158500000Y-92850000D03*
%TO.P,C127,2*%
%TO.N,GND*%
X158500000Y-93810000D03*
%TD*%
D38*
%TO.P,U104,1,VIN-*%
%TO.N,GNDS*%
X123590000Y-64750000D03*
%TO.P,U104,2,VIN+*%
%TO.N,Net-(J108-In)*%
X126130000Y-64750000D03*
%TO.P,U104,4,GND*%
%TO.N,GND*%
X131210000Y-64750000D03*
%TO.P,U104,5,VOUT+*%
%TO.N,Net-(U104-VOUT+)*%
X131210000Y-55030000D03*
%TO.P,U104,8,NC*%
%TO.N,unconnected-(U104-NC-Pad8)*%
X123590000Y-55030000D03*
%TD*%
D39*
%TO.P,U102,1,IN*%
%TO.N,Net-(J105-Pin_3)*%
X112470000Y-85950000D03*
%TO.P,U102,2,IN*%
X111970000Y-85950000D03*
%TO.P,U102,3,EN/UV*%
X111470000Y-85950000D03*
%TO.P,U102,4,PG*%
%TO.N,unconnected-(U102-PG-Pad4)*%
X110970000Y-85950000D03*
%TO.P,U102,5,ILIM*%
%TO.N,GND*%
X110470000Y-85950000D03*
%TO.P,U102,6,PGFB*%
%TO.N,Net-(J105-Pin_3)*%
X110470000Y-90250000D03*
%TO.P,U102,7,SET*%
%TO.N,Net-(U102-SET)*%
X110970000Y-90250000D03*
%TO.P,U102,8,GND*%
%TO.N,GND*%
X111470000Y-90250000D03*
%TO.P,U102,9,OUTS*%
%TO.N,Net-(J109-In)*%
X111970000Y-90250000D03*
%TO.P,U102,10,OUT*%
X112470000Y-90250000D03*
D40*
%TO.P,U102,11,GND*%
%TO.N,GND*%
X111470000Y-88100000D03*
%TD*%
D25*
%TO.P,C122,1*%
%TO.N,Net-(J114-Pin_1)*%
X145440000Y-55925000D03*
%TO.P,C122,2*%
%TO.N,GND*%
X145440000Y-58875000D03*
%TD*%
D37*
%TO.P,C105,1*%
%TO.N,Net-(U102-SET)*%
X109920000Y-92870000D03*
%TO.P,C105,2*%
%TO.N,GND*%
X109920000Y-93830000D03*
%TD*%
D41*
%TO.N,GND*%
X107750000Y-96250000D03*
D42*
X142800000Y-57800000D03*
D41*
X129200000Y-91800000D03*
X158000000Y-82000000D03*
X138200000Y-91800000D03*
D42*
X146700000Y-58900000D03*
D41*
X130000000Y-39000000D03*
X138400000Y-88600000D03*
D42*
X142000000Y-53900000D03*
D41*
X116000000Y-90500000D03*
D42*
X137400000Y-35100000D03*
X142400000Y-58600000D03*
D41*
X132100000Y-65200000D03*
X108500000Y-83750000D03*
X157000000Y-82000000D03*
X129200000Y-94800000D03*
X132750000Y-89000000D03*
X112750000Y-94500000D03*
X157000000Y-88800000D03*
X130000000Y-38000000D03*
X108750000Y-88000000D03*
X128500000Y-90250000D03*
D42*
X145900000Y-57900000D03*
D41*
X135400000Y-87600000D03*
D42*
X141400000Y-36400000D03*
D41*
X115750000Y-88000000D03*
X108500000Y-78000000D03*
D42*
X145000000Y-57900000D03*
D41*
X158200000Y-95000000D03*
X164200000Y-89400000D03*
X157000000Y-87800000D03*
X136300000Y-57700000D03*
X116000000Y-93000000D03*
X160600000Y-92200000D03*
X157000000Y-85800000D03*
X131750000Y-88750000D03*
X163600000Y-87600000D03*
X109500000Y-86750000D03*
X158000000Y-85800000D03*
X109500000Y-82750000D03*
X109500000Y-85750000D03*
D42*
X141400000Y-39700000D03*
D41*
X112000000Y-87500000D03*
X138300000Y-41000000D03*
X135400000Y-58400000D03*
X137800000Y-90800000D03*
D42*
X142400000Y-53100000D03*
D41*
X158000000Y-88800000D03*
D42*
X113020000Y-88400000D03*
X141500000Y-53100000D03*
X113000000Y-87570000D03*
D41*
X158000000Y-89800000D03*
X137600000Y-93600000D03*
X138300000Y-58400000D03*
D42*
X141500000Y-58600000D03*
X160000000Y-88700000D03*
D41*
X109500000Y-90250000D03*
X109500000Y-78000000D03*
X158000000Y-86800000D03*
X114500000Y-88000000D03*
X127500000Y-90250000D03*
D42*
X142350000Y-55850000D03*
D41*
X157000000Y-80000000D03*
X109500000Y-79000000D03*
X137200000Y-82800000D03*
X157000000Y-84800000D03*
D42*
X159228287Y-88714184D03*
D41*
X110000000Y-94750000D03*
X136400000Y-87600000D03*
X158000000Y-87800000D03*
X137400000Y-87600000D03*
X109500000Y-84750000D03*
X108500000Y-80000000D03*
X131250000Y-39250000D03*
X109250000Y-96250000D03*
D42*
X141200000Y-57800000D03*
D41*
X108500000Y-86750000D03*
X143500000Y-36700000D03*
X132500000Y-39250000D03*
D42*
X137400000Y-34300000D03*
X159200000Y-89600000D03*
X142400000Y-57100000D03*
D41*
X132500000Y-37750000D03*
X157000000Y-96000000D03*
X137800000Y-89800000D03*
X108500000Y-79000000D03*
D42*
X141400000Y-37200000D03*
D41*
X131750000Y-87750000D03*
X112000000Y-88500000D03*
X130200000Y-93800000D03*
X130200000Y-92800000D03*
X143500000Y-34300000D03*
X129500000Y-89250000D03*
X164200000Y-88400000D03*
X134400000Y-88600000D03*
X135400000Y-88600000D03*
X140400000Y-42800000D03*
D42*
X141400000Y-40500000D03*
D41*
X137400000Y-57700000D03*
X157000000Y-90800000D03*
D42*
X160800000Y-88700000D03*
X142800000Y-53900000D03*
D41*
X129200000Y-93800000D03*
X158000000Y-80000000D03*
X157000000Y-86800000D03*
X111000000Y-87500000D03*
X142200000Y-36700000D03*
D42*
X160800000Y-89600000D03*
D41*
X128500000Y-89250000D03*
X137700000Y-42000000D03*
X109500000Y-83750000D03*
X142200000Y-34300000D03*
X158000000Y-90800000D03*
X155800000Y-95000000D03*
X138600000Y-93000000D03*
D42*
X136700000Y-35100000D03*
D41*
X136800000Y-91600000D03*
X131200000Y-63100000D03*
X139500000Y-42800000D03*
X129500000Y-90250000D03*
X129200000Y-92800000D03*
X161800000Y-89200000D03*
X108500000Y-89250000D03*
X108500000Y-90250000D03*
X131250000Y-37750000D03*
X130400000Y-65200000D03*
X115750000Y-89250000D03*
X136600000Y-42400000D03*
X162600000Y-87600000D03*
X127500000Y-89250000D03*
X109500000Y-89250000D03*
D42*
X141500000Y-54600000D03*
D41*
X157000000Y-81000000D03*
X111750000Y-94500000D03*
X158000000Y-84800000D03*
D42*
X146700000Y-58100000D03*
X160000000Y-89600000D03*
D41*
X161600000Y-92200000D03*
D42*
X141400000Y-38450000D03*
D41*
X141100000Y-42100000D03*
X138400000Y-87600000D03*
D42*
X142400000Y-54600000D03*
X142000000Y-57800000D03*
D41*
X108500000Y-82750000D03*
X108500000Y-84750000D03*
X135400000Y-82800000D03*
X136300000Y-81900000D03*
X158000000Y-81000000D03*
X157000000Y-89800000D03*
X111000000Y-88500000D03*
D42*
X136700000Y-34300000D03*
X143300000Y-58600000D03*
D41*
X116000000Y-91750000D03*
X134300000Y-58400000D03*
X130200000Y-91800000D03*
X134400000Y-87600000D03*
X109500000Y-80000000D03*
X109750000Y-88000000D03*
X130200000Y-94800000D03*
X132100000Y-64100000D03*
X137400000Y-88600000D03*
X108500000Y-85750000D03*
X160200000Y-93800000D03*
X136400000Y-88600000D03*
X130400000Y-64100000D03*
D42*
%TO.N,Net-(J105-Pin_1)*%
X134220000Y-86010000D03*
X137570000Y-86010000D03*
D41*
%TO.N,GNDS*%
X104000000Y-62000000D03*
D42*
X117600000Y-43550000D03*
X116650000Y-61600000D03*
X118350000Y-46150000D03*
D41*
X102000000Y-37000000D03*
X111000000Y-38000000D03*
X118000000Y-40750000D03*
X108000000Y-37000000D03*
D42*
X117500000Y-62650000D03*
D41*
X109000000Y-43000000D03*
X110000000Y-64000000D03*
X102000000Y-39000000D03*
X118750000Y-41500000D03*
X110000000Y-39000000D03*
X111750000Y-64500000D03*
X106000000Y-64000000D03*
D42*
X116650000Y-59000000D03*
D41*
X114000000Y-39000000D03*
X111000000Y-43000000D03*
X112000000Y-42000000D03*
X114250000Y-64500000D03*
X104000000Y-39000000D03*
X106000000Y-37000000D03*
D42*
X117550000Y-46950000D03*
D41*
X112000000Y-62000000D03*
X104000000Y-37000000D03*
D42*
X114950000Y-58900000D03*
D41*
X98000000Y-39000000D03*
X99000000Y-38000000D03*
X106000000Y-44000000D03*
D42*
X118350000Y-46950000D03*
D41*
X113000000Y-43000000D03*
X110000000Y-42000000D03*
X96000000Y-39000000D03*
X107000000Y-63000000D03*
X115000000Y-63250000D03*
X124500000Y-65500000D03*
X114000000Y-37000000D03*
D42*
X114950000Y-61750000D03*
X116400000Y-58200000D03*
D41*
X97000000Y-38000000D03*
X112000000Y-37000000D03*
D42*
X117550000Y-46150000D03*
D41*
X103000000Y-38000000D03*
X122500000Y-64000000D03*
X116750000Y-38500000D03*
X117750000Y-64500000D03*
X105000000Y-63000000D03*
X101000000Y-38000000D03*
X108000000Y-42000000D03*
X117000000Y-40750000D03*
X118250000Y-63250000D03*
X106000000Y-62000000D03*
X108000000Y-39000000D03*
X121000000Y-63250000D03*
X114250000Y-40750000D03*
X113750000Y-41750000D03*
X116250000Y-37500000D03*
D42*
X118350000Y-44850000D03*
D41*
X100000000Y-39000000D03*
X124500000Y-64000000D03*
X96000000Y-37000000D03*
X122500000Y-65500000D03*
X100000000Y-37000000D03*
X104000000Y-58000000D03*
X113000000Y-64500000D03*
X110000000Y-62000000D03*
D42*
X118950000Y-43050000D03*
D41*
X105000000Y-38000000D03*
X108000000Y-64000000D03*
D42*
X118350000Y-43550000D03*
X115800000Y-62600000D03*
D41*
X98000000Y-37000000D03*
X115500000Y-64500000D03*
X112250000Y-63250000D03*
X109000000Y-38000000D03*
X108000000Y-62000000D03*
X121500000Y-64750000D03*
X105000000Y-45000000D03*
X107000000Y-43000000D03*
X120250000Y-64500000D03*
D42*
X116650000Y-60250000D03*
D41*
X103000000Y-47000000D03*
X109000000Y-63000000D03*
X104000000Y-60000000D03*
X119000000Y-64500000D03*
X104000000Y-46000000D03*
X110000000Y-37000000D03*
X113000000Y-38000000D03*
X106000000Y-39000000D03*
X105000000Y-61000000D03*
X115500000Y-38500000D03*
D42*
X116650000Y-62450000D03*
D41*
X112000000Y-39000000D03*
X115250000Y-40750000D03*
D42*
X115800000Y-61750000D03*
X117500000Y-61750000D03*
D41*
X107000000Y-38000000D03*
D42*
X115800000Y-58900000D03*
%TO.N,Net-(J107-In)*%
X122400000Y-37800000D03*
X123200000Y-37800000D03*
X117910000Y-36730000D03*
X123200000Y-39200000D03*
X122400000Y-39200000D03*
X122000000Y-38500000D03*
D41*
X120200000Y-45200000D03*
D42*
X121250000Y-38500000D03*
D41*
X121200000Y-44200000D03*
X121200000Y-45200000D03*
X120200000Y-44200000D03*
D42*
X124000000Y-37800000D03*
X124000000Y-39200000D03*
%TO.N,Net-(J118-Pin_1)*%
X158680000Y-91690000D03*
X161410000Y-86930000D03*
%TO.N,Net-(J105-Pin_3)*%
X112760000Y-84920000D03*
X110000000Y-91680000D03*
%TD*%
D43*
%TO.N,Net-(BT101-+)*%
X167790000Y-66040000D02*
X167790000Y-71460000D01*
D44*
%TO.N,Net-(U102-SET)*%
X109950000Y-92840000D02*
X109920000Y-92870000D01*
X110920000Y-92840000D02*
X109950000Y-92840000D01*
X110970000Y-90250000D02*
X110970000Y-92790000D01*
X109920000Y-92870000D02*
X108750001Y-92870000D01*
X110970000Y-92790000D02*
X110920000Y-92840000D01*
X108750001Y-92870000D02*
X108420001Y-93200000D01*
D45*
%TO.N,Net-(J105-Pin_1)*%
X136885000Y-86010000D02*
X137570000Y-86010000D01*
D44*
%TO.N,Net-(U101-NR{slash}SS)*%
X136235000Y-83715000D02*
X136270000Y-83680000D01*
X136235000Y-86010000D02*
X136235000Y-83715000D01*
%TO.N,Net-(J107-In)*%
X117902500Y-37550000D02*
X117910000Y-36730000D01*
D45*
X119340000Y-46940000D02*
X120540000Y-48140000D01*
X119340000Y-44900000D02*
X119340000Y-46940000D01*
X120540000Y-48140000D02*
X126700000Y-48140000D01*
D44*
X117910000Y-36730000D02*
X117902500Y-36732500D01*
D45*
%TO.N,Net-(J108-In)*%
X117640000Y-60300000D02*
X117640000Y-58140000D01*
X115100000Y-55600000D02*
X115100000Y-52340000D01*
X117640000Y-58140000D02*
X115100000Y-55600000D01*
D44*
%TO.N,Net-(U101-FB)*%
X136660000Y-92650000D02*
X135680000Y-92650000D01*
X135680000Y-93669999D02*
X135650000Y-93699999D01*
X135585000Y-90310000D02*
X135585000Y-92555000D01*
X135680000Y-92650000D02*
X135680000Y-93669999D01*
X135585000Y-92555000D02*
X135680000Y-92650000D01*
D43*
%TO.N,Net-(J118-Pin_1)*%
X160949999Y-85769998D02*
X160950001Y-85770000D01*
D44*
X159000001Y-91369999D02*
X158680000Y-91690000D01*
X159000001Y-90579999D02*
X159000001Y-91369999D01*
D43*
X161000000Y-80919999D02*
X160949999Y-80970000D01*
D44*
%TO.N,Net-(U106-SET)*%
X159500001Y-90579999D02*
X159500001Y-92819999D01*
X157280000Y-92850000D02*
X157000000Y-93130000D01*
X159500001Y-92819999D02*
X159500000Y-92820000D01*
X159500000Y-92820000D02*
X158530000Y-92820000D01*
X158500000Y-92850000D02*
X157280000Y-92850000D01*
X158530000Y-92820000D02*
X158500000Y-92850000D01*
D45*
%TO.N,Net-(U103-CLK)*%
X116080000Y-39450000D02*
X116040000Y-39490000D01*
X117902500Y-39450000D02*
X116080000Y-39450000D01*
D44*
%TO.N,Net-(J105-Pin_3)*%
X110470000Y-91210000D02*
X110000000Y-91680000D01*
X110470000Y-90250000D02*
X110470000Y-91210000D01*
%TD*%
%TA.AperFunction,Conductor*%
%TO.N,Net-(D102-A)*%
G36*
X133415677Y-40419685D02*
G01*
X133436319Y-40436319D01*
X134400000Y-41400000D01*
X134948638Y-41400000D01*
X135015677Y-41419685D01*
X135036319Y-41436319D01*
X135163681Y-41563681D01*
X135197166Y-41625004D01*
X135200000Y-41651362D01*
X135200000Y-42748638D01*
X135180315Y-42815677D01*
X135163681Y-42836319D01*
X135036319Y-42963681D01*
X134974996Y-42997166D01*
X134948638Y-43000000D01*
X133251362Y-43000000D01*
X133184323Y-42980315D01*
X133163681Y-42963681D01*
X132200000Y-42000000D01*
X130324000Y-42000000D01*
X130256961Y-41980315D01*
X130211206Y-41927511D01*
X130200000Y-41876000D01*
X130200000Y-40651362D01*
X130219685Y-40584323D01*
X130236319Y-40563681D01*
X130363681Y-40436319D01*
X130425004Y-40402834D01*
X130451362Y-40400000D01*
X133348638Y-40400000D01*
X133415677Y-40419685D01*
G37*
%TD.AperFunction*%
%TD*%
%TA.AperFunction,Conductor*%
%TO.N,/+4V5_REG*%
G36*
X135077539Y-89619685D02*
G01*
X135123294Y-89672489D01*
X135134500Y-89724000D01*
X135134500Y-90968260D01*
X135144426Y-91036392D01*
X135187400Y-91124296D01*
X135200000Y-91178757D01*
X135200000Y-91948638D01*
X135180315Y-92015677D01*
X135163681Y-92036319D01*
X135000000Y-92199999D01*
X135000000Y-94148637D01*
X134980315Y-94215676D01*
X134963681Y-94236318D01*
X134600000Y-94599999D01*
X134600000Y-95148638D01*
X134580315Y-95215677D01*
X134563681Y-95236319D01*
X134200000Y-95599999D01*
X134200000Y-95600000D01*
X134200000Y-97400000D01*
X134600000Y-97800000D01*
X137200000Y-97800000D01*
X137563681Y-97436318D01*
X137625004Y-97402834D01*
X137651362Y-97400000D01*
X139148638Y-97400000D01*
X139215677Y-97419685D01*
X139236319Y-97436319D01*
X139563681Y-97763681D01*
X139597166Y-97825004D01*
X139600000Y-97851362D01*
X139600000Y-99748638D01*
X139580315Y-99815677D01*
X139563681Y-99836319D01*
X139236319Y-100163681D01*
X139174996Y-100197166D01*
X139148638Y-100200000D01*
X137651362Y-100200000D01*
X137584323Y-100180315D01*
X137563681Y-100163681D01*
X137200000Y-99800000D01*
X130000000Y-99800000D01*
X129999999Y-99800000D01*
X129599999Y-100200000D01*
X129600000Y-104948638D01*
X129580315Y-105015677D01*
X129563681Y-105036319D01*
X129236319Y-105363681D01*
X129174996Y-105397166D01*
X129148638Y-105400000D01*
X126851362Y-105400000D01*
X126784323Y-105380315D01*
X126763681Y-105363681D01*
X126436319Y-105036319D01*
X126402834Y-104974996D01*
X126400000Y-104948638D01*
X126400000Y-97651362D01*
X126419685Y-97584323D01*
X126436319Y-97563681D01*
X126763681Y-97236319D01*
X126825004Y-97202834D01*
X126851362Y-97200000D01*
X132200000Y-97200000D01*
X132600000Y-96800000D01*
X132600000Y-90451358D01*
X132619684Y-90384323D01*
X132636313Y-90363686D01*
X133363681Y-89636318D01*
X133425004Y-89602834D01*
X133451362Y-89600000D01*
X135010500Y-89600000D01*
X135077539Y-89619685D01*
G37*
%TD.AperFunction*%
%TD*%
%TA.AperFunction,Conductor*%
%TO.N,GND*%
G36*
X168943039Y-73019685D02*
G01*
X168988794Y-73072489D01*
X169000000Y-73124000D01*
X169000000Y-75376000D01*
X168980315Y-75443039D01*
X168927511Y-75488794D01*
X168876000Y-75500000D01*
X166624000Y-75500000D01*
X166556961Y-75480315D01*
X166511206Y-75427511D01*
X166500000Y-75376000D01*
X166500000Y-73124000D01*
X166519685Y-73056961D01*
X166572489Y-73011206D01*
X166624000Y-73000000D01*
X168876000Y-73000000D01*
X168943039Y-73019685D01*
G37*
%TD.AperFunction*%
%TD*%
%TA.AperFunction,Conductor*%
%TO.N,Net-(J106-Pin_3)*%
G36*
X106765677Y-54019685D02*
G01*
X106786319Y-54036319D01*
X106963681Y-54213681D01*
X106997166Y-54275004D01*
X107000000Y-54301361D01*
X107000000Y-59000000D01*
X107750000Y-59750000D01*
X115698638Y-59750000D01*
X115765677Y-59769685D01*
X115786319Y-59786319D01*
X115963681Y-59963681D01*
X115997166Y-60025004D01*
X116000000Y-60051362D01*
X116000000Y-60698638D01*
X115980315Y-60765677D01*
X115963681Y-60786319D01*
X115786319Y-60963681D01*
X115724996Y-60997166D01*
X115698638Y-61000000D01*
X106551362Y-61000000D01*
X106484323Y-60980315D01*
X106463681Y-60963681D01*
X105036319Y-59536318D01*
X105002834Y-59474995D01*
X105000000Y-59448637D01*
X105000000Y-54301362D01*
X105019685Y-54234323D01*
X105036319Y-54213681D01*
X105213681Y-54036319D01*
X105275004Y-54002834D01*
X105301362Y-54000000D01*
X106698638Y-54000000D01*
X106765677Y-54019685D01*
G37*
%TD.AperFunction*%
%TD*%
%TA.AperFunction,Conductor*%
%TO.N,Net-(J101-Pin_1)*%
G36*
X103015677Y-40019685D02*
G01*
X103036319Y-40036319D01*
X103463681Y-40463681D01*
X103497166Y-40525004D01*
X103500000Y-40551362D01*
X103500000Y-44448638D01*
X103480315Y-44515677D01*
X103463681Y-44536319D01*
X103036319Y-44963681D01*
X102974996Y-44997166D01*
X102948638Y-45000000D01*
X100499999Y-45000000D01*
X100000000Y-45499999D01*
X100000000Y-45500000D01*
X100000000Y-51250000D01*
X100500000Y-51750000D01*
X105000000Y-51750000D01*
X105213680Y-51536318D01*
X105275004Y-51502834D01*
X105301362Y-51500000D01*
X106698638Y-51500000D01*
X106765677Y-51519685D01*
X106786319Y-51536319D01*
X107213681Y-51963681D01*
X107247166Y-52025004D01*
X107250000Y-52051362D01*
X107250000Y-52948638D01*
X107230315Y-53015677D01*
X107213681Y-53036319D01*
X106786319Y-53463681D01*
X106724996Y-53497166D01*
X106698638Y-53500000D01*
X105301362Y-53500000D01*
X105234323Y-53480315D01*
X105213681Y-53463681D01*
X105000000Y-53250000D01*
X100500000Y-53250000D01*
X100499999Y-53250000D01*
X100036319Y-53713681D01*
X99974996Y-53747166D01*
X99948638Y-53750000D01*
X98051362Y-53750000D01*
X97984323Y-53730315D01*
X97963681Y-53713681D01*
X97536319Y-53286319D01*
X97502834Y-53224996D01*
X97500000Y-53198638D01*
X97500000Y-51801361D01*
X97519685Y-51734322D01*
X97536314Y-51713685D01*
X98000000Y-51250000D01*
X98000000Y-45500000D01*
X97500000Y-45000000D01*
X94801362Y-45000000D01*
X94734323Y-44980315D01*
X94713681Y-44963681D01*
X94286319Y-44536319D01*
X94252834Y-44474996D01*
X94250000Y-44448638D01*
X94250000Y-40551361D01*
X94269685Y-40484322D01*
X94286314Y-40463685D01*
X94713681Y-40036318D01*
X94775004Y-40002834D01*
X94801362Y-40000000D01*
X102948638Y-40000000D01*
X103015677Y-40019685D01*
G37*
%TD.AperFunction*%
%TD*%
%TA.AperFunction,Conductor*%
%TO.N,Net-(J107-In)*%
G36*
X124765677Y-37519685D02*
G01*
X124786319Y-37536319D01*
X125213682Y-37963682D01*
X125247166Y-38025003D01*
X125250000Y-38051361D01*
X125250000Y-38952416D01*
X125230315Y-39019455D01*
X125218170Y-39035366D01*
X124836942Y-39458953D01*
X124777465Y-39495613D01*
X124744775Y-39500000D01*
X122057032Y-39500000D01*
X121989993Y-39480315D01*
X121962884Y-39456698D01*
X121962883Y-39456697D01*
X121400000Y-38800000D01*
X121399999Y-38800000D01*
X120978052Y-38800000D01*
X120969772Y-38799445D01*
X120887593Y-38788384D01*
X120846436Y-38782844D01*
X120846434Y-38782844D01*
X120776658Y-38786406D01*
X120744704Y-38792678D01*
X120720822Y-38795000D01*
X119627925Y-38795000D01*
X119622141Y-38794729D01*
X119607452Y-38793352D01*
X119601310Y-38792776D01*
X119601312Y-38792776D01*
X119588807Y-38792183D01*
X119573181Y-38791442D01*
X119573179Y-38791442D01*
X119573176Y-38791442D01*
X119566029Y-38791929D01*
X119566009Y-38791646D01*
X119555336Y-38792625D01*
X119530180Y-38792613D01*
X119529871Y-38792613D01*
X119529870Y-38792613D01*
X119529860Y-38792613D01*
X119527967Y-38792674D01*
X119460332Y-38775144D01*
X119412911Y-38723831D01*
X119400000Y-38668737D01*
X119400000Y-38328298D01*
X119419685Y-38261259D01*
X119472489Y-38215504D01*
X119532748Y-38204607D01*
X119551059Y-38205902D01*
X119551059Y-38205901D01*
X119582935Y-38208156D01*
X119595719Y-38207229D01*
X119601300Y-38207223D01*
X119601311Y-38207224D01*
X119622141Y-38205270D01*
X119627926Y-38205000D01*
X120719425Y-38205000D01*
X120743925Y-38207444D01*
X120773560Y-38213418D01*
X120840869Y-38217541D01*
X120840880Y-38217540D01*
X120840887Y-38217541D01*
X120888603Y-38215893D01*
X120899211Y-38215527D01*
X120928139Y-38206100D01*
X120966555Y-38200000D01*
X121399999Y-38200000D01*
X121400000Y-38200000D01*
X121962884Y-37543301D01*
X122021459Y-37505212D01*
X122057032Y-37500000D01*
X124698638Y-37500000D01*
X124765677Y-37519685D01*
G37*
%TD.AperFunction*%
%TD*%
%TA.AperFunction,Conductor*%
%TO.N,Net-(U103-VD2)*%
G36*
X120920870Y-39120870D02*
G01*
X122200000Y-40400000D01*
X122800000Y-40400000D01*
X124748638Y-40400000D01*
X124815677Y-40419685D01*
X124836319Y-40436319D01*
X124963681Y-40563681D01*
X124997166Y-40625004D01*
X125000000Y-40651362D01*
X125000000Y-41548638D01*
X124980315Y-41615677D01*
X124963681Y-41636319D01*
X124836319Y-41763681D01*
X124774996Y-41797166D01*
X124748638Y-41800000D01*
X122251362Y-41800000D01*
X122184323Y-41780315D01*
X122163681Y-41763681D01*
X122011911Y-41611911D01*
X121990760Y-41583657D01*
X121981813Y-41567272D01*
X121967864Y-41548638D01*
X121929702Y-41497660D01*
X121929697Y-41497655D01*
X121929692Y-41497649D01*
X121496547Y-41064505D01*
X121496546Y-41064505D01*
X121484380Y-41053577D01*
X121484381Y-41053577D01*
X121457366Y-41031808D01*
X121451827Y-41027448D01*
X121419777Y-41011151D01*
X121388301Y-40988301D01*
X120800000Y-40400000D01*
X119651362Y-40400000D01*
X119584323Y-40380315D01*
X119563681Y-40363681D01*
X119436319Y-40236319D01*
X119402834Y-40174996D01*
X119400000Y-40148638D01*
X119400000Y-39251362D01*
X119419685Y-39184323D01*
X119436312Y-39163687D01*
X119468403Y-39131596D01*
X119529722Y-39098113D01*
X119572676Y-39098134D01*
X119572788Y-39096942D01*
X119610730Y-39100500D01*
X119610734Y-39100500D01*
X120744270Y-39100500D01*
X120774693Y-39097647D01*
X120774694Y-39097646D01*
X120774699Y-39097646D01*
X120792235Y-39091509D01*
X120862011Y-39087947D01*
X120920870Y-39120870D01*
G37*
%TD.AperFunction*%
%TD*%
%TA.AperFunction,Conductor*%
%TO.N,Net-(D101-A)*%
G36*
X135015677Y-34019685D02*
G01*
X135036319Y-34036319D01*
X135163681Y-34163681D01*
X135197166Y-34225004D01*
X135200000Y-34251362D01*
X135200000Y-35348638D01*
X135180315Y-35415677D01*
X135163681Y-35436319D01*
X135036319Y-35563681D01*
X134974996Y-35597166D01*
X134948638Y-35600000D01*
X134399999Y-35600000D01*
X133436319Y-36563681D01*
X133374996Y-36597166D01*
X133348638Y-36600000D01*
X130451362Y-36600000D01*
X130384323Y-36580315D01*
X130363681Y-36563681D01*
X130236319Y-36436319D01*
X130202834Y-36374996D01*
X130200000Y-36348638D01*
X130200000Y-35124000D01*
X130219685Y-35056961D01*
X130272489Y-35011206D01*
X130324000Y-35000000D01*
X132200000Y-35000000D01*
X133163681Y-34036318D01*
X133225004Y-34002834D01*
X133251362Y-34000000D01*
X134948638Y-34000000D01*
X135015677Y-34019685D01*
G37*
%TD.AperFunction*%
%TD*%
%TA.AperFunction,Conductor*%
%TO.N,Net-(J116-In)*%
G36*
X163615677Y-90019685D02*
G01*
X163636319Y-90036319D01*
X163963682Y-90363682D01*
X163997166Y-90425003D01*
X164000000Y-90451361D01*
X164000000Y-94548637D01*
X163980315Y-94615676D01*
X163963681Y-94636318D01*
X163400000Y-95199999D01*
X163400000Y-97600000D01*
X163763681Y-97963681D01*
X163797166Y-98025004D01*
X163800000Y-98051362D01*
X163800000Y-99548638D01*
X163780315Y-99615677D01*
X163763681Y-99636319D01*
X163436319Y-99963681D01*
X163374996Y-99997166D01*
X163348638Y-100000000D01*
X161651362Y-100000000D01*
X161584323Y-99980315D01*
X161563681Y-99963681D01*
X161200000Y-99600000D01*
X156600000Y-99600000D01*
X153600000Y-99600000D01*
X153599999Y-99600000D01*
X153200000Y-99999999D01*
X153200000Y-104548637D01*
X153180315Y-104615676D01*
X153163681Y-104636318D01*
X152836319Y-104963681D01*
X152774996Y-104997166D01*
X152748638Y-105000000D01*
X151051362Y-105000000D01*
X150984323Y-104980315D01*
X150963681Y-104963681D01*
X150636319Y-104636319D01*
X150602834Y-104574996D01*
X150600000Y-104548638D01*
X150600000Y-98051362D01*
X150619685Y-97984323D01*
X150636319Y-97963681D01*
X150963681Y-97636319D01*
X151025004Y-97602834D01*
X151051362Y-97600000D01*
X153148638Y-97600000D01*
X153215677Y-97619685D01*
X153236319Y-97636319D01*
X153600000Y-98000000D01*
X161200000Y-98000000D01*
X161600000Y-97600000D01*
X161600000Y-95051361D01*
X161619685Y-94984323D01*
X161636319Y-94963681D01*
X162000000Y-94600000D01*
X162400000Y-94200000D01*
X162400000Y-91800000D01*
X162000000Y-91400000D01*
X160651362Y-91400000D01*
X160584323Y-91380315D01*
X160563681Y-91363681D01*
X160436319Y-91236319D01*
X160402834Y-91174996D01*
X160400000Y-91148638D01*
X160400000Y-90329499D01*
X160419685Y-90262460D01*
X160472489Y-90216705D01*
X160524000Y-90205499D01*
X161214675Y-90205499D01*
X161230341Y-90202382D01*
X161254532Y-90200000D01*
X162000000Y-90200000D01*
X162163681Y-90036318D01*
X162225004Y-90002834D01*
X162251362Y-90000000D01*
X163548638Y-90000000D01*
X163615677Y-90019685D01*
G37*
%TD.AperFunction*%
%TD*%
%TA.AperFunction,Conductor*%
%TO.N,Net-(J114-Pin_3)*%
G36*
X143615677Y-38019685D02*
G01*
X143636319Y-38036319D01*
X143763681Y-38163681D01*
X143797166Y-38225004D01*
X143800000Y-38251362D01*
X143800000Y-43200000D01*
X144200000Y-43600000D01*
X146148638Y-43600000D01*
X146215677Y-43619685D01*
X146236319Y-43636319D01*
X146763682Y-44163682D01*
X146797166Y-44225003D01*
X146800000Y-44251361D01*
X146800000Y-46348638D01*
X146780315Y-46415677D01*
X146763681Y-46436319D01*
X146236319Y-46963681D01*
X146174996Y-46997166D01*
X146148638Y-47000000D01*
X142651362Y-47000000D01*
X142584323Y-46980315D01*
X142563681Y-46963681D01*
X142036319Y-46436319D01*
X142002834Y-46374996D01*
X142000000Y-46348638D01*
X142000000Y-40558717D01*
X142000531Y-40550616D01*
X142007195Y-40500000D01*
X142007195Y-40499999D01*
X142000531Y-40449383D01*
X142000000Y-40441281D01*
X142000000Y-39758717D01*
X142000531Y-39750616D01*
X142007195Y-39700000D01*
X142007195Y-39699999D01*
X142000531Y-39649383D01*
X142000000Y-39641281D01*
X142000000Y-39531269D01*
X142010565Y-39481184D01*
X142037585Y-39419991D01*
X142040500Y-39394865D01*
X142040499Y-38655136D01*
X142040497Y-38655117D01*
X142037586Y-38630012D01*
X142037585Y-38630010D01*
X142037585Y-38630009D01*
X142010566Y-38568816D01*
X142000000Y-38518730D01*
X142000000Y-38508715D01*
X142000531Y-38500613D01*
X142007195Y-38449999D01*
X142000531Y-38399383D01*
X142000000Y-38391281D01*
X142000000Y-38381269D01*
X142010565Y-38331183D01*
X142037585Y-38269991D01*
X142040500Y-38244865D01*
X142040499Y-38210861D01*
X142060182Y-38143825D01*
X142076814Y-38123185D01*
X142120251Y-38079748D01*
X142163683Y-38036318D01*
X142225006Y-38002833D01*
X142251363Y-38000000D01*
X143548638Y-38000000D01*
X143615677Y-38019685D01*
G37*
%TD.AperFunction*%
%TD*%
%TA.AperFunction,Conductor*%
%TO.N,Net-(U103-VD1)*%
G36*
X124815677Y-35219685D02*
G01*
X124836319Y-35236319D01*
X124963681Y-35363681D01*
X124997166Y-35425004D01*
X125000000Y-35451362D01*
X125000000Y-36348638D01*
X124980315Y-36415677D01*
X124963681Y-36436319D01*
X124836319Y-36563681D01*
X124774996Y-36597166D01*
X124748638Y-36600000D01*
X122199999Y-36600000D01*
X120920870Y-37879128D01*
X120859547Y-37912613D01*
X120792238Y-37908490D01*
X120774699Y-37902353D01*
X120744270Y-37899500D01*
X120744266Y-37899500D01*
X119610734Y-37899500D01*
X119610730Y-37899500D01*
X119572788Y-37903058D01*
X119572610Y-37901163D01*
X119512840Y-37896936D01*
X119468401Y-37868401D01*
X119436319Y-37836319D01*
X119402834Y-37774996D01*
X119400000Y-37748638D01*
X119400000Y-36851362D01*
X119419685Y-36784323D01*
X119436319Y-36763681D01*
X119563681Y-36636319D01*
X119625004Y-36602834D01*
X119651362Y-36600000D01*
X120400000Y-36600000D01*
X121763681Y-35236318D01*
X121825004Y-35202834D01*
X121851362Y-35200000D01*
X124748638Y-35200000D01*
X124815677Y-35219685D01*
G37*
%TD.AperFunction*%
%TD*%
%TA.AperFunction,Conductor*%
%TO.N,Net-(J114-Pin_1)*%
G36*
X146415677Y-50219685D02*
G01*
X146436319Y-50236319D01*
X146563681Y-50363681D01*
X146597166Y-50425004D01*
X146600000Y-50451362D01*
X146600000Y-56348637D01*
X146580315Y-56415676D01*
X146563682Y-56436318D01*
X146436317Y-56563682D01*
X146374997Y-56597166D01*
X146348638Y-56600000D01*
X143251362Y-56600000D01*
X143184323Y-56580315D01*
X143163681Y-56563681D01*
X143036319Y-56436319D01*
X143002834Y-56374996D01*
X143000000Y-56348638D01*
X143000000Y-55451362D01*
X143019685Y-55384323D01*
X143036319Y-55363681D01*
X143163681Y-55236319D01*
X143225004Y-55202834D01*
X143251362Y-55200000D01*
X144000000Y-55200000D01*
X144400000Y-54800000D01*
X144400000Y-50451362D01*
X144419685Y-50384323D01*
X144436319Y-50363681D01*
X144563681Y-50236319D01*
X144625004Y-50202834D01*
X144651362Y-50200000D01*
X146348638Y-50200000D01*
X146415677Y-50219685D01*
G37*
%TD.AperFunction*%
%TD*%
%TA.AperFunction,Conductor*%
%TO.N,Net-(J107-In)*%
G36*
X121265677Y-41269685D02*
G01*
X121286319Y-41286319D01*
X121713681Y-41713681D01*
X121747166Y-41775004D01*
X121750000Y-41801362D01*
X121750000Y-45448637D01*
X121730315Y-45515676D01*
X121713681Y-45536318D01*
X121536319Y-45713681D01*
X121474996Y-45747166D01*
X121448638Y-45750000D01*
X119124000Y-45750000D01*
X119056961Y-45730315D01*
X119011206Y-45677511D01*
X119000000Y-45626000D01*
X119000000Y-44301362D01*
X119019685Y-44234323D01*
X119036319Y-44213681D01*
X119036318Y-44213680D01*
X119750000Y-43500000D01*
X119750000Y-41551362D01*
X119769685Y-41484323D01*
X119786319Y-41463681D01*
X119963681Y-41286319D01*
X120025004Y-41252834D01*
X120051362Y-41250000D01*
X121198638Y-41250000D01*
X121265677Y-41269685D01*
G37*
%TD.AperFunction*%
%TD*%
%TA.AperFunction,Conductor*%
%TO.N,GND*%
G36*
X143615677Y-33819685D02*
G01*
X143636319Y-33836319D01*
X143963681Y-34163681D01*
X143997166Y-34225004D01*
X144000000Y-34251362D01*
X144000000Y-36748638D01*
X143980315Y-36815677D01*
X143963681Y-36836319D01*
X143636319Y-37163681D01*
X143574996Y-37197166D01*
X143548638Y-37200000D01*
X141999999Y-37200000D01*
X141800000Y-37399999D01*
X141800000Y-37963251D01*
X141786533Y-38019452D01*
X141767056Y-38057756D01*
X141767054Y-38057762D01*
X141747375Y-38124786D01*
X141747371Y-38124802D01*
X141739964Y-38176328D01*
X141731856Y-38204618D01*
X141732245Y-38204766D01*
X141731096Y-38207782D01*
X141711643Y-38268126D01*
X141711640Y-38268140D01*
X141701079Y-38318209D01*
X141694500Y-38381273D01*
X141694500Y-38396278D01*
X141694827Y-38406272D01*
X141696012Y-38424352D01*
X141696993Y-38434316D01*
X141696931Y-38433842D01*
X141696934Y-38466132D01*
X141696994Y-38465670D01*
X141696012Y-38475644D01*
X141694827Y-38493724D01*
X141694500Y-38503716D01*
X141694500Y-38518730D01*
X141701079Y-38581790D01*
X141711645Y-38631876D01*
X141711646Y-38631880D01*
X141711647Y-38631883D01*
X141729018Y-38685766D01*
X141734999Y-38723813D01*
X141734999Y-39326186D01*
X141729018Y-39364233D01*
X141711640Y-39418135D01*
X141711640Y-39418136D01*
X141701079Y-39468204D01*
X141701078Y-39468210D01*
X141694500Y-39531273D01*
X141694500Y-39646278D01*
X141694827Y-39656272D01*
X141696012Y-39674351D01*
X141696995Y-39684330D01*
X141696935Y-39683875D01*
X141696937Y-39716113D01*
X141696995Y-39715665D01*
X141696012Y-39725647D01*
X141694827Y-39743723D01*
X141694500Y-39753719D01*
X141694500Y-40446278D01*
X141694827Y-40456272D01*
X141696012Y-40474351D01*
X141696995Y-40484330D01*
X141696935Y-40483875D01*
X141696937Y-40516113D01*
X141696995Y-40515665D01*
X141696012Y-40525647D01*
X141694827Y-40543723D01*
X141694500Y-40553719D01*
X141694500Y-42654138D01*
X141674815Y-42721177D01*
X141658181Y-42741819D01*
X141236319Y-43163681D01*
X141174996Y-43197166D01*
X141148638Y-43200000D01*
X137799999Y-43200000D01*
X136451362Y-43200000D01*
X136384323Y-43180315D01*
X136363681Y-43163681D01*
X136036319Y-42836319D01*
X136002834Y-42774996D01*
X136000000Y-42748638D01*
X136000000Y-42051361D01*
X136019685Y-41984322D01*
X136036314Y-41963685D01*
X136400000Y-41600000D01*
X136400000Y-40651360D01*
X136419685Y-40584322D01*
X136436314Y-40563685D01*
X136563682Y-40436317D01*
X136625004Y-40402834D01*
X136651362Y-40400000D01*
X140600000Y-40400000D01*
X141000000Y-40000000D01*
X141000000Y-39273353D01*
X141019511Y-39206585D01*
X141022548Y-39201831D01*
X141022553Y-39201825D01*
X141073439Y-39101749D01*
X141093124Y-39034710D01*
X141105500Y-38948638D01*
X141105500Y-38503718D01*
X141105173Y-38493724D01*
X141103988Y-38475646D01*
X141103011Y-38465724D01*
X141103080Y-38466244D01*
X141103080Y-38433754D01*
X141103011Y-38434275D01*
X141103988Y-38424352D01*
X141105173Y-38406272D01*
X141105500Y-38396279D01*
X141105500Y-38043182D01*
X141105500Y-38043180D01*
X141104624Y-38026838D01*
X141100915Y-37992345D01*
X141100080Y-37985340D01*
X141092882Y-37963251D01*
X141065299Y-37878598D01*
X141065295Y-37878588D01*
X141031815Y-37817275D01*
X141031814Y-37817273D01*
X141031812Y-37817270D01*
X141024731Y-37807811D01*
X141000316Y-37742348D01*
X141000000Y-37733503D01*
X141000000Y-34251362D01*
X141019685Y-34184323D01*
X141036319Y-34163681D01*
X141363681Y-33836319D01*
X141425004Y-33802834D01*
X141451362Y-33800000D01*
X143548638Y-33800000D01*
X143615677Y-33819685D01*
G37*
%TD.AperFunction*%
%TD*%
%TA.AperFunction,Conductor*%
%TO.N,Net-(J106-Pin_1)*%
G36*
X116765677Y-44019685D02*
G01*
X116786319Y-44036319D01*
X117000000Y-44250000D01*
X117448638Y-44250000D01*
X117515677Y-44269685D01*
X117536319Y-44286319D01*
X117703181Y-44453181D01*
X117736666Y-44514504D01*
X117739500Y-44540861D01*
X117739500Y-44644856D01*
X117739502Y-44644881D01*
X117742413Y-44669986D01*
X117744864Y-44678992D01*
X117742869Y-44679534D01*
X117750000Y-44713327D01*
X117750000Y-44791281D01*
X117749469Y-44799383D01*
X117742805Y-44849999D01*
X117742805Y-44850000D01*
X117749469Y-44900616D01*
X117750000Y-44908717D01*
X117750000Y-44986673D01*
X117742873Y-45020467D01*
X117744864Y-45021009D01*
X117742415Y-45030009D01*
X117739500Y-45055131D01*
X117739500Y-45209137D01*
X117719815Y-45276176D01*
X117703182Y-45296817D01*
X117536317Y-45463682D01*
X117474996Y-45497166D01*
X117448638Y-45500000D01*
X116999999Y-45500000D01*
X116786319Y-45713681D01*
X116724996Y-45747166D01*
X116698638Y-45750000D01*
X109000000Y-45750000D01*
X107000000Y-47499999D01*
X107000000Y-47500000D01*
X107000000Y-50698638D01*
X106980315Y-50765677D01*
X106963681Y-50786319D01*
X106786319Y-50963681D01*
X106724996Y-50997166D01*
X106698638Y-51000000D01*
X105301362Y-51000000D01*
X105234323Y-50980315D01*
X105213681Y-50963681D01*
X105036319Y-50786319D01*
X105002834Y-50724996D01*
X105000000Y-50698638D01*
X105000000Y-46805224D01*
X105019685Y-46738185D01*
X105041045Y-46713059D01*
X107500000Y-44500000D01*
X107500007Y-44499993D01*
X107500008Y-44499993D01*
X107963681Y-44036319D01*
X108025004Y-44002834D01*
X108051362Y-44000000D01*
X116698638Y-44000000D01*
X116765677Y-44019685D01*
G37*
%TD.AperFunction*%
%TD*%
%TA.AperFunction,Conductor*%
%TO.N,GND*%
G36*
X110943039Y-77019685D02*
G01*
X110988794Y-77072489D01*
X111000000Y-77124000D01*
X111000000Y-84850500D01*
X110980315Y-84917539D01*
X110927511Y-84963294D01*
X110876005Y-84974500D01*
X110856868Y-84974500D01*
X110846341Y-84975885D01*
X110809455Y-84980741D01*
X110809453Y-84980742D01*
X110809451Y-84980742D01*
X110705420Y-85029253D01*
X110624253Y-85110420D01*
X110575740Y-85214456D01*
X110569500Y-85261860D01*
X110569500Y-86638132D01*
X110569501Y-86638138D01*
X110575741Y-86685545D01*
X110624253Y-86789579D01*
X110705421Y-86870747D01*
X110809455Y-86919259D01*
X110856861Y-86925500D01*
X110875998Y-86925499D01*
X110943035Y-86945181D01*
X110961208Y-86966153D01*
X110963681Y-86963681D01*
X111000000Y-87000000D01*
X111215435Y-87000000D01*
X111278798Y-87018605D01*
X111278835Y-87018533D01*
X111279223Y-87018730D01*
X111282474Y-87019685D01*
X111286732Y-87022548D01*
X111286740Y-87022552D01*
X111286741Y-87022553D01*
X111386817Y-87073439D01*
X111453856Y-87093124D01*
X111539928Y-87105500D01*
X111539931Y-87105500D01*
X111911682Y-87105500D01*
X111920909Y-87105222D01*
X111922711Y-87105113D01*
X111926451Y-87105000D01*
X112073550Y-87105000D01*
X112077290Y-87105113D01*
X112079092Y-87105222D01*
X112088318Y-87105500D01*
X112956818Y-87105500D01*
X112956820Y-87105500D01*
X112973162Y-87104624D01*
X113007655Y-87100915D01*
X113014660Y-87100080D01*
X113121407Y-87065297D01*
X113182730Y-87031812D01*
X113192183Y-87024735D01*
X113257647Y-87000316D01*
X113266497Y-87000000D01*
X117948638Y-87000000D01*
X118015677Y-87019685D01*
X118036319Y-87036319D01*
X118963681Y-87963681D01*
X118997166Y-88025004D01*
X119000000Y-88051362D01*
X119000000Y-102448638D01*
X118980315Y-102515677D01*
X118963681Y-102536319D01*
X118036319Y-103463681D01*
X117974996Y-103497166D01*
X117948638Y-103500000D01*
X110051362Y-103500000D01*
X109984323Y-103480315D01*
X109963681Y-103463681D01*
X107036319Y-100536319D01*
X107002834Y-100474996D01*
X107000000Y-100448638D01*
X107000000Y-99979500D01*
X107019685Y-99912461D01*
X107072489Y-99866706D01*
X107124000Y-99855500D01*
X112442806Y-99855500D01*
X112509845Y-99875185D01*
X112530486Y-99891818D01*
X112987854Y-100349186D01*
X112987861Y-100349192D01*
X112987859Y-100349191D01*
X112998044Y-100358339D01*
X112998045Y-100358340D01*
X113024003Y-100379257D01*
X113024007Y-100379260D01*
X113112338Y-100425465D01*
X113179377Y-100445150D01*
X113179381Y-100445150D01*
X113179383Y-100445151D01*
X113191014Y-100446823D01*
X113251362Y-100455500D01*
X113251363Y-100455500D01*
X114755480Y-100455500D01*
X114755481Y-100455500D01*
X114757758Y-100455377D01*
X114769153Y-100454767D01*
X114769153Y-100454766D01*
X114802310Y-100451202D01*
X114897444Y-100421413D01*
X114958767Y-100387928D01*
X115016985Y-100344347D01*
X115549186Y-99812145D01*
X115549192Y-99812138D01*
X115549191Y-99812140D01*
X115558339Y-99801955D01*
X115558340Y-99801954D01*
X115570096Y-99787363D01*
X115579260Y-99775992D01*
X115625465Y-99687661D01*
X115645150Y-99620622D01*
X115655500Y-99548637D01*
X115655500Y-97844518D01*
X115654767Y-97830851D01*
X115654767Y-97830846D01*
X115654766Y-97830845D01*
X115651202Y-97797689D01*
X115621413Y-97702554D01*
X115613116Y-97687359D01*
X115587935Y-97641243D01*
X115587927Y-97641230D01*
X115544354Y-97583023D01*
X115544338Y-97583005D01*
X115091819Y-97130486D01*
X115058334Y-97069163D01*
X115055500Y-97042805D01*
X115055500Y-95757192D01*
X115075185Y-95690153D01*
X115091814Y-95669516D01*
X115349185Y-95412146D01*
X115349191Y-95412139D01*
X115349190Y-95412141D01*
X115358338Y-95401956D01*
X115358339Y-95401955D01*
X115376532Y-95379377D01*
X115379259Y-95375993D01*
X115425464Y-95287662D01*
X115445149Y-95220623D01*
X115455499Y-95148638D01*
X115455500Y-90644519D01*
X115454767Y-90630852D01*
X115454767Y-90630847D01*
X115454766Y-90630846D01*
X115451202Y-90597690D01*
X115421413Y-90502556D01*
X115387928Y-90441233D01*
X115344347Y-90383015D01*
X115212146Y-90250814D01*
X115212139Y-90250808D01*
X115212141Y-90250809D01*
X115201956Y-90241661D01*
X115201955Y-90241660D01*
X115175996Y-90220742D01*
X115175994Y-90220741D01*
X115175993Y-90220740D01*
X115087662Y-90174535D01*
X115087659Y-90174534D01*
X115020624Y-90154850D01*
X115020616Y-90154848D01*
X114948639Y-90144500D01*
X114948638Y-90144500D01*
X113757194Y-90144500D01*
X113690155Y-90124815D01*
X113669513Y-90108181D01*
X113491819Y-89930487D01*
X113458334Y-89869164D01*
X113455500Y-89842806D01*
X113455500Y-89524000D01*
X113449661Y-89469687D01*
X113438455Y-89418176D01*
X113431219Y-89391802D01*
X113418630Y-89369694D01*
X113381894Y-89305181D01*
X113381888Y-89305172D01*
X113336136Y-89252371D01*
X113303359Y-89220743D01*
X113215022Y-89174534D01*
X113215022Y-89174533D01*
X113147990Y-89154851D01*
X113147978Y-89154848D01*
X113076001Y-89144500D01*
X113076000Y-89144500D01*
X111990585Y-89144500D01*
X111920066Y-89154424D01*
X111854272Y-89173318D01*
X111854273Y-89173318D01*
X111813162Y-89189069D01*
X111813161Y-89189069D01*
X111733714Y-89249280D01*
X111733714Y-89249281D01*
X111687329Y-89301538D01*
X111660255Y-89338154D01*
X111660252Y-89338159D01*
X111648701Y-89369694D01*
X111629021Y-89400519D01*
X111630474Y-89401536D01*
X111624252Y-89410420D01*
X111582382Y-89500213D01*
X111536210Y-89552652D01*
X111469016Y-89571804D01*
X111402135Y-89551588D01*
X111357618Y-89500213D01*
X111319363Y-89418176D01*
X111315747Y-89410421D01*
X111234579Y-89329253D01*
X111130545Y-89280741D01*
X111130543Y-89280740D01*
X111130544Y-89280740D01*
X111083140Y-89274500D01*
X110856868Y-89274500D01*
X110846341Y-89275885D01*
X110809455Y-89280741D01*
X110809453Y-89280742D01*
X110809451Y-89280742D01*
X110772403Y-89298018D01*
X110703325Y-89308509D01*
X110667596Y-89298018D01*
X110630545Y-89280741D01*
X110630541Y-89280740D01*
X110583140Y-89274500D01*
X110356867Y-89274500D01*
X110341839Y-89276478D01*
X110309455Y-89280741D01*
X110309453Y-89280742D01*
X110309451Y-89280742D01*
X110205420Y-89329253D01*
X110124253Y-89410420D01*
X110075740Y-89514456D01*
X110069500Y-89561860D01*
X110069500Y-90938132D01*
X110069501Y-90938138D01*
X110075741Y-90985545D01*
X110075741Y-90985547D01*
X110076085Y-90988153D01*
X110065317Y-91057188D01*
X110018936Y-91109442D01*
X109969331Y-91127274D01*
X109855899Y-91142208D01*
X109855898Y-91142208D01*
X109721619Y-91197828D01*
X109606309Y-91286309D01*
X109517828Y-91401619D01*
X109462208Y-91535898D01*
X109462207Y-91535900D01*
X109443237Y-91679998D01*
X109443237Y-91680001D01*
X109462207Y-91824099D01*
X109462209Y-91824104D01*
X109517826Y-91958377D01*
X109517826Y-91958378D01*
X109517828Y-91958381D01*
X109517829Y-91958382D01*
X109606309Y-92073691D01*
X109666378Y-92119784D01*
X109683799Y-92133151D01*
X109725002Y-92189579D01*
X109729157Y-92259325D01*
X109694945Y-92320245D01*
X109637102Y-92350941D01*
X109637110Y-92350966D01*
X109636970Y-92351011D01*
X109633227Y-92352998D01*
X109627849Y-92353975D01*
X109627828Y-92353981D01*
X109517607Y-92410142D01*
X109517603Y-92410145D01*
X109444568Y-92483181D01*
X109383245Y-92516666D01*
X109356887Y-92519500D01*
X109193331Y-92519500D01*
X109146315Y-92507498D01*
X109145642Y-92509303D01*
X109002483Y-92455908D01*
X109002484Y-92455908D01*
X108942884Y-92449501D01*
X108942882Y-92449500D01*
X108942874Y-92449500D01*
X108942865Y-92449500D01*
X107897130Y-92449500D01*
X107897124Y-92449501D01*
X107837517Y-92455908D01*
X107702672Y-92506202D01*
X107702665Y-92506206D01*
X107587456Y-92592452D01*
X107587453Y-92592455D01*
X107501207Y-92707664D01*
X107501203Y-92707671D01*
X107450911Y-92842513D01*
X107450910Y-92842517D01*
X107444501Y-92902127D01*
X107444501Y-92902134D01*
X107444501Y-92902135D01*
X107444501Y-93497870D01*
X107444502Y-93497876D01*
X107450909Y-93557483D01*
X107501203Y-93692328D01*
X107501207Y-93692335D01*
X107587453Y-93807544D01*
X107587456Y-93807547D01*
X107702665Y-93893793D01*
X107702672Y-93893797D01*
X107837518Y-93944091D01*
X107837517Y-93944091D01*
X107844445Y-93944835D01*
X107897128Y-93950500D01*
X108942873Y-93950499D01*
X109002484Y-93944091D01*
X109137332Y-93893796D01*
X109252547Y-93807546D01*
X109338797Y-93692331D01*
X109389092Y-93557483D01*
X109395501Y-93497873D01*
X109395500Y-93469990D01*
X109415186Y-93402952D01*
X109467990Y-93357197D01*
X109537148Y-93347253D01*
X109575795Y-93359506D01*
X109627824Y-93386017D01*
X109627825Y-93386017D01*
X109627828Y-93386018D01*
X109662947Y-93391579D01*
X109719265Y-93400500D01*
X110120734Y-93400499D01*
X110120739Y-93400499D01*
X110120739Y-93400498D01*
X110166454Y-93393257D01*
X110212170Y-93386018D01*
X110212171Y-93386018D01*
X110212172Y-93386017D01*
X110212175Y-93386017D01*
X110322391Y-93329859D01*
X110346865Y-93305384D01*
X110408186Y-93271900D01*
X110477878Y-93276884D01*
X110506606Y-93292153D01*
X110507894Y-93293072D01*
X110507898Y-93293076D01*
X110507902Y-93293078D01*
X110507905Y-93293080D01*
X110583134Y-93329857D01*
X110623482Y-93349582D01*
X110698418Y-93360500D01*
X110698423Y-93360500D01*
X111141577Y-93360500D01*
X111141582Y-93360500D01*
X111216518Y-93349582D01*
X111306922Y-93305386D01*
X111332099Y-93293078D01*
X111332102Y-93293076D01*
X111423076Y-93202102D01*
X111423078Y-93202099D01*
X111451329Y-93144310D01*
X111479582Y-93086518D01*
X111490500Y-93011582D01*
X111490500Y-92668418D01*
X111479582Y-92593482D01*
X111477222Y-92588656D01*
X111423078Y-92477900D01*
X111423076Y-92477897D01*
X111356819Y-92411640D01*
X111323334Y-92350317D01*
X111320500Y-92323959D01*
X111320500Y-91684190D01*
X111340185Y-91617151D01*
X111392989Y-91571396D01*
X111462147Y-91561452D01*
X111525703Y-91590477D01*
X111562834Y-91647136D01*
X111578586Y-91697441D01*
X111578590Y-91697451D01*
X111612068Y-91758761D01*
X111612073Y-91758769D01*
X111655649Y-91816980D01*
X111655665Y-91816998D01*
X111797045Y-91958377D01*
X111987854Y-92149186D01*
X111987861Y-92149192D01*
X111987859Y-92149191D01*
X111998044Y-92158339D01*
X111998045Y-92158340D01*
X112024003Y-92179257D01*
X112024007Y-92179260D01*
X112112338Y-92225465D01*
X112179377Y-92245150D01*
X112179381Y-92245150D01*
X112179383Y-92245151D01*
X112191014Y-92246823D01*
X112251362Y-92255500D01*
X113042806Y-92255500D01*
X113109845Y-92275185D01*
X113130487Y-92291819D01*
X113308182Y-92469514D01*
X113341666Y-92530835D01*
X113344500Y-92557193D01*
X113344500Y-94842805D01*
X113324815Y-94909844D01*
X113308180Y-94930486D01*
X113050814Y-95187854D01*
X113041668Y-95198036D01*
X113041660Y-95198046D01*
X113041660Y-95198045D01*
X113020742Y-95224003D01*
X112974534Y-95312340D01*
X112954850Y-95379375D01*
X112954848Y-95379383D01*
X112944500Y-95451360D01*
X112944499Y-95451363D01*
X112944499Y-97042805D01*
X112924814Y-97109845D01*
X112908180Y-97130486D01*
X112530487Y-97508181D01*
X112469164Y-97541666D01*
X112442806Y-97544500D01*
X107124000Y-97544500D01*
X107056961Y-97524815D01*
X107011206Y-97472011D01*
X107000000Y-97420500D01*
X107000000Y-78051361D01*
X107019685Y-77984322D01*
X107036314Y-77963685D01*
X107963681Y-77036319D01*
X108025004Y-77002834D01*
X108051362Y-77000000D01*
X110876000Y-77000000D01*
X110943039Y-77019685D01*
G37*
%TD.AperFunction*%
%TD*%
%TA.AperFunction,Conductor*%
%TO.N,GND*%
G36*
X132943039Y-37269685D02*
G01*
X132988794Y-37322489D01*
X133000000Y-37374000D01*
X133000000Y-39626000D01*
X132980315Y-39693039D01*
X132927511Y-39738794D01*
X132876000Y-39750000D01*
X129524000Y-39750000D01*
X129456961Y-39730315D01*
X129411206Y-39677511D01*
X129400000Y-39626000D01*
X129400000Y-37374000D01*
X129419685Y-37306961D01*
X129472489Y-37261206D01*
X129524000Y-37250000D01*
X132876000Y-37250000D01*
X132943039Y-37269685D01*
G37*
%TD.AperFunction*%
%TD*%
%TA.AperFunction,Conductor*%
%TO.N,GND*%
G36*
X144015677Y-81519685D02*
G01*
X144036319Y-81536319D01*
X144963681Y-82463681D01*
X144997166Y-82525004D01*
X145000000Y-82551362D01*
X145000000Y-107948637D01*
X144980315Y-108015676D01*
X144963681Y-108036318D01*
X144036319Y-108963681D01*
X143974996Y-108997166D01*
X143948638Y-109000000D01*
X132551362Y-109000000D01*
X132484323Y-108980315D01*
X132463681Y-108963681D01*
X131536319Y-108036319D01*
X131502834Y-107974996D01*
X131500000Y-107948638D01*
X131500000Y-100179500D01*
X131519685Y-100112461D01*
X131572489Y-100066706D01*
X131624000Y-100055500D01*
X137042806Y-100055500D01*
X137109845Y-100075185D01*
X137130487Y-100091818D01*
X137387854Y-100349186D01*
X137387861Y-100349192D01*
X137387859Y-100349191D01*
X137398044Y-100358339D01*
X137398045Y-100358340D01*
X137424003Y-100379257D01*
X137424007Y-100379260D01*
X137512338Y-100425465D01*
X137579377Y-100445150D01*
X137579381Y-100445150D01*
X137579383Y-100445151D01*
X137591014Y-100446823D01*
X137651362Y-100455500D01*
X137651363Y-100455500D01*
X139155480Y-100455500D01*
X139155481Y-100455500D01*
X139157758Y-100455377D01*
X139169153Y-100454767D01*
X139169153Y-100454766D01*
X139202310Y-100451202D01*
X139297444Y-100421413D01*
X139358767Y-100387928D01*
X139416985Y-100344347D01*
X139749186Y-100012146D01*
X139749192Y-100012139D01*
X139749191Y-100012141D01*
X139758339Y-100001956D01*
X139758340Y-100001955D01*
X139770096Y-99987364D01*
X139779260Y-99975993D01*
X139825465Y-99887662D01*
X139845150Y-99820623D01*
X139855500Y-99748638D01*
X139855500Y-97844519D01*
X139854767Y-97830852D01*
X139854767Y-97830847D01*
X139854766Y-97830846D01*
X139851202Y-97797690D01*
X139821413Y-97702556D01*
X139787928Y-97641233D01*
X139744347Y-97583015D01*
X139744342Y-97583010D01*
X139744334Y-97583001D01*
X139549186Y-97387854D01*
X139412146Y-97250814D01*
X139412139Y-97250808D01*
X139412141Y-97250809D01*
X139401956Y-97241661D01*
X139401955Y-97241660D01*
X139375996Y-97220742D01*
X139375994Y-97220741D01*
X139375993Y-97220740D01*
X139287662Y-97174535D01*
X139287659Y-97174534D01*
X139220624Y-97154850D01*
X139220616Y-97154848D01*
X139148639Y-97144500D01*
X139148638Y-97144500D01*
X137644519Y-97144500D01*
X137642241Y-97144622D01*
X137630847Y-97145233D01*
X137630846Y-97145233D01*
X137616450Y-97146781D01*
X137597695Y-97148797D01*
X137597681Y-97148800D01*
X137502560Y-97178585D01*
X137502559Y-97178585D01*
X137441230Y-97212073D01*
X137383020Y-97255647D01*
X137383013Y-97255653D01*
X137308181Y-97330486D01*
X137130485Y-97508182D01*
X137069165Y-97541666D01*
X137042806Y-97544500D01*
X134757194Y-97544500D01*
X134690155Y-97524815D01*
X134669513Y-97508181D01*
X134491819Y-97330486D01*
X134458334Y-97269163D01*
X134455500Y-97242805D01*
X134455500Y-95757194D01*
X134475185Y-95690155D01*
X134491819Y-95669513D01*
X134491818Y-95669513D01*
X134749186Y-95412146D01*
X134749192Y-95412139D01*
X134749191Y-95412141D01*
X134758339Y-95401956D01*
X134758340Y-95401955D01*
X134770096Y-95387364D01*
X134779260Y-95375993D01*
X134825465Y-95287662D01*
X134845150Y-95220623D01*
X134855500Y-95148638D01*
X134855500Y-94757193D01*
X134875185Y-94690154D01*
X134891819Y-94669512D01*
X134891818Y-94669512D01*
X135149186Y-94412145D01*
X135149192Y-94412138D01*
X135149191Y-94412140D01*
X135158339Y-94401955D01*
X135158340Y-94401954D01*
X135166393Y-94391958D01*
X135179260Y-94375992D01*
X135219971Y-94298163D01*
X135268483Y-94247888D01*
X135336480Y-94231819D01*
X135378510Y-94243108D01*
X135378546Y-94243001D01*
X135380625Y-94243676D01*
X135386141Y-94245158D01*
X135387825Y-94246016D01*
X135387826Y-94246016D01*
X135387828Y-94246017D01*
X135422947Y-94251578D01*
X135479265Y-94260499D01*
X135820734Y-94260498D01*
X135820739Y-94260498D01*
X135820739Y-94260497D01*
X135866454Y-94253257D01*
X135912170Y-94246017D01*
X135912171Y-94246017D01*
X135912172Y-94246016D01*
X135912175Y-94246016D01*
X136022391Y-94189858D01*
X136109859Y-94102390D01*
X136166017Y-93992174D01*
X136166017Y-93992172D01*
X136166018Y-93992171D01*
X136166018Y-93992170D01*
X136169901Y-93967649D01*
X136180500Y-93900734D01*
X136180499Y-93499265D01*
X136180499Y-93499264D01*
X136180499Y-93499259D01*
X136166018Y-93407828D01*
X136166018Y-93407827D01*
X136166017Y-93407825D01*
X136166017Y-93407824D01*
X136116867Y-93311362D01*
X136103972Y-93242697D01*
X136130248Y-93177956D01*
X136187354Y-93137699D01*
X136257160Y-93134707D01*
X136288408Y-93149091D01*
X136288666Y-93148564D01*
X136409296Y-93207535D01*
X136413482Y-93209582D01*
X136488418Y-93220500D01*
X136488423Y-93220500D01*
X136831577Y-93220500D01*
X136831582Y-93220500D01*
X136906518Y-93209582D01*
X136971210Y-93177956D01*
X137022099Y-93153078D01*
X137022102Y-93153076D01*
X137113076Y-93062102D01*
X137113078Y-93062099D01*
X137143192Y-93000500D01*
X137169582Y-92946518D01*
X137180500Y-92871582D01*
X137180500Y-92428418D01*
X137169582Y-92353482D01*
X137143192Y-92299500D01*
X137113078Y-92237900D01*
X137113076Y-92237897D01*
X137022102Y-92146923D01*
X137022099Y-92146921D01*
X136906521Y-92090419D01*
X136906519Y-92090418D01*
X136906518Y-92090418D01*
X136831582Y-92079500D01*
X136488418Y-92079500D01*
X136413482Y-92090418D01*
X136413480Y-92090418D01*
X136413478Y-92090419D01*
X136297900Y-92146921D01*
X136297897Y-92146923D01*
X136257681Y-92187140D01*
X136196358Y-92220625D01*
X136126666Y-92215641D01*
X136082319Y-92187140D01*
X136042102Y-92146923D01*
X136005039Y-92128804D01*
X135953457Y-92081676D01*
X135935500Y-92017404D01*
X135935500Y-91404654D01*
X135955185Y-91337615D01*
X136007989Y-91291860D01*
X136077144Y-91281916D01*
X136101740Y-91285500D01*
X136101742Y-91285500D01*
X136368261Y-91285500D01*
X136392858Y-91281916D01*
X136436393Y-91275573D01*
X136541483Y-91224198D01*
X136624198Y-91141483D01*
X136675573Y-91036393D01*
X136685500Y-90968260D01*
X136685500Y-89651740D01*
X136675573Y-89583607D01*
X136624198Y-89478517D01*
X136624196Y-89478515D01*
X136624196Y-89478514D01*
X136541485Y-89395803D01*
X136436391Y-89344426D01*
X136368261Y-89334500D01*
X136368260Y-89334500D01*
X136101740Y-89334500D01*
X136101739Y-89334500D01*
X136033608Y-89344426D01*
X135991851Y-89364840D01*
X135964458Y-89378231D01*
X135895587Y-89389990D01*
X135855541Y-89378231D01*
X135786393Y-89344427D01*
X135786391Y-89344426D01*
X135718261Y-89334500D01*
X135718260Y-89334500D01*
X135451740Y-89334500D01*
X135451739Y-89334500D01*
X135383607Y-89344426D01*
X135383606Y-89344426D01*
X135314459Y-89378230D01*
X135245586Y-89389988D01*
X135205541Y-89378230D01*
X135136393Y-89344426D01*
X135068261Y-89334500D01*
X135068260Y-89334500D01*
X134801740Y-89334500D01*
X134801739Y-89334500D01*
X134741999Y-89343204D01*
X134724121Y-89344500D01*
X133444519Y-89344500D01*
X133442241Y-89344622D01*
X133430847Y-89345233D01*
X133430846Y-89345233D01*
X133416450Y-89346781D01*
X133397695Y-89348797D01*
X133397681Y-89348800D01*
X133302560Y-89378585D01*
X133302559Y-89378585D01*
X133241230Y-89412073D01*
X133183024Y-89455644D01*
X133183009Y-89455657D01*
X132450808Y-90187859D01*
X132450808Y-90187858D01*
X132441658Y-90198046D01*
X132441657Y-90198047D01*
X132420737Y-90224008D01*
X132420735Y-90224011D01*
X132374534Y-90312337D01*
X132354849Y-90379375D01*
X132344500Y-90451356D01*
X132344499Y-90451359D01*
X132344499Y-96642806D01*
X132324814Y-96709845D01*
X132308180Y-96730487D01*
X132130487Y-96908181D01*
X132069164Y-96941666D01*
X132042806Y-96944500D01*
X131624000Y-96944500D01*
X131556961Y-96924815D01*
X131511206Y-96872011D01*
X131500000Y-96820500D01*
X131500000Y-96500000D01*
X129551362Y-96500000D01*
X129484323Y-96480315D01*
X129463681Y-96463681D01*
X129463680Y-96463680D01*
X128536316Y-95536316D01*
X128502833Y-95474996D01*
X128500000Y-95448647D01*
X128500000Y-92500000D01*
X127036319Y-91036319D01*
X127002834Y-90974996D01*
X127000000Y-90948638D01*
X127000000Y-87029500D01*
X127019685Y-86962461D01*
X127072489Y-86916706D01*
X127124000Y-86905500D01*
X134222096Y-86905500D01*
X134289135Y-86925185D01*
X134309777Y-86941819D01*
X134353453Y-86985495D01*
X134353454Y-86985495D01*
X134365620Y-86996423D01*
X134365619Y-86996423D01*
X134392634Y-87018192D01*
X134398175Y-87022553D01*
X134498251Y-87073439D01*
X134565290Y-87093124D01*
X134651362Y-87105500D01*
X134651365Y-87105500D01*
X134956823Y-87105500D01*
X134973177Y-87104623D01*
X134973176Y-87104623D01*
X135007676Y-87100912D01*
X135011183Y-87100493D01*
X135014692Y-87100075D01*
X135121436Y-87065284D01*
X135182757Y-87031794D01*
X135246844Y-86983810D01*
X135312307Y-86959388D01*
X135375621Y-86971670D01*
X135383603Y-86975572D01*
X135383607Y-86975573D01*
X135451739Y-86985500D01*
X135451740Y-86985500D01*
X135718261Y-86985500D01*
X135740970Y-86982190D01*
X135786393Y-86975573D01*
X135855541Y-86941768D01*
X135924413Y-86930010D01*
X135964458Y-86941768D01*
X136033607Y-86975573D01*
X136061946Y-86979702D01*
X136101739Y-86985500D01*
X136101740Y-86985500D01*
X136368261Y-86985500D01*
X136390971Y-86982191D01*
X136436393Y-86975573D01*
X136505541Y-86941768D01*
X136574413Y-86930010D01*
X136614458Y-86941768D01*
X136683607Y-86975573D01*
X136711946Y-86979702D01*
X136751739Y-86985500D01*
X136751740Y-86985500D01*
X137018261Y-86985500D01*
X137040970Y-86982190D01*
X137086393Y-86975573D01*
X137191483Y-86924198D01*
X137274198Y-86841483D01*
X137325573Y-86736393D01*
X137335500Y-86668260D01*
X137336147Y-86663820D01*
X137337112Y-86663960D01*
X137359978Y-86602836D01*
X137415952Y-86561019D01*
X137475357Y-86554303D01*
X137570000Y-86566763D01*
X137570001Y-86566763D01*
X137618033Y-86560439D01*
X137714101Y-86547792D01*
X137848377Y-86492173D01*
X137848378Y-86492173D01*
X137848378Y-86492172D01*
X137848382Y-86492171D01*
X137963691Y-86403691D01*
X138052171Y-86288382D01*
X138107792Y-86154101D01*
X138126763Y-86010000D01*
X138107792Y-85865899D01*
X138052171Y-85731619D01*
X137963691Y-85616309D01*
X137848382Y-85527829D01*
X137848379Y-85527828D01*
X137848377Y-85527826D01*
X137714104Y-85472209D01*
X137714099Y-85472207D01*
X137570001Y-85453237D01*
X137569999Y-85453237D01*
X137475359Y-85465696D01*
X137406323Y-85454930D01*
X137354068Y-85408550D01*
X137336918Y-85356067D01*
X137336147Y-85356180D01*
X137325573Y-85283608D01*
X137325573Y-85283607D01*
X137274198Y-85178517D01*
X137274196Y-85178515D01*
X137274196Y-85178514D01*
X137191485Y-85095803D01*
X137184499Y-85092388D01*
X137086393Y-85044427D01*
X137086391Y-85044426D01*
X137018261Y-85034500D01*
X137018260Y-85034500D01*
X136751740Y-85034500D01*
X136727375Y-85038049D01*
X136658199Y-85028235D01*
X136605310Y-84982579D01*
X136585500Y-84915576D01*
X136585500Y-84260119D01*
X136605185Y-84193080D01*
X136653203Y-84149635D01*
X136672391Y-84139859D01*
X136759859Y-84052391D01*
X136816017Y-83942175D01*
X136816017Y-83942173D01*
X136816018Y-83942172D01*
X136816018Y-83942171D01*
X136819901Y-83917650D01*
X136830500Y-83850735D01*
X136830499Y-83509266D01*
X136830499Y-83509264D01*
X136830499Y-83509260D01*
X136816018Y-83417829D01*
X136816018Y-83417828D01*
X136816017Y-83417826D01*
X136816017Y-83417825D01*
X136759859Y-83307609D01*
X136759857Y-83307607D01*
X136759854Y-83307603D01*
X136672396Y-83220145D01*
X136672393Y-83220143D01*
X136672391Y-83220141D01*
X136562175Y-83163983D01*
X136562174Y-83163982D01*
X136562171Y-83163981D01*
X136470735Y-83149500D01*
X136069260Y-83149500D01*
X136069260Y-83149501D01*
X135977829Y-83163981D01*
X135977828Y-83163981D01*
X135867607Y-83220142D01*
X135867603Y-83220145D01*
X135780145Y-83307603D01*
X135780142Y-83307608D01*
X135723981Y-83417827D01*
X135723981Y-83417828D01*
X135709500Y-83509264D01*
X135709500Y-83850739D01*
X135723981Y-83942170D01*
X135723981Y-83942171D01*
X135723982Y-83942174D01*
X135723983Y-83942175D01*
X135780141Y-84052391D01*
X135848182Y-84120432D01*
X135881666Y-84181753D01*
X135884500Y-84208112D01*
X135884500Y-84915345D01*
X135864815Y-84982384D01*
X135812011Y-85028139D01*
X135742853Y-85038083D01*
X135742722Y-85038064D01*
X135718260Y-85034500D01*
X135481241Y-85034500D01*
X135414202Y-85014815D01*
X135372409Y-84969926D01*
X135357904Y-84943362D01*
X135357900Y-84943356D01*
X135305800Y-84873760D01*
X135305789Y-84873747D01*
X135246554Y-84814512D01*
X135234380Y-84803577D01*
X135234381Y-84803577D01*
X135207366Y-84781808D01*
X135201825Y-84777447D01*
X135101747Y-84726560D01*
X135034716Y-84706877D01*
X135034710Y-84706876D01*
X134948638Y-84694500D01*
X134948635Y-84694500D01*
X127124000Y-84694500D01*
X127056961Y-84674815D01*
X127011206Y-84622011D01*
X127000000Y-84570500D01*
X127000000Y-81624000D01*
X127019685Y-81556961D01*
X127072489Y-81511206D01*
X127124000Y-81500000D01*
X143948638Y-81500000D01*
X144015677Y-81519685D01*
G37*
%TD.AperFunction*%
%TD*%
%TA.AperFunction,Conductor*%
%TO.N,Net-(J108-In)*%
G36*
X126265677Y-59519685D02*
G01*
X126286319Y-59536319D01*
X126713680Y-59963680D01*
X126747165Y-60025003D01*
X126749999Y-60051361D01*
X126749999Y-65698638D01*
X126730314Y-65765677D01*
X126713680Y-65786319D01*
X126536319Y-65963681D01*
X126474996Y-65997166D01*
X126448638Y-66000000D01*
X125801362Y-66000000D01*
X125734323Y-65980315D01*
X125713681Y-65963681D01*
X125536319Y-65786319D01*
X125502834Y-65724996D01*
X125500000Y-65698638D01*
X125500000Y-61500000D01*
X125000000Y-61000000D01*
X118801362Y-61000000D01*
X118734323Y-60980315D01*
X118713681Y-60963681D01*
X118500000Y-60750000D01*
X117551362Y-60750000D01*
X117484323Y-60730315D01*
X117463681Y-60713681D01*
X117286318Y-60536318D01*
X117252833Y-60474995D01*
X117250000Y-60448645D01*
X117250000Y-60308717D01*
X117250531Y-60300616D01*
X117257195Y-60250000D01*
X117250530Y-60199382D01*
X117250000Y-60191281D01*
X117250000Y-60051361D01*
X117269685Y-59984322D01*
X117286314Y-59963685D01*
X117463681Y-59786318D01*
X117525004Y-59752834D01*
X117551362Y-59750000D01*
X118500000Y-59750000D01*
X118713681Y-59536318D01*
X118775004Y-59502834D01*
X118801362Y-59500000D01*
X126198638Y-59500000D01*
X126265677Y-59519685D01*
G37*
%TD.AperFunction*%
%TD*%
%TA.AperFunction,Conductor*%
%TO.N,Net-(J105-Pin_3)*%
G36*
X153815677Y-62619685D02*
G01*
X153836319Y-62636319D01*
X154058181Y-62858181D01*
X154091666Y-62919504D01*
X154094500Y-62945861D01*
X154094500Y-64356820D01*
X154095376Y-64373162D01*
X154095377Y-64373171D01*
X154099085Y-64407653D01*
X154099920Y-64414661D01*
X154099920Y-64414662D01*
X154134700Y-64521401D01*
X154134704Y-64521411D01*
X154168184Y-64582724D01*
X154168186Y-64582727D01*
X154175265Y-64592183D01*
X154199683Y-64657647D01*
X154199999Y-64666495D01*
X154199999Y-72748638D01*
X154180314Y-72815677D01*
X154163680Y-72836319D01*
X152236319Y-74763681D01*
X152174996Y-74797166D01*
X152148638Y-74800000D01*
X113599999Y-74800000D01*
X113200000Y-75199999D01*
X113200000Y-86548638D01*
X113180315Y-86615677D01*
X113163681Y-86636319D01*
X113036319Y-86763681D01*
X112974996Y-86797166D01*
X112948638Y-86800000D01*
X112092930Y-86800000D01*
X112085454Y-86799548D01*
X112085058Y-86799500D01*
X112085056Y-86799500D01*
X111914944Y-86799500D01*
X111914942Y-86799500D01*
X111914546Y-86799548D01*
X111907070Y-86800000D01*
X111539928Y-86800000D01*
X111472889Y-86780315D01*
X111427134Y-86727511D01*
X111417190Y-86658353D01*
X111420500Y-86635636D01*
X111420500Y-85264364D01*
X111409866Y-85191375D01*
X111407518Y-85186572D01*
X111354827Y-85078789D01*
X111325699Y-85049661D01*
X111292214Y-84988338D01*
X111297198Y-84918646D01*
X111325695Y-84874304D01*
X111800000Y-84400000D01*
X111800000Y-73451361D01*
X111819685Y-73384323D01*
X111836319Y-73363681D01*
X112363681Y-72836319D01*
X112425004Y-72802834D01*
X112451362Y-72800000D01*
X151000000Y-72800000D01*
X151600000Y-72200000D01*
X151600000Y-63051360D01*
X151619685Y-62984322D01*
X151636314Y-62963685D01*
X151963681Y-62636318D01*
X152025004Y-62602834D01*
X152051362Y-62600000D01*
X153748638Y-62600000D01*
X153815677Y-62619685D01*
G37*
%TD.AperFunction*%
%TD*%
%TA.AperFunction,Conductor*%
%TO.N,Net-(D101-K)*%
G36*
X140415677Y-34219685D02*
G01*
X140436319Y-34236319D01*
X140563681Y-34363681D01*
X140597166Y-34425004D01*
X140600000Y-34451362D01*
X140600000Y-37800000D01*
X140763681Y-37963681D01*
X140797166Y-38025004D01*
X140800000Y-38051362D01*
X140800000Y-38391281D01*
X140799469Y-38399383D01*
X140792805Y-38449999D01*
X140792805Y-38450000D01*
X140799469Y-38500616D01*
X140800000Y-38508717D01*
X140800000Y-38948638D01*
X140780315Y-39015677D01*
X140763681Y-39036319D01*
X140636319Y-39163681D01*
X140574996Y-39197166D01*
X140548638Y-39200000D01*
X138599999Y-39200000D01*
X137836319Y-39963681D01*
X137774996Y-39997166D01*
X137748638Y-40000000D01*
X136399999Y-40000000D01*
X136236319Y-40163681D01*
X136174996Y-40197166D01*
X136148638Y-40200000D01*
X134251362Y-40200000D01*
X134184323Y-40180315D01*
X134163681Y-40163681D01*
X134036319Y-40036319D01*
X134002834Y-39974996D01*
X134000000Y-39948638D01*
X134000000Y-37051362D01*
X134019685Y-36984323D01*
X134036319Y-36963681D01*
X134163681Y-36836319D01*
X134225004Y-36802834D01*
X134251362Y-36800000D01*
X136148638Y-36800000D01*
X136215677Y-36819685D01*
X136236319Y-36836319D01*
X136400000Y-37000000D01*
X137799999Y-37000000D01*
X137800000Y-37000000D01*
X138600000Y-36400000D01*
X138600000Y-34451362D01*
X138619685Y-34384323D01*
X138636319Y-34363681D01*
X138763681Y-34236319D01*
X138825004Y-34202834D01*
X138851362Y-34200000D01*
X140348638Y-34200000D01*
X140415677Y-34219685D01*
G37*
%TD.AperFunction*%
%TD*%
%TA.AperFunction,Conductor*%
%TO.N,Net-(J105-Pin_1)*%
G36*
X158815677Y-62619685D02*
G01*
X158836319Y-62636319D01*
X159163682Y-62963682D01*
X159197166Y-63025003D01*
X159200000Y-63051361D01*
X159200000Y-72950243D01*
X159180315Y-73017282D01*
X159165608Y-73035955D01*
X154836623Y-77561712D01*
X154776059Y-77596551D01*
X154747015Y-77600000D01*
X125399999Y-77600000D01*
X125000000Y-77999999D01*
X125000000Y-78000000D01*
X125000000Y-84800000D01*
X125200000Y-85000000D01*
X134948638Y-85000000D01*
X135015677Y-85019685D01*
X135036319Y-85036319D01*
X135089771Y-85089771D01*
X135123256Y-85151094D01*
X135118272Y-85220786D01*
X135112576Y-85233744D01*
X135099354Y-85259694D01*
X135099352Y-85259698D01*
X135084500Y-85353475D01*
X135084500Y-86664135D01*
X135064815Y-86731174D01*
X135048189Y-86751809D01*
X135036326Y-86763674D01*
X134975005Y-86797164D01*
X134948637Y-86800000D01*
X134651362Y-86800000D01*
X134584323Y-86780315D01*
X134563681Y-86763681D01*
X134400000Y-86600000D01*
X123851362Y-86600000D01*
X123784323Y-86580315D01*
X123763681Y-86563681D01*
X123436319Y-86236319D01*
X123402834Y-86174996D01*
X123400000Y-86148638D01*
X123400000Y-76851362D01*
X123419685Y-76784323D01*
X123436319Y-76763681D01*
X123963681Y-76236319D01*
X124025004Y-76202834D01*
X124051362Y-76200000D01*
X153400000Y-76200000D01*
X156800000Y-72800000D01*
X156800000Y-64673353D01*
X156819511Y-64606585D01*
X156822548Y-64601831D01*
X156822553Y-64601825D01*
X156873439Y-64501749D01*
X156893124Y-64434710D01*
X156905500Y-64348638D01*
X156905500Y-62945862D01*
X156925185Y-62878823D01*
X156941819Y-62858181D01*
X157163681Y-62636319D01*
X157225004Y-62602834D01*
X157251362Y-62600000D01*
X158748638Y-62600000D01*
X158815677Y-62619685D01*
G37*
%TD.AperFunction*%
%TD*%
%TA.AperFunction,Conductor*%
%TO.N,Net-(J118-Pin_1)*%
G36*
X164015677Y-65219685D02*
G01*
X164036319Y-65236319D01*
X164563681Y-65763681D01*
X164597166Y-65825004D01*
X164600000Y-65851362D01*
X164600000Y-75348638D01*
X164580315Y-75415677D01*
X164563681Y-75436319D01*
X163000000Y-76999999D01*
X163000000Y-83542968D01*
X162980315Y-83610007D01*
X162956698Y-83637116D01*
X161600000Y-84799999D01*
X161599999Y-84800000D01*
X161763681Y-84963681D01*
X161797166Y-85025004D01*
X161800000Y-85051362D01*
X161800000Y-87948637D01*
X161780315Y-88015676D01*
X161763682Y-88036318D01*
X161636317Y-88163682D01*
X161574997Y-88197166D01*
X161548638Y-88200000D01*
X161487397Y-88200000D01*
X161420358Y-88180315D01*
X161384295Y-88144891D01*
X161379469Y-88137669D01*
X161370602Y-88124398D01*
X161287741Y-88069033D01*
X161287740Y-88069032D01*
X161287736Y-88069031D01*
X161214678Y-88054499D01*
X161214675Y-88054499D01*
X159999501Y-88054499D01*
X159932462Y-88034814D01*
X159886707Y-87982010D01*
X159875501Y-87930499D01*
X159875500Y-87280818D01*
X159869500Y-87235242D01*
X159869500Y-87235239D01*
X159822851Y-87135200D01*
X159822850Y-87135199D01*
X159822849Y-87135196D01*
X159822423Y-87134588D01*
X159822051Y-87133484D01*
X159818266Y-87125368D01*
X159819171Y-87124945D01*
X159800097Y-87068381D01*
X159800000Y-87063468D01*
X159800000Y-86300853D01*
X159800356Y-86294218D01*
X159800501Y-86292873D01*
X159800500Y-85247128D01*
X159800354Y-85245778D01*
X159800000Y-85239149D01*
X159800000Y-85051361D01*
X159819685Y-84984322D01*
X159836314Y-84963685D01*
X160000000Y-84800000D01*
X159999999Y-80970000D01*
X159999999Y-75858074D01*
X160019684Y-75791039D01*
X160044612Y-75762822D01*
X161200000Y-74800000D01*
X161398894Y-65849740D01*
X161420063Y-65783158D01*
X161435177Y-65764822D01*
X161963681Y-65236319D01*
X162025004Y-65202834D01*
X162051362Y-65200000D01*
X163948638Y-65200000D01*
X164015677Y-65219685D01*
G37*
%TD.AperFunction*%
%TD*%
%TA.AperFunction,Conductor*%
%TO.N,Net-(U104-VOUT+)*%
G36*
X132215677Y-54019685D02*
G01*
X132236319Y-54036319D01*
X133400000Y-55200000D01*
X141441282Y-55200000D01*
X141449381Y-55200530D01*
X141500000Y-55207195D01*
X141534098Y-55202705D01*
X141603129Y-55213469D01*
X141637963Y-55237963D01*
X141703181Y-55303181D01*
X141736666Y-55364504D01*
X141739500Y-55390862D01*
X141739500Y-55644856D01*
X141739502Y-55644882D01*
X141742413Y-55669987D01*
X141742414Y-55669988D01*
X141746929Y-55680214D01*
X141756433Y-55746484D01*
X141742805Y-55849998D01*
X141742805Y-55850000D01*
X141756433Y-55953513D01*
X141746930Y-56019782D01*
X141742415Y-56030006D01*
X141742415Y-56030008D01*
X141739500Y-56055131D01*
X141739500Y-56409136D01*
X141719815Y-56476175D01*
X141703182Y-56496817D01*
X141636319Y-56563681D01*
X141574996Y-56597166D01*
X141548637Y-56600000D01*
X131051362Y-56600000D01*
X130984323Y-56580315D01*
X130963681Y-56563681D01*
X130436319Y-56036319D01*
X130402834Y-55974996D01*
X130400000Y-55948638D01*
X130400000Y-54451362D01*
X130419685Y-54384323D01*
X130436319Y-54363681D01*
X130763681Y-54036319D01*
X130825004Y-54002834D01*
X130851362Y-54000000D01*
X132148638Y-54000000D01*
X132215677Y-54019685D01*
G37*
%TD.AperFunction*%
%TD*%
%TA.AperFunction,Conductor*%
%TO.N,GNDS*%
G36*
X121015677Y-35019685D02*
G01*
X121036319Y-35036319D01*
X121125586Y-35125586D01*
X121159071Y-35186909D01*
X121154087Y-35256601D01*
X121125586Y-35300948D01*
X120268355Y-36158181D01*
X120207032Y-36191666D01*
X120180674Y-36194500D01*
X119640501Y-36194500D01*
X119618811Y-36195663D01*
X119581654Y-36199658D01*
X119581655Y-36199658D01*
X119550162Y-36204299D01*
X119463385Y-36235261D01*
X119430668Y-36246935D01*
X119430666Y-36246935D01*
X119430663Y-36246937D01*
X119369350Y-36280416D01*
X119369342Y-36280421D01*
X119276956Y-36349580D01*
X119276938Y-36349596D01*
X119141909Y-36484626D01*
X119132602Y-36494988D01*
X119127392Y-36500789D01*
X119127387Y-36500795D01*
X119127387Y-36500794D01*
X119103943Y-36529888D01*
X119084957Y-36555439D01*
X119030612Y-36670072D01*
X119010926Y-36737114D01*
X119010924Y-36737122D01*
X118994500Y-36851361D01*
X118994500Y-36898910D01*
X118974815Y-36965949D01*
X118922011Y-37011704D01*
X118852853Y-37021648D01*
X118795575Y-36997714D01*
X118687341Y-36915638D01*
X118679954Y-36911485D01*
X118680677Y-36910198D01*
X118632861Y-36872989D01*
X118609672Y-36807080D01*
X118610403Y-36785608D01*
X118617156Y-36730000D01*
X118596607Y-36560766D01*
X118596606Y-36560764D01*
X118596606Y-36560762D01*
X118559789Y-36463685D01*
X118536156Y-36401368D01*
X118522227Y-36381189D01*
X118499305Y-36347980D01*
X118439314Y-36261069D01*
X118439312Y-36261067D01*
X118311711Y-36148022D01*
X118160759Y-36068797D01*
X117995239Y-36028000D01*
X117995238Y-36028000D01*
X117824762Y-36028000D01*
X117824761Y-36028000D01*
X117659240Y-36068797D01*
X117508288Y-36148022D01*
X117380687Y-36261067D01*
X117283844Y-36401366D01*
X117283844Y-36401367D01*
X117223393Y-36560762D01*
X117223392Y-36560767D01*
X117202844Y-36730000D01*
X117202844Y-36730002D01*
X117208909Y-36779958D01*
X117197448Y-36848881D01*
X117150543Y-36900667D01*
X117131309Y-36910255D01*
X117117657Y-36915639D01*
X116997077Y-37007077D01*
X116905639Y-37127656D01*
X116850122Y-37268438D01*
X116844188Y-37317853D01*
X116839500Y-37356898D01*
X116839500Y-37743102D01*
X116842652Y-37769346D01*
X116850122Y-37831561D01*
X116905639Y-37972343D01*
X116997077Y-38092922D01*
X117117656Y-38184360D01*
X117117657Y-38184360D01*
X117117658Y-38184361D01*
X117258436Y-38239877D01*
X117346898Y-38250500D01*
X117346903Y-38250500D01*
X118458097Y-38250500D01*
X118458102Y-38250500D01*
X118546564Y-38239877D01*
X118687342Y-38184361D01*
X118736593Y-38147013D01*
X118814681Y-38087797D01*
X118816799Y-38090591D01*
X118863626Y-38064961D01*
X118933322Y-38069876D01*
X118989298Y-38111691D01*
X119013780Y-38177131D01*
X119011472Y-38209655D01*
X119011556Y-38209667D01*
X119011390Y-38210821D01*
X119011275Y-38212443D01*
X119010926Y-38214047D01*
X118997577Y-38306898D01*
X118994500Y-38328298D01*
X118994500Y-38668737D01*
X118997317Y-38693102D01*
X119005196Y-38761262D01*
X119010922Y-38785693D01*
X119007053Y-38855455D01*
X118966082Y-38912052D01*
X118901017Y-38937513D01*
X118832515Y-38923755D01*
X118815448Y-38911190D01*
X118814681Y-38912203D01*
X118687343Y-38815639D01*
X118549452Y-38761262D01*
X118546564Y-38760123D01*
X118546563Y-38760122D01*
X118546561Y-38760122D01*
X118500926Y-38754642D01*
X118458102Y-38749500D01*
X117346898Y-38749500D01*
X117307853Y-38754188D01*
X117258438Y-38760122D01*
X117117658Y-38815638D01*
X117076916Y-38846534D01*
X117040295Y-38874304D01*
X116974986Y-38899127D01*
X116965372Y-38899500D01*
X116550249Y-38899500D01*
X116498233Y-38885879D01*
X116497812Y-38886949D01*
X116489923Y-38883838D01*
X116489922Y-38883837D01*
X116352979Y-38829834D01*
X116352978Y-38829833D01*
X116266927Y-38819500D01*
X115813080Y-38819500D01*
X115727022Y-38829833D01*
X115590077Y-38883837D01*
X115590075Y-38883838D01*
X115472783Y-38972783D01*
X115383838Y-39090075D01*
X115329833Y-39227022D01*
X115319500Y-39313072D01*
X115319500Y-39666919D01*
X115329833Y-39752977D01*
X115383837Y-39889922D01*
X115383838Y-39889924D01*
X115472783Y-40007216D01*
X115575302Y-40084958D01*
X115590078Y-40096163D01*
X115727021Y-40150166D01*
X115813073Y-40160500D01*
X116266926Y-40160499D01*
X116352979Y-40150166D01*
X116489922Y-40096163D01*
X116554839Y-40046935D01*
X116582847Y-40025696D01*
X116648158Y-40000873D01*
X116657772Y-40000500D01*
X116965372Y-40000500D01*
X117032411Y-40020185D01*
X117040282Y-40025685D01*
X117117658Y-40084361D01*
X117258436Y-40139877D01*
X117346898Y-40150500D01*
X117346903Y-40150500D01*
X118458097Y-40150500D01*
X118458102Y-40150500D01*
X118546564Y-40139877D01*
X118687342Y-40084361D01*
X118795576Y-40002284D01*
X118860886Y-39977462D01*
X118929250Y-39991890D01*
X118978961Y-40040987D01*
X118994499Y-40101089D01*
X118994500Y-40159499D01*
X118995663Y-40181189D01*
X118999658Y-40218345D01*
X119004299Y-40249837D01*
X119011259Y-40269342D01*
X119046935Y-40369332D01*
X119046936Y-40369335D01*
X119046937Y-40369336D01*
X119080416Y-40430649D01*
X119080421Y-40430657D01*
X119149580Y-40523043D01*
X119149596Y-40523061D01*
X119284626Y-40658091D01*
X119294988Y-40667397D01*
X119300789Y-40672608D01*
X119300795Y-40672613D01*
X119300794Y-40672613D01*
X119329888Y-40696057D01*
X119355439Y-40715042D01*
X119470072Y-40769387D01*
X119470074Y-40769387D01*
X119470077Y-40769389D01*
X119537116Y-40789074D01*
X119598221Y-40797859D01*
X119661776Y-40826883D01*
X119699552Y-40885660D01*
X119699553Y-40955530D01*
X119668256Y-41008278D01*
X119491908Y-41184627D01*
X119491909Y-41184626D01*
X119482602Y-41194988D01*
X119477392Y-41200789D01*
X119477387Y-41200795D01*
X119477387Y-41200794D01*
X119453943Y-41229888D01*
X119434957Y-41255439D01*
X119380612Y-41370072D01*
X119360926Y-41437114D01*
X119360924Y-41437122D01*
X119344500Y-41551361D01*
X119344500Y-43280673D01*
X119324815Y-43347712D01*
X119308181Y-43368354D01*
X119033838Y-43642697D01*
X118741903Y-43934632D01*
X118741897Y-43934639D01*
X118741896Y-43934639D01*
X118727391Y-43950787D01*
X118727385Y-43950794D01*
X118727380Y-43950800D01*
X118703930Y-43979905D01*
X118695011Y-43991909D01*
X118684958Y-44005439D01*
X118630612Y-44120072D01*
X118610926Y-44187114D01*
X118610924Y-44187122D01*
X118594500Y-44301361D01*
X118594500Y-45626008D01*
X118603767Y-45712197D01*
X118612082Y-45750417D01*
X118614974Y-45763710D01*
X118637690Y-45835360D01*
X118637691Y-45835361D01*
X118637691Y-45835362D01*
X118704751Y-45943059D01*
X118750499Y-45995855D01*
X118753299Y-45998695D01*
X118751962Y-46000012D01*
X118784933Y-46052859D01*
X118789499Y-46086198D01*
X118789500Y-46930602D01*
X118787238Y-46996829D01*
X118797715Y-47039819D01*
X118798901Y-47046061D01*
X118804929Y-47089920D01*
X118812079Y-47106379D01*
X118818819Y-47126420D01*
X118823067Y-47143852D01*
X118844763Y-47182439D01*
X118847582Y-47188115D01*
X118865220Y-47228720D01*
X118865221Y-47228722D01*
X118876541Y-47242636D01*
X118888439Y-47260117D01*
X118897234Y-47275760D01*
X118897236Y-47275761D01*
X118928532Y-47307057D01*
X118932783Y-47311766D01*
X118960722Y-47346108D01*
X118975381Y-47356455D01*
X118991552Y-47370077D01*
X120144079Y-48522603D01*
X120189320Y-48571044D01*
X120227140Y-48594042D01*
X120232379Y-48597607D01*
X120267658Y-48624361D01*
X120284353Y-48630944D01*
X120303290Y-48640351D01*
X120318618Y-48649672D01*
X120361247Y-48661616D01*
X120367263Y-48663639D01*
X120408436Y-48679876D01*
X120426287Y-48681711D01*
X120447052Y-48685657D01*
X120464335Y-48690500D01*
X120508594Y-48690500D01*
X120514935Y-48690824D01*
X120558971Y-48695352D01*
X120576654Y-48692303D01*
X120597723Y-48690500D01*
X125303851Y-48690500D01*
X125370890Y-48710185D01*
X125416645Y-48762989D01*
X125417407Y-48764690D01*
X125442013Y-48820787D01*
X125571225Y-49018562D01*
X125731223Y-49192364D01*
X125731227Y-49192368D01*
X125917654Y-49337470D01*
X126125421Y-49449908D01*
X126348861Y-49526616D01*
X126581880Y-49565500D01*
X126581881Y-49565500D01*
X126818119Y-49565500D01*
X126818120Y-49565500D01*
X127051139Y-49526616D01*
X127274579Y-49449908D01*
X127482346Y-49337470D01*
X127668773Y-49192368D01*
X127828775Y-49018561D01*
X127957986Y-48820788D01*
X128052883Y-48604445D01*
X128110876Y-48375434D01*
X128130385Y-48140000D01*
X128110876Y-47904566D01*
X128052883Y-47675555D01*
X127957986Y-47459212D01*
X127957985Y-47459211D01*
X127828774Y-47261437D01*
X127668776Y-47087635D01*
X127668775Y-47087634D01*
X127668773Y-47087632D01*
X127575559Y-47015080D01*
X127482348Y-46942531D01*
X127274580Y-46830092D01*
X127274571Y-46830089D01*
X127051141Y-46753384D01*
X126895793Y-46727461D01*
X126818120Y-46714500D01*
X126581880Y-46714500D01*
X126523625Y-46724221D01*
X126348858Y-46753384D01*
X126125428Y-46830089D01*
X126125419Y-46830092D01*
X125917651Y-46942531D01*
X125731228Y-47087631D01*
X125731223Y-47087635D01*
X125571225Y-47261437D01*
X125442013Y-47459212D01*
X125417407Y-47515310D01*
X125372451Y-47568796D01*
X125305715Y-47589486D01*
X125303851Y-47589500D01*
X120819386Y-47589500D01*
X120752347Y-47569815D01*
X120731705Y-47553181D01*
X119926818Y-46748294D01*
X119893333Y-46686971D01*
X119890499Y-46660613D01*
X119890500Y-46279500D01*
X119910185Y-46212460D01*
X119962989Y-46166705D01*
X120014500Y-46155500D01*
X121459498Y-46155500D01*
X121459499Y-46155500D01*
X121481189Y-46154337D01*
X121518345Y-46150342D01*
X121518344Y-46150342D01*
X121549837Y-46145700D01*
X121549838Y-46145699D01*
X121549842Y-46145699D01*
X121669332Y-46103065D01*
X121730655Y-46069580D01*
X121823052Y-46000412D01*
X122008093Y-45815369D01*
X122008092Y-45815369D01*
X122008099Y-45815363D01*
X122008099Y-45815362D01*
X122022599Y-45799221D01*
X122022608Y-45799210D01*
X122046057Y-45770111D01*
X122065042Y-45744560D01*
X122119389Y-45629922D01*
X122139074Y-45562883D01*
X122155500Y-45448637D01*
X122155500Y-44123999D01*
X122175185Y-44056961D01*
X122227989Y-44011206D01*
X122279500Y-44000000D01*
X130448638Y-44000000D01*
X130515677Y-44019685D01*
X130536319Y-44036319D01*
X130963680Y-44463680D01*
X130997165Y-44525003D01*
X130999999Y-44551361D01*
X130999999Y-51948638D01*
X130980314Y-52015677D01*
X130963680Y-52036319D01*
X130536319Y-52463681D01*
X130474996Y-52497166D01*
X130448638Y-52500000D01*
X121499999Y-52500000D01*
X121000000Y-52999999D01*
X121000000Y-58970500D01*
X120980315Y-59037539D01*
X120927511Y-59083294D01*
X120876000Y-59094500D01*
X118790501Y-59094500D01*
X118768811Y-59095663D01*
X118731655Y-59099658D01*
X118715908Y-59101979D01*
X118700162Y-59104300D01*
X118580672Y-59146932D01*
X118580670Y-59146933D01*
X118519348Y-59180418D01*
X118519346Y-59180419D01*
X118426950Y-59249586D01*
X118426938Y-59249596D01*
X118402181Y-59274354D01*
X118340858Y-59307839D01*
X118271166Y-59302855D01*
X118215233Y-59260983D01*
X118190816Y-59195519D01*
X118190500Y-59186673D01*
X118190500Y-58149396D01*
X118190500Y-58149395D01*
X118192762Y-58083174D01*
X118192182Y-58080795D01*
X118182283Y-58040174D01*
X118181096Y-58033931D01*
X118175070Y-57990082D01*
X118175070Y-57990080D01*
X118167921Y-57973622D01*
X118161180Y-57953578D01*
X118156933Y-57936148D01*
X118149772Y-57923413D01*
X118135239Y-57897564D01*
X118132414Y-57891876D01*
X118122944Y-57870076D01*
X118114780Y-57851280D01*
X118103454Y-57837359D01*
X118091556Y-57819877D01*
X118082764Y-57804240D01*
X118051472Y-57772948D01*
X118047215Y-57768231D01*
X118019278Y-57733892D01*
X118004613Y-57723540D01*
X117988441Y-57709917D01*
X115686819Y-55408294D01*
X115653334Y-55346971D01*
X115650500Y-55320613D01*
X115650500Y-53736827D01*
X115670185Y-53669788D01*
X115715483Y-53627772D01*
X115804681Y-53579500D01*
X115882346Y-53537470D01*
X116068773Y-53392368D01*
X116228775Y-53218561D01*
X116357986Y-53020788D01*
X116452883Y-52804445D01*
X116510876Y-52575434D01*
X116530385Y-52340000D01*
X116510876Y-52104566D01*
X116452883Y-51875555D01*
X116357986Y-51659212D01*
X116228775Y-51461439D01*
X116228774Y-51461437D01*
X116068776Y-51287635D01*
X116068775Y-51287634D01*
X116068773Y-51287632D01*
X115907770Y-51162318D01*
X115882348Y-51142531D01*
X115674580Y-51030092D01*
X115674571Y-51030089D01*
X115451141Y-50953384D01*
X115295793Y-50927461D01*
X115218120Y-50914500D01*
X114981880Y-50914500D01*
X114923625Y-50924221D01*
X114748858Y-50953384D01*
X114525428Y-51030089D01*
X114525419Y-51030092D01*
X114317651Y-51142531D01*
X114131228Y-51287631D01*
X114131223Y-51287635D01*
X113971225Y-51461437D01*
X113842013Y-51659212D01*
X113747117Y-51875554D01*
X113689123Y-52104569D01*
X113669615Y-52339994D01*
X113669615Y-52340005D01*
X113689123Y-52575430D01*
X113747117Y-52804445D01*
X113842013Y-53020787D01*
X113971225Y-53218562D01*
X114060347Y-53315373D01*
X114131227Y-53392368D01*
X114244658Y-53480655D01*
X114317651Y-53537468D01*
X114317656Y-53537471D01*
X114484517Y-53627772D01*
X114534108Y-53676992D01*
X114549500Y-53736827D01*
X114549500Y-55590602D01*
X114547238Y-55656829D01*
X114557715Y-55699819D01*
X114558901Y-55706061D01*
X114564929Y-55749920D01*
X114572079Y-55766379D01*
X114578819Y-55786420D01*
X114583067Y-55803852D01*
X114604763Y-55842439D01*
X114607582Y-55848115D01*
X114625220Y-55888720D01*
X114625221Y-55888722D01*
X114636541Y-55902636D01*
X114648439Y-55920117D01*
X114657234Y-55935760D01*
X114657236Y-55935761D01*
X114688532Y-55967057D01*
X114692783Y-55971766D01*
X114720722Y-56006108D01*
X114735381Y-56016455D01*
X114751552Y-56030077D01*
X117053180Y-58331705D01*
X117086665Y-58393028D01*
X117089499Y-58419386D01*
X117089499Y-59532744D01*
X117069814Y-59599783D01*
X117053183Y-59620423D01*
X117011946Y-59661662D01*
X117009900Y-59664478D01*
X116997286Y-59679248D01*
X116991898Y-59684637D01*
X116991893Y-59684642D01*
X116977381Y-59700799D01*
X116953936Y-59729896D01*
X116938837Y-59750216D01*
X116934957Y-59755439D01*
X116880612Y-59870071D01*
X116860926Y-59937113D01*
X116860924Y-59937121D01*
X116844500Y-60051360D01*
X116844500Y-60197906D01*
X116844933Y-60211144D01*
X116846329Y-60232494D01*
X116846857Y-60237863D01*
X116846856Y-60262152D01*
X116846333Y-60267468D01*
X116846333Y-60267472D01*
X116844934Y-60288816D01*
X116844500Y-60302081D01*
X116844500Y-60459505D01*
X116845663Y-60481194D01*
X116845664Y-60481200D01*
X116845663Y-60481199D01*
X116849657Y-60518341D01*
X116849657Y-60518342D01*
X116854300Y-60549841D01*
X116896934Y-60669331D01*
X116896935Y-60669334D01*
X116896936Y-60669335D01*
X116932541Y-60734541D01*
X116931292Y-60735222D01*
X116946362Y-60774850D01*
X116954353Y-60825300D01*
X116954352Y-60825300D01*
X116954353Y-60825303D01*
X116954354Y-60825304D01*
X117011950Y-60938342D01*
X117011952Y-60938344D01*
X117011954Y-60938347D01*
X117101652Y-61028045D01*
X117101654Y-61028046D01*
X117101658Y-61028050D01*
X117214696Y-61085646D01*
X117214698Y-61085647D01*
X117308473Y-61100499D01*
X117308476Y-61100499D01*
X117308481Y-61100500D01*
X117308485Y-61100499D01*
X117311780Y-61100759D01*
X117355196Y-61112334D01*
X117370077Y-61119389D01*
X117437116Y-61139074D01*
X117437120Y-61139074D01*
X117437122Y-61139075D01*
X117452912Y-61141345D01*
X117551362Y-61155500D01*
X118280674Y-61155500D01*
X118347713Y-61175185D01*
X118368350Y-61191814D01*
X118401491Y-61224955D01*
X118434626Y-61258091D01*
X118444988Y-61267397D01*
X118450789Y-61272608D01*
X118450795Y-61272613D01*
X118450794Y-61272613D01*
X118479888Y-61296057D01*
X118505439Y-61315042D01*
X118620072Y-61369387D01*
X118620074Y-61369387D01*
X118620077Y-61369389D01*
X118687116Y-61389074D01*
X118687120Y-61389074D01*
X118687122Y-61389075D01*
X118702912Y-61391345D01*
X118801362Y-61405500D01*
X120876000Y-61405500D01*
X120943039Y-61425185D01*
X120988794Y-61477989D01*
X120991798Y-61491798D01*
X121000000Y-61500000D01*
X124448638Y-61500000D01*
X124515677Y-61519685D01*
X124536319Y-61536319D01*
X124963681Y-61963681D01*
X124997166Y-62025004D01*
X125000000Y-62051362D01*
X125000000Y-65948638D01*
X124980315Y-66015677D01*
X124963681Y-66036319D01*
X124536319Y-66463681D01*
X124474996Y-66497166D01*
X124448638Y-66500000D01*
X95551362Y-66500000D01*
X95484323Y-66480315D01*
X95463681Y-66463681D01*
X94036319Y-65036319D01*
X94002834Y-64974996D01*
X94000000Y-64948638D01*
X94000000Y-45122825D01*
X94019685Y-45055786D01*
X94072489Y-45010031D01*
X94141647Y-45000087D01*
X94205203Y-45029112D01*
X94211653Y-45035117D01*
X94360311Y-45183775D01*
X94434626Y-45258091D01*
X94444988Y-45267397D01*
X94450789Y-45272608D01*
X94450795Y-45272613D01*
X94450794Y-45272613D01*
X94479888Y-45296057D01*
X94505439Y-45315042D01*
X94620072Y-45369387D01*
X94620074Y-45369387D01*
X94620077Y-45369389D01*
X94687116Y-45389074D01*
X94687120Y-45389074D01*
X94687122Y-45389075D01*
X94696519Y-45390426D01*
X94801362Y-45405500D01*
X97280674Y-45405500D01*
X97347713Y-45425185D01*
X97368355Y-45441819D01*
X97558181Y-45631644D01*
X97591666Y-45692967D01*
X97594500Y-45719325D01*
X97594500Y-51030673D01*
X97574815Y-51097712D01*
X97558181Y-51118354D01*
X97241904Y-51434631D01*
X97241904Y-51434632D01*
X97241901Y-51434635D01*
X97227381Y-51450799D01*
X97203936Y-51479896D01*
X97188837Y-51500216D01*
X97184957Y-51505439D01*
X97130612Y-51620071D01*
X97110926Y-51687113D01*
X97110924Y-51687121D01*
X97099103Y-51769345D01*
X97094500Y-51801361D01*
X97094500Y-53209499D01*
X97095663Y-53231189D01*
X97095664Y-53231196D01*
X97099658Y-53268345D01*
X97104299Y-53299837D01*
X97104301Y-53299842D01*
X97146935Y-53419332D01*
X97146936Y-53419335D01*
X97146937Y-53419336D01*
X97180416Y-53480649D01*
X97180421Y-53480657D01*
X97249580Y-53573043D01*
X97249596Y-53573061D01*
X97684626Y-54008091D01*
X97694988Y-54017397D01*
X97700789Y-54022608D01*
X97700795Y-54022613D01*
X97700794Y-54022613D01*
X97729888Y-54046057D01*
X97755439Y-54065042D01*
X97870072Y-54119387D01*
X97870074Y-54119387D01*
X97870077Y-54119389D01*
X97937116Y-54139074D01*
X97937120Y-54139074D01*
X97937122Y-54139075D01*
X97952912Y-54141345D01*
X98051362Y-54155500D01*
X98051365Y-54155500D01*
X99959498Y-54155500D01*
X99959499Y-54155500D01*
X99981189Y-54154337D01*
X100018345Y-54150342D01*
X100018344Y-54150342D01*
X100049837Y-54145700D01*
X100049838Y-54145699D01*
X100049842Y-54145699D01*
X100169332Y-54103065D01*
X100230655Y-54069580D01*
X100323051Y-54000412D01*
X100631644Y-53691817D01*
X100692966Y-53658334D01*
X100719324Y-53655500D01*
X104721673Y-53655500D01*
X104788712Y-53675185D01*
X104834467Y-53727989D01*
X104844411Y-53797147D01*
X104815386Y-53860703D01*
X104809354Y-53867181D01*
X104741909Y-53934626D01*
X104732602Y-53944988D01*
X104727392Y-53950789D01*
X104727387Y-53950795D01*
X104727387Y-53950794D01*
X104703943Y-53979888D01*
X104684957Y-54005439D01*
X104630612Y-54120072D01*
X104610926Y-54187114D01*
X104610924Y-54187122D01*
X104594500Y-54301361D01*
X104594500Y-54301362D01*
X104594500Y-59459498D01*
X104595663Y-59481188D01*
X104595664Y-59481195D01*
X104599658Y-59518344D01*
X104604299Y-59549836D01*
X104604301Y-59549841D01*
X104646935Y-59669331D01*
X104646936Y-59669334D01*
X104646937Y-59669335D01*
X104680416Y-59730648D01*
X104680421Y-59730656D01*
X104749580Y-59823042D01*
X104749596Y-59823060D01*
X106184626Y-61258091D01*
X106194988Y-61267397D01*
X106200789Y-61272608D01*
X106200795Y-61272613D01*
X106200794Y-61272613D01*
X106229888Y-61296057D01*
X106255439Y-61315042D01*
X106370072Y-61369387D01*
X106370074Y-61369387D01*
X106370077Y-61369389D01*
X106437116Y-61389074D01*
X106437120Y-61389074D01*
X106437122Y-61389075D01*
X106452912Y-61391345D01*
X106551362Y-61405500D01*
X106551365Y-61405500D01*
X115709498Y-61405500D01*
X115709499Y-61405500D01*
X115731189Y-61404337D01*
X115768345Y-61400342D01*
X115768344Y-61400342D01*
X115799837Y-61395700D01*
X115799838Y-61395699D01*
X115799842Y-61395699D01*
X115919332Y-61353065D01*
X115980655Y-61319580D01*
X116073051Y-61250413D01*
X116258093Y-61065371D01*
X116272608Y-61049211D01*
X116272613Y-61049205D01*
X116272613Y-61049206D01*
X116296057Y-61020112D01*
X116296056Y-61020112D01*
X116315042Y-60994561D01*
X116369389Y-60879923D01*
X116389074Y-60812884D01*
X116405500Y-60698638D01*
X116405500Y-60040501D01*
X116404337Y-60018811D01*
X116400342Y-59981655D01*
X116395699Y-59950158D01*
X116353065Y-59830668D01*
X116335796Y-59799042D01*
X116326697Y-59777931D01*
X116325646Y-59774697D01*
X116325646Y-59774696D01*
X116268050Y-59661658D01*
X116268046Y-59661654D01*
X116268045Y-59661652D01*
X116178344Y-59571951D01*
X116176997Y-59571265D01*
X116128701Y-59546656D01*
X116097320Y-59523856D01*
X116065372Y-59491908D01*
X116065374Y-59491909D01*
X116049205Y-59477387D01*
X116049206Y-59477387D01*
X116020112Y-59453943D01*
X115994560Y-59434957D01*
X115879927Y-59380612D01*
X115812885Y-59360926D01*
X115812877Y-59360924D01*
X115698638Y-59344500D01*
X107969326Y-59344500D01*
X107902287Y-59324815D01*
X107881645Y-59308181D01*
X107441819Y-58868355D01*
X107408334Y-58807032D01*
X107405500Y-58780674D01*
X107405500Y-54290501D01*
X107405500Y-54290500D01*
X107404337Y-54268809D01*
X107400342Y-54231653D01*
X107395699Y-54200158D01*
X107353065Y-54080668D01*
X107353063Y-54080664D01*
X107319583Y-54019350D01*
X107319578Y-54019342D01*
X107250419Y-53926956D01*
X107250403Y-53926938D01*
X107161145Y-53837680D01*
X107127660Y-53776357D01*
X107132644Y-53706665D01*
X107161145Y-53662318D01*
X107508091Y-53315373D01*
X107522041Y-53299842D01*
X107522608Y-53299211D01*
X107522613Y-53299205D01*
X107522613Y-53299206D01*
X107546057Y-53270112D01*
X107547370Y-53268345D01*
X107565042Y-53244561D01*
X107619389Y-53129923D01*
X107639074Y-53062884D01*
X107655500Y-52948638D01*
X107655500Y-52040501D01*
X107654337Y-52018811D01*
X107650342Y-51981655D01*
X107645699Y-51950158D01*
X107603065Y-51830668D01*
X107569580Y-51769345D01*
X107508028Y-51687121D01*
X107500419Y-51676956D01*
X107500403Y-51676938D01*
X107161145Y-51337681D01*
X107127660Y-51276358D01*
X107132644Y-51206667D01*
X107161143Y-51162320D01*
X107258093Y-51065371D01*
X107272608Y-51049211D01*
X107272613Y-51049205D01*
X107272613Y-51049206D01*
X107296057Y-51020112D01*
X107296056Y-51020112D01*
X107315042Y-50994561D01*
X107369389Y-50879923D01*
X107389074Y-50812884D01*
X107405500Y-50698638D01*
X107405500Y-47740271D01*
X107425185Y-47673232D01*
X107447845Y-47646951D01*
X107536001Y-47569815D01*
X109117298Y-46186179D01*
X109180713Y-46156849D01*
X109198953Y-46155500D01*
X116709498Y-46155500D01*
X116709499Y-46155500D01*
X116731189Y-46154337D01*
X116768345Y-46150342D01*
X116768344Y-46150342D01*
X116799837Y-46145700D01*
X116799838Y-46145699D01*
X116799842Y-46145699D01*
X116919332Y-46103065D01*
X116980655Y-46069580D01*
X117073051Y-46000412D01*
X117131645Y-45941817D01*
X117192966Y-45908334D01*
X117219325Y-45905500D01*
X117459498Y-45905500D01*
X117459499Y-45905500D01*
X117481189Y-45904337D01*
X117518345Y-45900342D01*
X117549842Y-45895699D01*
X117669332Y-45853064D01*
X117730653Y-45819580D01*
X117823049Y-45750414D01*
X117905500Y-45667963D01*
X117997593Y-45575871D01*
X117997592Y-45575871D01*
X117997594Y-45575869D01*
X118012110Y-45559708D01*
X118035558Y-45530609D01*
X118054542Y-45505060D01*
X118108889Y-45390422D01*
X118128574Y-45323383D01*
X118145000Y-45209137D01*
X118145000Y-45091309D01*
X118146505Y-45072050D01*
X118146772Y-45070348D01*
X118153064Y-45010031D01*
X118155500Y-44986673D01*
X118155500Y-44902081D01*
X118155066Y-44888816D01*
X118153667Y-44867472D01*
X118153144Y-44862162D01*
X118153144Y-44837833D01*
X118153667Y-44832524D01*
X118155066Y-44811179D01*
X118155500Y-44797916D01*
X118155500Y-44713327D01*
X118146762Y-44629602D01*
X118146759Y-44629591D01*
X118146503Y-44627953D01*
X118145000Y-44608706D01*
X118145000Y-44530001D01*
X118144375Y-44518345D01*
X118143837Y-44508309D01*
X118139842Y-44471153D01*
X118135199Y-44439658D01*
X118092565Y-44320168D01*
X118059080Y-44258845D01*
X118020122Y-44206803D01*
X117989919Y-44166456D01*
X117989903Y-44166438D01*
X117815374Y-43991909D01*
X117799205Y-43977387D01*
X117799206Y-43977387D01*
X117770112Y-43953943D01*
X117744560Y-43934957D01*
X117629927Y-43880612D01*
X117562885Y-43860926D01*
X117562877Y-43860924D01*
X117448638Y-43844500D01*
X117219326Y-43844500D01*
X117152287Y-43824815D01*
X117131649Y-43808185D01*
X117098508Y-43775044D01*
X117065373Y-43741908D01*
X117049205Y-43727387D01*
X117049206Y-43727387D01*
X117020112Y-43703943D01*
X116994560Y-43684957D01*
X116879927Y-43630612D01*
X116812885Y-43610926D01*
X116812877Y-43610924D01*
X116698638Y-43594500D01*
X108040501Y-43594500D01*
X108018811Y-43595663D01*
X107981654Y-43599658D01*
X107981655Y-43599658D01*
X107950162Y-43604299D01*
X107876419Y-43630611D01*
X107830668Y-43646935D01*
X107830666Y-43646935D01*
X107830663Y-43646937D01*
X107769345Y-43680419D01*
X107676952Y-43749584D01*
X107676938Y-43749597D01*
X107221978Y-44204559D01*
X107219612Y-44206803D01*
X105112656Y-46103065D01*
X104759723Y-46420705D01*
X104740860Y-46440108D01*
X104710736Y-46475543D01*
X104699484Y-46490277D01*
X104684959Y-46509298D01*
X104684957Y-46509302D01*
X104630612Y-46623934D01*
X104610926Y-46690976D01*
X104610924Y-46690984D01*
X104602685Y-46748294D01*
X104594500Y-46805224D01*
X104594500Y-50709499D01*
X104595663Y-50731189D01*
X104595664Y-50731196D01*
X104599658Y-50768345D01*
X104604299Y-50799837D01*
X104604301Y-50799842D01*
X104646935Y-50919332D01*
X104646936Y-50919335D01*
X104646937Y-50919336D01*
X104680416Y-50980649D01*
X104680421Y-50980657D01*
X104749580Y-51073043D01*
X104749596Y-51073061D01*
X104809354Y-51132819D01*
X104842839Y-51194142D01*
X104837855Y-51263834D01*
X104795983Y-51319767D01*
X104730519Y-51344184D01*
X104721673Y-51344500D01*
X100719326Y-51344500D01*
X100652287Y-51324815D01*
X100631645Y-51308181D01*
X100441819Y-51118354D01*
X100408334Y-51057031D01*
X100405500Y-51030673D01*
X100405500Y-45719325D01*
X100425185Y-45652286D01*
X100441819Y-45631644D01*
X100631644Y-45441819D01*
X100692967Y-45408334D01*
X100719325Y-45405500D01*
X102959498Y-45405500D01*
X102959499Y-45405500D01*
X102981189Y-45404337D01*
X103018345Y-45400342D01*
X103018344Y-45400342D01*
X103049837Y-45395700D01*
X103049838Y-45395699D01*
X103049842Y-45395699D01*
X103169332Y-45353065D01*
X103230655Y-45319580D01*
X103323051Y-45250413D01*
X103758093Y-44815371D01*
X103772608Y-44799211D01*
X103772613Y-44799205D01*
X103772613Y-44799206D01*
X103796057Y-44770112D01*
X103796056Y-44770112D01*
X103815042Y-44744561D01*
X103869389Y-44629923D01*
X103889074Y-44562884D01*
X103905500Y-44448638D01*
X103905500Y-40540501D01*
X103904337Y-40518811D01*
X103900342Y-40481655D01*
X103895699Y-40450158D01*
X103853065Y-40330668D01*
X103819580Y-40269345D01*
X103819578Y-40269342D01*
X103750419Y-40176956D01*
X103750403Y-40176938D01*
X103315374Y-39741909D01*
X103299205Y-39727387D01*
X103299206Y-39727387D01*
X103270112Y-39703943D01*
X103244560Y-39684957D01*
X103129927Y-39630612D01*
X103062885Y-39610926D01*
X103062877Y-39610924D01*
X102948638Y-39594500D01*
X94790501Y-39594500D01*
X94768811Y-39595663D01*
X94731655Y-39599658D01*
X94715908Y-39601979D01*
X94700162Y-39604300D01*
X94580672Y-39646932D01*
X94580670Y-39646933D01*
X94519347Y-39680418D01*
X94426958Y-39749578D01*
X94426943Y-39749591D01*
X94211681Y-39964853D01*
X94150358Y-39998338D01*
X94080666Y-39993354D01*
X94024733Y-39951482D01*
X94000316Y-39886018D01*
X94000000Y-39877172D01*
X94000000Y-36551361D01*
X94019685Y-36484322D01*
X94036314Y-36463685D01*
X95463680Y-35036319D01*
X95525004Y-35002834D01*
X95551362Y-35000000D01*
X120948638Y-35000000D01*
X121015677Y-35019685D01*
G37*
%TD.AperFunction*%
%TD*%
%TA.AperFunction,Conductor*%
%TO.N,GND*%
G36*
X159443039Y-79519685D02*
G01*
X159488794Y-79572489D01*
X159500000Y-79624000D01*
X159500000Y-86882698D01*
X159480315Y-86949737D01*
X159427511Y-86995492D01*
X159392183Y-87005637D01*
X159355244Y-87010499D01*
X159355237Y-87010501D01*
X159255201Y-87057149D01*
X159177151Y-87135199D01*
X159130501Y-87235240D01*
X159124502Y-87280810D01*
X159124501Y-87280826D01*
X159124501Y-88079179D01*
X159130501Y-88124755D01*
X159130503Y-88124762D01*
X159166501Y-88201959D01*
X159177151Y-88224798D01*
X159255202Y-88302849D01*
X159355241Y-88349498D01*
X159400822Y-88355499D01*
X159599179Y-88355498D01*
X159599181Y-88355498D01*
X159614373Y-88353498D01*
X159644761Y-88349498D01*
X159697598Y-88324859D01*
X159766672Y-88314368D01*
X159802402Y-88324858D01*
X159855241Y-88349498D01*
X159900822Y-88355499D01*
X160099179Y-88355498D01*
X160099181Y-88355498D01*
X160114373Y-88353498D01*
X160144761Y-88349498D01*
X160197598Y-88324859D01*
X160266672Y-88314368D01*
X160302402Y-88324858D01*
X160355241Y-88349498D01*
X160400822Y-88355499D01*
X160599179Y-88355498D01*
X160599181Y-88355498D01*
X160614373Y-88353498D01*
X160644761Y-88349498D01*
X160697598Y-88324859D01*
X160766672Y-88314368D01*
X160802402Y-88324858D01*
X160855241Y-88349498D01*
X160900822Y-88355499D01*
X161099179Y-88355498D01*
X161099181Y-88355498D01*
X161154167Y-88348260D01*
X161154495Y-88350758D01*
X161210395Y-88350866D01*
X161253741Y-88374968D01*
X161253771Y-88374926D01*
X161254206Y-88375226D01*
X161257681Y-88377159D01*
X161260038Y-88379257D01*
X161340625Y-88421412D01*
X161348373Y-88425465D01*
X161348374Y-88425466D01*
X161398502Y-88440184D01*
X161415412Y-88445150D01*
X161415416Y-88445150D01*
X161415418Y-88445151D01*
X161427049Y-88446823D01*
X161487397Y-88455500D01*
X161487398Y-88455500D01*
X161555481Y-88455500D01*
X161569150Y-88454767D01*
X161599008Y-88451557D01*
X161600514Y-88451476D01*
X161602283Y-88451204D01*
X161602310Y-88451202D01*
X161602311Y-88451202D01*
X161697447Y-88421412D01*
X161758767Y-88387928D01*
X161816982Y-88344348D01*
X161949188Y-88212144D01*
X161958336Y-88201959D01*
X161958339Y-88201956D01*
X161960588Y-88199164D01*
X161979264Y-88175986D01*
X162025465Y-88087661D01*
X162045150Y-88020622D01*
X162055500Y-87948637D01*
X162055500Y-87124000D01*
X162075185Y-87056961D01*
X162127989Y-87011206D01*
X162179500Y-87000000D01*
X166448638Y-87000000D01*
X166515677Y-87019685D01*
X166536319Y-87036319D01*
X167463682Y-87963682D01*
X167497166Y-88025003D01*
X167500000Y-88051361D01*
X167500000Y-102948638D01*
X167480315Y-103015677D01*
X167463681Y-103036319D01*
X166536319Y-103963681D01*
X166474996Y-103997166D01*
X166448638Y-104000000D01*
X158551362Y-104000000D01*
X158484323Y-103980315D01*
X158463681Y-103963681D01*
X157536319Y-103036319D01*
X157502834Y-102974996D01*
X157500000Y-102948638D01*
X157500000Y-99979500D01*
X157519685Y-99912461D01*
X157572489Y-99866706D01*
X157624000Y-99855500D01*
X161042806Y-99855500D01*
X161109845Y-99875185D01*
X161130487Y-99891818D01*
X161387854Y-100149186D01*
X161387861Y-100149192D01*
X161387859Y-100149191D01*
X161398044Y-100158339D01*
X161398045Y-100158340D01*
X161424003Y-100179257D01*
X161424007Y-100179260D01*
X161512338Y-100225465D01*
X161579377Y-100245150D01*
X161579381Y-100245150D01*
X161579383Y-100245151D01*
X161591014Y-100246823D01*
X161651362Y-100255500D01*
X161651363Y-100255500D01*
X163355480Y-100255500D01*
X163355481Y-100255500D01*
X163357758Y-100255377D01*
X163369153Y-100254767D01*
X163369153Y-100254766D01*
X163402310Y-100251202D01*
X163497444Y-100221413D01*
X163558767Y-100187928D01*
X163616985Y-100144347D01*
X163949186Y-99812146D01*
X163949192Y-99812139D01*
X163949191Y-99812141D01*
X163958339Y-99801956D01*
X163958340Y-99801955D01*
X163970096Y-99787364D01*
X163979260Y-99775993D01*
X164025465Y-99687662D01*
X164045150Y-99620623D01*
X164055500Y-99548638D01*
X164055500Y-98044519D01*
X164054767Y-98030852D01*
X164054767Y-98030847D01*
X164054766Y-98030846D01*
X164051202Y-97997690D01*
X164021413Y-97902556D01*
X163987928Y-97841233D01*
X163955591Y-97798036D01*
X163944350Y-97783019D01*
X163944349Y-97783018D01*
X163944347Y-97783015D01*
X163944342Y-97783010D01*
X163944334Y-97783001D01*
X163691819Y-97530486D01*
X163658334Y-97469163D01*
X163655500Y-97442805D01*
X163655500Y-95357193D01*
X163675185Y-95290154D01*
X163691819Y-95269512D01*
X163909971Y-95051360D01*
X164149186Y-94812145D01*
X164149192Y-94812138D01*
X164149191Y-94812140D01*
X164158339Y-94801955D01*
X164158340Y-94801954D01*
X164170096Y-94787363D01*
X164179260Y-94775992D01*
X164225465Y-94687661D01*
X164245150Y-94620622D01*
X164255500Y-94548637D01*
X164255500Y-90444518D01*
X164254767Y-90430851D01*
X164254767Y-90430846D01*
X164254766Y-90430845D01*
X164251202Y-90397689D01*
X164221413Y-90302554D01*
X164213116Y-90287359D01*
X164187935Y-90241243D01*
X164187927Y-90241230D01*
X164144354Y-90183023D01*
X164144338Y-90183005D01*
X163896469Y-89935137D01*
X163812146Y-89850814D01*
X163812139Y-89850808D01*
X163812141Y-89850809D01*
X163801956Y-89841661D01*
X163801955Y-89841660D01*
X163775996Y-89820742D01*
X163775994Y-89820741D01*
X163775993Y-89820740D01*
X163687662Y-89774535D01*
X163687659Y-89774534D01*
X163620624Y-89754850D01*
X163620616Y-89754848D01*
X163548639Y-89744500D01*
X163548638Y-89744500D01*
X162244519Y-89744500D01*
X162242241Y-89744622D01*
X162230847Y-89745233D01*
X162230846Y-89745233D01*
X162216450Y-89746781D01*
X162197695Y-89748797D01*
X162197681Y-89748800D01*
X162102560Y-89778585D01*
X162102559Y-89778585D01*
X162041230Y-89812072D01*
X161983026Y-89855644D01*
X161983008Y-89855659D01*
X161930487Y-89908181D01*
X161869164Y-89941666D01*
X161842806Y-89944500D01*
X161248224Y-89944500D01*
X161192840Y-89932919D01*
X161165137Y-89920001D01*
X161144761Y-89910500D01*
X161144759Y-89910499D01*
X161099189Y-89904500D01*
X161099186Y-89904499D01*
X161099180Y-89904499D01*
X161099173Y-89904499D01*
X160900820Y-89904499D01*
X160855244Y-89910499D01*
X160855239Y-89910500D01*
X160802404Y-89935138D01*
X160733326Y-89945629D01*
X160697596Y-89935137D01*
X160644760Y-89910499D01*
X160599189Y-89904500D01*
X160599186Y-89904499D01*
X160599180Y-89904499D01*
X160599173Y-89904499D01*
X160400820Y-89904499D01*
X160355244Y-89910499D01*
X160355237Y-89910501D01*
X160255201Y-89957149D01*
X160177151Y-90035199D01*
X160130501Y-90135240D01*
X160124502Y-90180810D01*
X160124501Y-90180826D01*
X160124501Y-90979179D01*
X160130501Y-91024758D01*
X160130502Y-91024759D01*
X160132884Y-91029868D01*
X160144499Y-91082265D01*
X160144500Y-91155480D01*
X160145233Y-91169153D01*
X160145234Y-91169154D01*
X160148798Y-91202309D01*
X160148799Y-91202315D01*
X160178586Y-91297441D01*
X160178590Y-91297451D01*
X160212068Y-91358761D01*
X160212072Y-91358767D01*
X160255653Y-91416985D01*
X160387854Y-91549186D01*
X160387861Y-91549192D01*
X160387859Y-91549191D01*
X160398044Y-91558339D01*
X160398045Y-91558340D01*
X160424003Y-91579257D01*
X160424007Y-91579260D01*
X160512338Y-91625465D01*
X160579377Y-91645150D01*
X160579381Y-91645150D01*
X160579383Y-91645151D01*
X160591014Y-91646823D01*
X160651362Y-91655500D01*
X161842806Y-91655500D01*
X161909845Y-91675185D01*
X161930487Y-91691819D01*
X162108181Y-91869513D01*
X162141666Y-91930836D01*
X162144500Y-91957194D01*
X162144500Y-94042805D01*
X162124815Y-94109844D01*
X162108181Y-94130486D01*
X161779494Y-94459173D01*
X161450814Y-94787854D01*
X161450808Y-94787861D01*
X161450809Y-94787859D01*
X161441661Y-94798044D01*
X161441660Y-94798045D01*
X161420738Y-94824009D01*
X161374536Y-94912332D01*
X161354849Y-94979373D01*
X161344500Y-95051360D01*
X161344500Y-97442806D01*
X161324815Y-97509845D01*
X161308181Y-97530487D01*
X161130487Y-97708181D01*
X161069164Y-97741666D01*
X161042806Y-97744500D01*
X157624000Y-97744500D01*
X157556961Y-97724815D01*
X157511206Y-97672011D01*
X157500000Y-97620500D01*
X157500000Y-97000000D01*
X157000000Y-96500000D01*
X155551362Y-96500000D01*
X155484323Y-96480315D01*
X155463681Y-96463681D01*
X155036319Y-96036319D01*
X155002834Y-95974996D01*
X155000000Y-95948638D01*
X155000000Y-93427870D01*
X156024500Y-93427870D01*
X156024501Y-93427876D01*
X156030908Y-93487483D01*
X156081202Y-93622328D01*
X156081206Y-93622335D01*
X156167452Y-93737544D01*
X156167455Y-93737547D01*
X156282664Y-93823793D01*
X156282671Y-93823797D01*
X156417517Y-93874091D01*
X156417516Y-93874091D01*
X156424444Y-93874835D01*
X156477127Y-93880500D01*
X157522872Y-93880499D01*
X157582483Y-93874091D01*
X157717331Y-93823796D01*
X157832546Y-93737546D01*
X157918796Y-93622331D01*
X157969091Y-93487483D01*
X157974633Y-93435928D01*
X158001370Y-93371382D01*
X158058762Y-93331533D01*
X158128587Y-93329038D01*
X158154214Y-93338701D01*
X158207825Y-93366017D01*
X158207826Y-93366017D01*
X158207828Y-93366018D01*
X158242947Y-93371579D01*
X158299265Y-93380500D01*
X158700734Y-93380499D01*
X158700739Y-93380499D01*
X158700739Y-93380498D01*
X158758300Y-93371382D01*
X158792170Y-93366018D01*
X158792171Y-93366018D01*
X158792172Y-93366017D01*
X158792175Y-93366017D01*
X158902391Y-93309859D01*
X158926865Y-93285384D01*
X158988186Y-93251900D01*
X159057878Y-93256884D01*
X159086606Y-93272153D01*
X159087894Y-93273072D01*
X159087898Y-93273076D01*
X159087902Y-93273078D01*
X159087905Y-93273080D01*
X159163134Y-93309857D01*
X159203482Y-93329582D01*
X159278418Y-93340500D01*
X159278423Y-93340500D01*
X159721577Y-93340500D01*
X159721582Y-93340500D01*
X159796518Y-93329582D01*
X159886922Y-93285386D01*
X159912099Y-93273078D01*
X159912102Y-93273076D01*
X160003076Y-93182102D01*
X160003078Y-93182099D01*
X160031328Y-93124310D01*
X160059582Y-93066518D01*
X160070500Y-92991582D01*
X160070500Y-92648418D01*
X160059582Y-92573482D01*
X160057222Y-92568656D01*
X160003078Y-92457900D01*
X159981380Y-92436202D01*
X159912102Y-92366924D01*
X159912100Y-92366923D01*
X159912099Y-92366922D01*
X159903739Y-92360953D01*
X159905912Y-92357908D01*
X159868423Y-92323618D01*
X159850501Y-92259404D01*
X159850501Y-91689998D01*
X159850501Y-91092987D01*
X159862119Y-91040586D01*
X159869500Y-91024759D01*
X159875501Y-90979178D01*
X159875500Y-90180821D01*
X159869500Y-90135239D01*
X159822851Y-90035200D01*
X159744800Y-89957149D01*
X159644761Y-89910500D01*
X159644759Y-89910499D01*
X159599189Y-89904500D01*
X159599186Y-89904499D01*
X159599180Y-89904499D01*
X159599173Y-89904499D01*
X159400820Y-89904499D01*
X159355244Y-89910499D01*
X159355239Y-89910500D01*
X159302404Y-89935138D01*
X159233326Y-89945629D01*
X159197596Y-89935137D01*
X159144760Y-89910499D01*
X159099189Y-89904500D01*
X159099186Y-89904499D01*
X159099180Y-89904499D01*
X159099173Y-89904499D01*
X158900820Y-89904499D01*
X158855244Y-89910499D01*
X158855237Y-89910501D01*
X158755201Y-89957149D01*
X158677151Y-90035199D01*
X158630501Y-90135240D01*
X158624502Y-90180810D01*
X158624501Y-90180826D01*
X158624501Y-90979175D01*
X158629292Y-91015570D01*
X158618523Y-91084604D01*
X158572141Y-91136858D01*
X158538458Y-91151522D01*
X158535901Y-91152207D01*
X158401619Y-91207828D01*
X158286309Y-91296309D01*
X158197828Y-91411619D01*
X158142208Y-91545898D01*
X158142207Y-91545900D01*
X158123237Y-91689998D01*
X158123237Y-91690001D01*
X158142207Y-91834099D01*
X158142209Y-91834104D01*
X158197826Y-91968377D01*
X158197826Y-91968378D01*
X158197828Y-91968381D01*
X158197829Y-91968382D01*
X158286309Y-92083691D01*
X158314284Y-92105157D01*
X158355486Y-92161586D01*
X158359640Y-92231332D01*
X158325426Y-92292252D01*
X158263709Y-92325004D01*
X158258194Y-92326005D01*
X158207828Y-92333981D01*
X158097607Y-92390142D01*
X158097603Y-92390145D01*
X158024568Y-92463181D01*
X157963245Y-92496666D01*
X157936887Y-92499500D01*
X157843154Y-92499500D01*
X157776115Y-92479815D01*
X157768853Y-92474774D01*
X157717331Y-92436204D01*
X157717328Y-92436202D01*
X157582482Y-92385908D01*
X157582483Y-92385908D01*
X157522883Y-92379501D01*
X157522881Y-92379500D01*
X157522873Y-92379500D01*
X157522864Y-92379500D01*
X156477129Y-92379500D01*
X156477123Y-92379501D01*
X156417516Y-92385908D01*
X156282671Y-92436202D01*
X156282664Y-92436206D01*
X156167455Y-92522452D01*
X156167452Y-92522455D01*
X156081206Y-92637664D01*
X156081202Y-92637671D01*
X156030910Y-92772513D01*
X156030909Y-92772517D01*
X156024500Y-92832127D01*
X156024500Y-92832134D01*
X156024500Y-92832135D01*
X156024500Y-93427870D01*
X155000000Y-93427870D01*
X155000000Y-80551362D01*
X155019685Y-80484323D01*
X155036319Y-80463681D01*
X155963681Y-79536319D01*
X156025004Y-79502834D01*
X156051362Y-79500000D01*
X159376000Y-79500000D01*
X159443039Y-79519685D01*
G37*
%TD.AperFunction*%
%TD*%
%TA.AperFunction,Conductor*%
%TO.N,GND*%
G36*
X137815677Y-33819685D02*
G01*
X137836319Y-33836319D01*
X138163681Y-34163681D01*
X138197166Y-34225004D01*
X138200000Y-34251362D01*
X138200000Y-34948638D01*
X138180315Y-35015677D01*
X138163681Y-35036319D01*
X137800000Y-35399999D01*
X137800000Y-36348638D01*
X137780315Y-36415677D01*
X137763681Y-36436319D01*
X137636319Y-36563681D01*
X137574996Y-36597166D01*
X137548638Y-36600000D01*
X136651362Y-36600000D01*
X136584323Y-36580315D01*
X136563681Y-36563681D01*
X136436319Y-36436319D01*
X136402834Y-36374996D01*
X136400000Y-36348638D01*
X136400000Y-35400000D01*
X136399999Y-35399999D01*
X136036319Y-35036318D01*
X136002834Y-34974995D01*
X136000000Y-34948637D01*
X136000000Y-34251362D01*
X136019685Y-34184323D01*
X136036319Y-34163681D01*
X136363681Y-33836319D01*
X136425004Y-33802834D01*
X136451362Y-33800000D01*
X137748638Y-33800000D01*
X137815677Y-33819685D01*
G37*
%TD.AperFunction*%
%TD*%
%TA.AperFunction,Conductor*%
%TO.N,Net-(J109-In)*%
G36*
X113143039Y-89419685D02*
G01*
X113188794Y-89472489D01*
X113200000Y-89524000D01*
X113200000Y-90000000D01*
X113600000Y-90400000D01*
X114948638Y-90400000D01*
X115015677Y-90419685D01*
X115036319Y-90436319D01*
X115163681Y-90563681D01*
X115197166Y-90625004D01*
X115200000Y-90651362D01*
X115199999Y-95148638D01*
X115180314Y-95215677D01*
X115163680Y-95236319D01*
X114800000Y-95599999D01*
X114800000Y-95600000D01*
X114800000Y-97200000D01*
X115363682Y-97763682D01*
X115397166Y-97825003D01*
X115400000Y-97851361D01*
X115400000Y-99548637D01*
X115380315Y-99615676D01*
X115363681Y-99636318D01*
X114836319Y-100163681D01*
X114774996Y-100197166D01*
X114748638Y-100200000D01*
X113251362Y-100200000D01*
X113184323Y-100180315D01*
X113163681Y-100163681D01*
X112600000Y-99600000D01*
X105800000Y-99600000D01*
X105799999Y-99600000D01*
X105200000Y-100199999D01*
X105200000Y-104948637D01*
X105180315Y-105015676D01*
X105163681Y-105036318D01*
X104636319Y-105563681D01*
X104574996Y-105597166D01*
X104548638Y-105600000D01*
X102251362Y-105600000D01*
X102184323Y-105580315D01*
X102163681Y-105563681D01*
X101636319Y-105036318D01*
X101602834Y-104974995D01*
X101600000Y-104948637D01*
X101600000Y-97851362D01*
X101619685Y-97784323D01*
X101636319Y-97763681D01*
X102163681Y-97236319D01*
X102225004Y-97202834D01*
X102251362Y-97200000D01*
X105148638Y-97200000D01*
X105215677Y-97219685D01*
X105236319Y-97236319D01*
X105800000Y-97800000D01*
X112600000Y-97800000D01*
X113200000Y-97200000D01*
X113200000Y-95451362D01*
X113219685Y-95384323D01*
X113236319Y-95363681D01*
X113400000Y-95200000D01*
X113600000Y-95000000D01*
X113600000Y-92400000D01*
X113200000Y-92000000D01*
X112251362Y-92000000D01*
X112184323Y-91980315D01*
X112163681Y-91963681D01*
X111836319Y-91636319D01*
X111802834Y-91574996D01*
X111800000Y-91548638D01*
X111800000Y-91150839D01*
X111811618Y-91098435D01*
X111864259Y-90985545D01*
X111864259Y-90985544D01*
X111870500Y-90938139D01*
X111870499Y-89561862D01*
X111867645Y-89540180D01*
X111878414Y-89471146D01*
X111924796Y-89418892D01*
X111990585Y-89400000D01*
X113076000Y-89400000D01*
X113143039Y-89419685D01*
G37*
%TD.AperFunction*%
%TD*%
%TA.AperFunction,Conductor*%
%TO.N,GND*%
G36*
X143015677Y-52519685D02*
G01*
X143036319Y-52536319D01*
X143463681Y-52963681D01*
X143497166Y-53025004D01*
X143500000Y-53051362D01*
X143500000Y-54448637D01*
X143480315Y-54515676D01*
X143463681Y-54536318D01*
X143061909Y-54938089D01*
X143033659Y-54959238D01*
X143017264Y-54968190D01*
X143017263Y-54968191D01*
X142947670Y-55020289D01*
X142947657Y-55020301D01*
X142814505Y-55153453D01*
X142803577Y-55165620D01*
X142803577Y-55165619D01*
X142781808Y-55192634D01*
X142777447Y-55198174D01*
X142726560Y-55298252D01*
X142706877Y-55365283D01*
X142706875Y-55365290D01*
X142706876Y-55365290D01*
X142694500Y-55451362D01*
X142694500Y-56356820D01*
X142695376Y-56373162D01*
X142695377Y-56373171D01*
X142699085Y-56407653D01*
X142699920Y-56414661D01*
X142699920Y-56414662D01*
X142734700Y-56521401D01*
X142734704Y-56521411D01*
X142768189Y-56582733D01*
X142820289Y-56652329D01*
X142820301Y-56652343D01*
X142953453Y-56785495D01*
X142953453Y-56785494D01*
X142958860Y-56790351D01*
X142995581Y-56849794D01*
X143000000Y-56882602D01*
X143000000Y-57500000D01*
X146448638Y-57500000D01*
X146515677Y-57519685D01*
X146536319Y-57536319D01*
X146963682Y-57963682D01*
X146997166Y-58025003D01*
X147000000Y-58051361D01*
X147000000Y-58948638D01*
X146980315Y-59015677D01*
X146963681Y-59036319D01*
X146536319Y-59463681D01*
X146474996Y-59497166D01*
X146448638Y-59500000D01*
X132999999Y-59500000D01*
X132500000Y-59999999D01*
X132500000Y-65448637D01*
X132480315Y-65515676D01*
X132463681Y-65536318D01*
X132036319Y-65963681D01*
X131974996Y-65997166D01*
X131948638Y-66000000D01*
X130551362Y-66000000D01*
X130484323Y-65980315D01*
X130463681Y-65963681D01*
X130036318Y-65536318D01*
X130002833Y-65474995D01*
X130000000Y-65448646D01*
X130000000Y-58051358D01*
X130019684Y-57984323D01*
X130036313Y-57963686D01*
X130963681Y-57036318D01*
X131025004Y-57002834D01*
X131051362Y-57000000D01*
X141500000Y-57000000D01*
X141509911Y-56990088D01*
X141519685Y-56956805D01*
X141572489Y-56911050D01*
X141609330Y-56900715D01*
X141614660Y-56900080D01*
X141721407Y-56865297D01*
X141782730Y-56831812D01*
X141852342Y-56779701D01*
X141924992Y-56707049D01*
X141924998Y-56707042D01*
X141924998Y-56707043D01*
X141929477Y-56702055D01*
X141935930Y-56694872D01*
X141957698Y-56667857D01*
X141962053Y-56662323D01*
X142012939Y-56562247D01*
X142032624Y-56495208D01*
X142045000Y-56409136D01*
X142045000Y-56095696D01*
X142048975Y-56067398D01*
X142048451Y-56067286D01*
X142049333Y-56063160D01*
X142049337Y-56063147D01*
X142058840Y-55996878D01*
X142059319Y-55913637D01*
X142053071Y-55866183D01*
X142053071Y-55833810D01*
X142059319Y-55786359D01*
X142058839Y-55703115D01*
X142049335Y-55636845D01*
X142049333Y-55636839D01*
X142048451Y-55632713D01*
X142048734Y-55632652D01*
X142048734Y-55632650D01*
X142048768Y-55632645D01*
X142048974Y-55632600D01*
X142045000Y-55604302D01*
X142045000Y-55382682D01*
X142045000Y-55382680D01*
X142044124Y-55366338D01*
X142040415Y-55331845D01*
X142039580Y-55324840D01*
X142037592Y-55318739D01*
X142004799Y-55218098D01*
X142004795Y-55218088D01*
X141971310Y-55156766D01*
X141919210Y-55087170D01*
X141919205Y-55087165D01*
X141919202Y-55087160D01*
X141919198Y-55087156D01*
X141919192Y-55087149D01*
X141853988Y-55021946D01*
X141853984Y-55021942D01*
X141813686Y-54988060D01*
X141813685Y-54988059D01*
X141813684Y-54988058D01*
X141800927Y-54979088D01*
X141778853Y-54963566D01*
X141756058Y-54949002D01*
X141756054Y-54949000D01*
X141650197Y-54911616D01*
X141581165Y-54900852D01*
X141510636Y-54900014D01*
X141503274Y-54899488D01*
X141484298Y-54896990D01*
X141474329Y-54896009D01*
X141456252Y-54894826D01*
X141446274Y-54894500D01*
X141446273Y-54894500D01*
X141445862Y-54894500D01*
X141378823Y-54874815D01*
X141358181Y-54858181D01*
X141036319Y-54536319D01*
X141002834Y-54474996D01*
X141000000Y-54448638D01*
X141000000Y-53051361D01*
X141019685Y-52984322D01*
X141036314Y-52963685D01*
X141463681Y-52536318D01*
X141525004Y-52502834D01*
X141551362Y-52500000D01*
X142948638Y-52500000D01*
X143015677Y-52519685D01*
G37*
%TD.AperFunction*%
%TD*%
%TA.AperFunction,Conductor*%
%TO.N,Net-(J103-Pin_1)*%
G36*
X153015677Y-47019685D02*
G01*
X153036319Y-47036319D01*
X153363681Y-47363681D01*
X153397166Y-47425004D01*
X153400000Y-47451362D01*
X153400000Y-49548637D01*
X153380315Y-49615676D01*
X153363681Y-49636318D01*
X153000000Y-49999999D01*
X153000000Y-56500000D01*
X153999999Y-57400000D01*
X154000000Y-57400000D01*
X168748638Y-57400000D01*
X168815677Y-57419685D01*
X168836319Y-57436319D01*
X169163681Y-57763681D01*
X169197166Y-57825004D01*
X169200000Y-57851362D01*
X169200000Y-64148638D01*
X169180315Y-64215677D01*
X169163681Y-64236319D01*
X168836319Y-64563681D01*
X168774996Y-64597166D01*
X168748638Y-64600000D01*
X162451362Y-64600000D01*
X162384323Y-64580315D01*
X162363681Y-64563681D01*
X162036319Y-64236318D01*
X162002834Y-64174995D01*
X162000000Y-64148637D01*
X162000000Y-60800000D01*
X161800000Y-60600000D01*
X156800000Y-60600000D01*
X156799999Y-60600000D01*
X156600000Y-60799999D01*
X156600000Y-64348638D01*
X156580315Y-64415677D01*
X156563681Y-64436319D01*
X156436319Y-64563681D01*
X156374996Y-64597166D01*
X156348638Y-64600000D01*
X154651362Y-64600000D01*
X154584323Y-64580315D01*
X154563681Y-64563681D01*
X154436319Y-64436319D01*
X154402834Y-64374996D01*
X154400000Y-64348638D01*
X154400000Y-60800000D01*
X154200000Y-60600000D01*
X153047145Y-60600000D01*
X152980106Y-60580315D01*
X152964764Y-60568679D01*
X151241619Y-59036994D01*
X151204591Y-58977743D01*
X151200000Y-58944315D01*
X151200000Y-50000000D01*
X150800000Y-49600000D01*
X144651362Y-49600000D01*
X144584323Y-49580315D01*
X144563681Y-49563681D01*
X144436319Y-49436319D01*
X144402834Y-49374996D01*
X144400000Y-49348638D01*
X144400000Y-47651362D01*
X144419685Y-47584323D01*
X144436319Y-47563681D01*
X144563681Y-47436319D01*
X144625004Y-47402834D01*
X144651362Y-47400000D01*
X149178791Y-47400000D01*
X149199200Y-47401690D01*
X149341880Y-47425500D01*
X149341881Y-47425500D01*
X149578119Y-47425500D01*
X149578120Y-47425500D01*
X149720799Y-47401690D01*
X149741209Y-47400000D01*
X150800000Y-47400000D01*
X151163681Y-47036318D01*
X151225004Y-47002834D01*
X151251362Y-47000000D01*
X152948638Y-47000000D01*
X153015677Y-47019685D01*
G37*
%TD.AperFunction*%
%TD*%
%TA.AperFunction,Conductor*%
%TO.N,GND*%
G36*
X150689135Y-49925185D02*
G01*
X150709777Y-49941819D01*
X150858181Y-50090223D01*
X150891666Y-50151546D01*
X150894500Y-50177904D01*
X150894500Y-52876000D01*
X150874815Y-52943039D01*
X150822011Y-52988794D01*
X150770500Y-53000000D01*
X148124000Y-53000000D01*
X148056961Y-52980315D01*
X148011206Y-52927511D01*
X148000000Y-52876000D01*
X148000000Y-50029500D01*
X148019685Y-49962461D01*
X148072489Y-49916706D01*
X148124000Y-49905500D01*
X150622096Y-49905500D01*
X150689135Y-49925185D01*
G37*
%TD.AperFunction*%
%TA.AperFunction,Conductor*%
G36*
X155943039Y-44019685D02*
G01*
X155988794Y-44072489D01*
X156000000Y-44124000D01*
X156000000Y-52876000D01*
X155980315Y-52943039D01*
X155927511Y-52988794D01*
X155876000Y-53000000D01*
X153429500Y-53000000D01*
X153362461Y-52980315D01*
X153316706Y-52927511D01*
X153305500Y-52876000D01*
X153305500Y-50177902D01*
X153325185Y-50110863D01*
X153341819Y-50090221D01*
X153585495Y-49846546D01*
X153585495Y-49846545D01*
X153596423Y-49834379D01*
X153596423Y-49834380D01*
X153618192Y-49807365D01*
X153622553Y-49801824D01*
X153673439Y-49701748D01*
X153693124Y-49634709D01*
X153705500Y-49548637D01*
X153705500Y-47443180D01*
X153704624Y-47426838D01*
X153700915Y-47392345D01*
X153700080Y-47385340D01*
X153693655Y-47365621D01*
X153665299Y-47278598D01*
X153665295Y-47278588D01*
X153631810Y-47217266D01*
X153579710Y-47147670D01*
X153579705Y-47147665D01*
X153579702Y-47147660D01*
X153579698Y-47147656D01*
X153579692Y-47147649D01*
X153246547Y-46814505D01*
X153246546Y-46814505D01*
X153234380Y-46803577D01*
X153234381Y-46803577D01*
X153207366Y-46781808D01*
X153201825Y-46777447D01*
X153101747Y-46726560D01*
X153034716Y-46706877D01*
X153034710Y-46706876D01*
X152948638Y-46694500D01*
X151243180Y-46694500D01*
X151226838Y-46695376D01*
X151192345Y-46699085D01*
X151189789Y-46699389D01*
X151185343Y-46699918D01*
X151078599Y-46734699D01*
X151017272Y-46768185D01*
X150947661Y-46820296D01*
X150947657Y-46820299D01*
X150836104Y-46931852D01*
X150709775Y-47058182D01*
X150648455Y-47091666D01*
X150622096Y-47094500D01*
X149734896Y-47094500D01*
X149722288Y-47095021D01*
X149689290Y-47097753D01*
X149676747Y-47099317D01*
X149562937Y-47118309D01*
X149542529Y-47120000D01*
X149377471Y-47120000D01*
X149357062Y-47118309D01*
X149243252Y-47099317D01*
X149241390Y-47099085D01*
X149230710Y-47097754D01*
X149219710Y-47096843D01*
X149197713Y-47095021D01*
X149185102Y-47094500D01*
X148124000Y-47094500D01*
X148056961Y-47074815D01*
X148011206Y-47022011D01*
X148000000Y-46970500D01*
X148000000Y-44124000D01*
X148019685Y-44056961D01*
X148072489Y-44011206D01*
X148124000Y-44000000D01*
X155876000Y-44000000D01*
X155943039Y-44019685D01*
G37*
%TD.AperFunction*%
%TD*%
M02*
