M48
; DRILL file {KiCad 7.0.7} date Fri Nov 17 01:25:35 2023
; FORMAT={-:-/ absolute / inch / decimal}
; #@! TF.CreationDate,2023-11-17T01:25:35+08:00
; #@! TF.GenerationSoftware,Kicad,Pcbnew,7.0.7
; #@! TF.FileFunction,Plated,1,4,PTH
FMAT,2
INCH
; #@! TA.AperFunction,Plated,PTH,ViaDrill
T1C0.0119
; #@! TA.AperFunction,Plated,PTH,ViaDrill
T2C0.0157
; #@! TA.AperFunction,Plated,PTH,ComponentDrill
T3C0.0394
; #@! TA.AperFunction,Plated,PTH,ComponentDrill
T4C0.0591
; #@! TA.AperFunction,Plated,PTH,ComponentDrill
T5C0.0669
%
G90
G05
T1
X4.3307Y-3.6094
X4.4394Y-3.3433
X4.4488Y-3.4476
X4.4496Y-3.4803
X4.5256Y-2.3189
X4.5256Y-2.4311
X4.5591Y-2.3189
X4.5591Y-2.4311
X4.5591Y-2.4646
X4.5827Y-2.2913
X4.5925Y-2.3228
X4.5925Y-2.372
X4.5925Y-2.4252
X4.5925Y-2.4587
X4.626Y-2.4311
X4.626Y-2.4665
X4.628Y-1.8169
X4.628Y-1.8484
X4.6299Y-1.7146
X4.6421Y-1.4461
X4.6594Y-1.7146
X4.6594Y-1.7657
X4.6594Y-1.8169
X4.6594Y-1.8484
X4.6831Y-1.6949
X4.7736Y-1.5157
X4.8031Y-1.5157
X4.8189Y-1.4882
X4.8189Y-1.5433
X4.8504Y-1.4882
X4.8504Y-1.5433
X4.8819Y-1.4882
X4.8819Y-1.5433
X5.2843Y-3.3862
X5.3819Y-1.3504
X5.3819Y-1.3819
X5.4094Y-1.3504
X5.4094Y-1.3819
X5.4161Y-3.3862
X5.5591Y-2.2756
X5.5669Y-1.4331
X5.5669Y-1.4646
X5.5669Y-1.5138
X5.5669Y-1.563
X5.5669Y-1.5945
X5.5709Y-2.0906
X5.5709Y-2.1496
X5.5709Y-2.3071
X5.5906Y-2.122
X5.5906Y-2.2756
X5.6043Y-2.1988
X5.6063Y-2.0906
X5.6063Y-2.1496
X5.6063Y-2.248
X5.6063Y-2.3071
X5.622Y-2.122
X5.622Y-2.2756
X5.6417Y-2.3071
X5.7087Y-2.2795
X5.7441Y-2.2795
X5.7756Y-2.2874
X5.7756Y-2.3189
X6.2472Y-3.6098
X6.2677Y-3.5276
X6.2688Y-3.4927
X6.2992Y-3.4921
X6.2992Y-3.5276
X6.3307Y-3.4921
X6.3307Y-3.5276
X6.3547Y-3.4224
T2
X3.7795Y-1.4567
X3.7795Y-1.5354
X3.8189Y-1.4961
X3.8583Y-1.4567
X3.8583Y-1.5354
X3.8976Y-1.4961
X3.937Y-1.4567
X3.937Y-1.5354
X3.9764Y-1.4961
X4.0157Y-1.4567
X4.0157Y-1.5354
X4.0551Y-1.4961
X4.0551Y-1.8504
X4.0945Y-1.4567
X4.0945Y-1.5354
X4.0945Y-1.811
X4.0945Y-2.2835
X4.0945Y-2.3622
X4.0945Y-2.4409
X4.1339Y-1.4961
X4.1339Y-1.7717
X4.1339Y-2.4016
X4.1339Y-2.4803
X4.1732Y-1.4567
X4.1732Y-1.5354
X4.1732Y-1.7323
X4.1732Y-2.4409
X4.1732Y-2.5197
X4.2126Y-1.4961
X4.2126Y-1.6929
X4.2126Y-2.4803
X4.2421Y-3.7894
X4.252Y-1.4567
X4.252Y-1.5354
X4.252Y-1.6535
X4.252Y-2.4409
X4.252Y-2.5197
X4.2717Y-3.0709
X4.2717Y-3.1102
X4.2717Y-3.1496
X4.2717Y-3.2579
X4.2717Y-3.2972
X4.2717Y-3.3366
X4.2717Y-3.376
X4.2717Y-3.4154
X4.2717Y-3.5138
X4.2717Y-3.5531
X4.2815Y-3.4646
X4.2913Y-1.4961
X4.2913Y-1.6929
X4.2913Y-2.4803
X4.3012Y-3.7894
X4.311Y-3.0709
X4.311Y-3.1102
X4.311Y-3.1496
X4.311Y-3.2579
X4.311Y-3.2972
X4.311Y-3.3366
X4.311Y-3.376
X4.311Y-3.4154
X4.311Y-3.5138
X4.311Y-3.5531
X4.3209Y-3.4646
X4.3307Y-1.4567
X4.3307Y-1.5354
X4.3307Y-1.6535
X4.3307Y-2.4409
X4.3307Y-2.5197
X4.3307Y-3.7303
X4.3701Y-1.4961
X4.3701Y-1.6929
X4.3701Y-3.4449
X4.3701Y-3.4843
X4.3996Y-2.5394
X4.3996Y-3.7205
X4.4094Y-1.4567
X4.4094Y-1.5354
X4.4094Y-1.6535
X4.4094Y-2.4409
X4.4094Y-3.4449
X4.4094Y-3.4843
X4.4193Y-2.4902
X4.439Y-3.7205
X4.4488Y-1.4961
X4.4488Y-1.6929
X4.4488Y-2.5394
X4.4783Y-1.6437
X4.4882Y-1.4567
X4.4882Y-1.5354
X4.498Y-1.6043
X4.498Y-2.5394
X4.5079Y-3.4646
X4.5276Y-2.4902
X4.5374Y-1.6043
X4.5472Y-1.5157
X4.5472Y-2.5394
X4.5571Y-3.4646
X4.5571Y-3.5138
X4.5669Y-3.563
X4.5669Y-3.6122
X4.5669Y-3.6614
X4.5768Y-1.4764
X4.5965Y-1.5157
X4.6063Y-1.6043
X4.6358Y-2.5394
X4.6457Y-1.6043
X4.6555Y-2.4902
X4.6752Y-1.6339
X4.685Y-2.5394
X4.7323Y-1.7402
X4.7323Y-1.7795
X4.7343Y-2.5394
X4.7638Y-2.4902
X4.7717Y-1.7402
X4.7717Y-1.7795
X4.7835Y-2.5492
X4.8228Y-2.5197
X4.8228Y-2.5787
X4.9016Y-2.5197
X4.9016Y-2.5787
X5.0197Y-3.5138
X5.0197Y-3.5531
X5.0591Y-3.5138
X5.0591Y-3.5531
X5.0866Y-3.6142
X5.0866Y-3.6535
X5.0866Y-3.6929
X5.0866Y-3.7323
X5.0984Y-3.5138
X5.0984Y-3.5531
X5.1181Y-1.4961
X5.1181Y-1.5354
X5.126Y-3.6142
X5.126Y-3.6535
X5.126Y-3.6929
X5.126Y-3.7323
X5.1339Y-2.5236
X5.1339Y-2.5669
X5.1654Y-2.4843
X5.1673Y-1.4862
X5.1673Y-1.5453
X5.187Y-3.4547
X5.187Y-3.4941
X5.2008Y-2.5236
X5.2008Y-2.5669
X5.2165Y-1.4862
X5.2165Y-1.5453
X5.2264Y-3.5039
X5.2874Y-2.2992
X5.2913Y-3.4488
X5.2913Y-3.4882
X5.3307Y-2.2992
X5.3307Y-3.2598
X5.3307Y-3.4488
X5.3307Y-3.4882
X5.3661Y-2.2717
X5.3661Y-3.2244
X5.3701Y-3.4488
X5.3701Y-3.4882
X5.378Y-1.6693
X5.3858Y-3.6063
X5.4016Y-3.2598
X5.4094Y-2.2717
X5.4094Y-3.4488
X5.4094Y-3.4882
X5.4173Y-3.685
X5.4213Y-1.6535
X5.4252Y-3.5354
X5.4252Y-3.5748
X5.4409Y-3.6142
X5.4449Y-1.6142
X5.4449Y-2.2992
X5.4488Y-3.4488
X5.4488Y-3.4882
X5.4567Y-3.6614
X5.4921Y-1.685
X5.5276Y-1.685
X5.5551Y-1.6575
X5.5984Y-1.3504
X5.5984Y-1.4449
X5.6496Y-1.3504
X5.6496Y-1.4449
X6.1339Y-3.7402
X6.1811Y-3.1496
X6.1811Y-3.189
X6.1811Y-3.2283
X6.1811Y-3.3386
X6.1811Y-3.378
X6.1811Y-3.4173
X6.1811Y-3.4567
X6.1811Y-3.4961
X6.1811Y-3.5354
X6.1811Y-3.5748
X6.1811Y-3.7795
X6.2205Y-3.1496
X6.2205Y-3.189
X6.2205Y-3.2283
X6.2205Y-3.3386
X6.2205Y-3.378
X6.2205Y-3.4173
X6.2205Y-3.4567
X6.2205Y-3.4961
X6.2205Y-3.5354
X6.2205Y-3.5748
X6.2283Y-3.7402
X6.3071Y-3.6929
X6.3228Y-3.6299
X6.3622Y-3.6299
X6.3701Y-3.5118
X6.4016Y-3.4488
X6.4409Y-3.4488
X6.4646Y-3.4803
X6.4646Y-3.5197
T3
X3.788Y-1.6701
X3.788Y-2.4614
X3.888Y-1.6701
X3.888Y-2.4614
X3.988Y-1.6701
X3.988Y-2.4614
X4.0732Y-3.8878
X4.0732Y-3.9878
X4.0732Y-4.0878
X4.1748Y-1.9683
X4.1748Y-2.0683
X4.1748Y-2.1683
X5.0378Y-3.8878
X5.0378Y-3.9878
X5.0378Y-4.0878
X5.3512Y-4.2126
X5.4512Y-4.2126
X5.5512Y-4.2126
X5.7299Y-1.8094
X5.7299Y-1.9094
X5.7299Y-2.0094
X5.9827Y-3.8878
X5.9827Y-3.9878
X5.9827Y-4.0878
X6.022Y-2.5016
X6.122Y-2.5016
X6.222Y-2.5016
X6.4173Y-2.5016
X6.4173Y-2.6016
X6.6059Y-2.5
X6.6059Y-2.6
X6.6059Y-2.8134
X6.6059Y-2.9134
T4
X3.8976Y-2.0654
X4.4866Y-3.8894
X4.5315Y-2.0606
X4.9882Y-1.8953
X5.4512Y-3.8894
X5.9843Y-1.911
X6.3961Y-3.8894
T5
X3.7976Y-1.9654
X3.7976Y-2.1654
X3.9976Y-1.9654
X3.9976Y-2.1654
X4.3866Y-3.7894
X4.3866Y-3.9894
X4.4315Y-1.9606
X4.4315Y-2.1606
X4.5866Y-3.7894
X4.5866Y-3.9894
X4.6315Y-1.9606
X4.6315Y-2.1606
X4.8882Y-1.7953
X4.8882Y-1.9953
X5.0882Y-1.7953
X5.0882Y-1.9953
X5.3512Y-3.7894
X5.3512Y-3.9894
X5.5512Y-3.7894
X5.5512Y-3.9894
X5.8843Y-1.811
X5.8843Y-2.011
X6.0843Y-1.811
X6.0843Y-2.011
X6.2961Y-3.7894
X6.2961Y-3.9894
X6.4961Y-3.7894
X6.4961Y-3.9894
T0
M30
